<?xml version="1.0" standalone="no"?>
<!DOCTYPE svg PUBLIC "-//W3C//DTD SVG 1.1//EN" "http://www.w3.org/Graphics/SVG/1.1/DTD/svg11.dtd" >
<svg>
<metadata>
Created by FontForge 20090914 at Thu Oct  9 00:33:20 2014
 By www-data
&#194;&#169; 1999-2000, Apostrophe. All rights reserved. apostrofe@mail.com
</metadata>
<defs>
<font id="FightThis" horiz-adv-x="377" >
  <font-face 
    font-family="FightThis"
    font-weight="400"
    font-stretch="normal"
    units-per-em="1000"
    panose-1="2 0 0 6 4 0 0 2 0 4"
    ascent="800"
    descent="-200"
    x-height="719"
    cap-height="719"
    bbox="-72.7989 -231.996 830.822 1055"
    underline-thickness="50"
    underline-position="-75"
    unicode-range="U+0006-U+2122"
  />
<missing-glyph horiz-adv-x="500" 
 />
    <glyph glyph-name=".notdef" horiz-adv-x="500" 
 />
    <glyph glyph-name="dotaccent" horiz-adv-x="190" 
d="M274 974h-110c-2 0 -3.66699 -1.33301 -5 -4l-39 -130c-1.33301 -4 0.333984 -6 5.00098 -6h110c2 0 3.66699 1.33301 5 4l39 130c1.33301 4 -0.333984 6 -5.00098 6z" />
    <glyph glyph-name="ring" horiz-adv-x="519" 
d="M457 810l44 143.999c4 14 6 27 6 39c0 19.333 -5.16699 34.333 -15.5 45s-23.833 16 -40.5 16h-51c-20.667 0 -41 -8.33301 -61 -25s-35 -41 -45 -73l-44 -144c-4 -14 -6 -26.667 -6 -38c0 -20 5.16699 -35.333 15.5 -46s23.833 -16 40.5 -16h22c2 0 3.66699 1 5 3l25 75
c1.33301 4.66699 -0.333984 7 -5.00098 7c-8 0 -12 4.33301 -12 13c0 2.66699 0.333008 5 1 7l38 129v-1c2 6 5.83301 11.5 11.5 16.5s11.834 7.5 18.501 7.5c4.66699 0 8 -1.16699 10 -3.5s3 -5.16602 3 -8.49902c0 -2 -0.666992 -5 -2 -9l-38 -128
c-2 -8.66699 -8.33301 -15.667 -19 -21c-2 0 -3 -1 -3 -3l-26 -77c-1.33301 -4.66699 0.333984 -7 5.00098 -7h17c20.667 0 41.167 8.33301 61.5 25s35.166 41 44.499 73z" />
    <glyph glyph-name="caron" horiz-adv-x="510" 
d="M546 1055h-94.001c-1.33301 0 -2.66602 -0.666992 -3.99902 -2l-110 -187l-13 174c0 3.33301 -1.66699 5 -5 5h-93c-3.33301 0 -5 -2 -5 -6l35 -327c0 -2.66699 1.66699 -4 5 -4h85c1.33301 0 2.66602 0.666992 3.99902 2l199 337c2.66699 5.33301 1.33398 8 -3.99902 8z
" />
    <glyph glyph-name="dotlessi" unicode="&#xd;" horiz-adv-x="205" 
d="M41 -5h124c2 0 3.66699 1.33301 5 4l215 714c1.33301 4 -0.333984 6 -5.00098 6h-124c-2 0 -3.66699 -1.33301 -5 -4l-215 -714c-1.33301 -4 0.333984 -6 5.00098 -6z" />
    <glyph glyph-name="fraction" horiz-adv-x="252" 
d="M476 733h-95.999c-0.666992 0 -2 -1 -4 -3l-389 -742c-2.66699 -4.66699 -1.33398 -7 3.99902 -7h95c0.666992 0 2 1 4 3l390 742c2 4.66699 0.666992 7 -4 7z" />
    <glyph glyph-name="Zcaron" horiz-adv-x="331" 
d="M617 1055h-94.002c-1.33301 0 -2.66602 -0.666992 -3.99902 -2l-110 -187l-13 174c0 3.33301 -1.66699 5 -5 5h-93c-3.33301 0 -5 -2 -5 -6l34 -320h-89c-2 0 -3.66699 -1.33301 -5 -4l-40 -130c-1.33301 -4 0.333984 -6 5.00098 -6h135l-280 -447l-39 -131
c-1.33301 -4 0.333984 -6 5.00098 -6h303c2 0 3.66699 1.33301 5 4l39 130c1.33301 4 -0.333984 6 -5.00098 6h-160l287 447l40 131c1.33301 4 -0.333984 6 -5.00098 6h-96l194 328c2.66699 5.33301 1.33398 8 -3.99902 8z" />
    <glyph glyph-name="zcaron" horiz-adv-x="331" 
d="M19 -5h302.998c2 0 3.66699 1.33301 5 4l39 130c1.33301 4 -0.333984 6 -5.00098 6h-160l287 447l40 131c1.33301 4 -0.333984 6 -5.00098 6h-96l194 328c2.66699 5.33301 1.33398 8 -3.99902 8h-94c-1.33301 0 -2.66602 -0.666992 -3.99902 -2l-110 -187l-13 174
c0 3.33301 -1.66699 5 -5 5h-93c-3.33301 0 -5 -2 -5 -6l34 -320h-89c-2 0 -3.66699 -1.33301 -5 -4l-40 -130c-1.33301 -4 0.333984 -6 5.00098 -6h135l-280 -447l-39 -131c-1.33301 -4 0.333984 -6 5.00098 -6z" />
    <glyph glyph-name="space" unicode=" " horiz-adv-x="181" 
 />
    <glyph glyph-name="exclam" unicode="!" horiz-adv-x="220" 
d="M224 212l169 500c1.33301 4.66699 -0.333984 7 -5.00098 7h-125c-2 0 -3.66699 -1.33301 -5 -4l-133 -500c-1.33301 -4 0.333984 -6 5.00098 -6h89c2 0 3.66699 1 5 3zM205 135h-111c-2 0 -3.66699 -1.33301 -5 -4l-39 -130c-1.33301 -4 0.333984 -6 5.00098 -6h111
c2 0 3.66699 1.33301 5 4l39 130c1.33301 4 -0.333984 6 -5.00098 6z" />
    <glyph glyph-name="quotedbl" unicode="&#x22;" horiz-adv-x="320" 
d="M378 715l-82 -270c-1.33301 -4 0.333984 -6 5.00098 -6h95c2 0 3.66699 1.33301 5 4l82 270c1.33301 4 -0.333984 6 -5.00098 6h-95c-2 0 -3.66699 -1.33301 -5 -4zM230 715l-82 -270c-1.33301 -4 0.333984 -6 5.00098 -6h95c2 0 3.66699 1.33301 5 4l82 270
c1.33301 4 -0.333984 6 -5.00098 6h-95c-2 0 -3.66699 -1.33301 -5 -4z" />
    <glyph glyph-name="numbersign" unicode="#" horiz-adv-x="362" 
d="M283 403h191.002c2 0 3.66699 1 5 3l30 90c1.33301 4.66699 -0.333984 7 -5.00098 7h-48l76 191c1.33301 4.66699 -0.333984 7 -5.00098 7h-65c-2.66699 0 -4.33398 -1 -5.00098 -3l-79 -195h-197c-2.66699 0 -4.33398 -1 -5.00098 -3l-29 -90
c-1.33301 -4.66699 0.333984 -7 5.00098 -7h53l-41 -101c-1.33301 -4.66699 0.333984 -7 5.00098 -7h66c2 0 3.66699 1 5 3zM294.002 293h-196.998c-2.66699 0 -4.33398 -1 -5.00098 -3l-29 -90c-1.33301 -4.66699 0.333984 -7 5.00098 -7h54l-77 -191
c-1.33301 -4.66699 0.333984 -7 5.00098 -7h66c2 0 3.66699 1 5 3l79 195h191c2 0 3.66699 1.33301 5 4l28 90c1.33301 4 -0.333984 6 -5.00098 6h-47l40 99c1.33301 4.66699 -0.333984 7 -5.00098 7h-66c-2.66699 0 -4.33398 -1 -5.00098 -3zM184.004 -5h66.001
c2 0 3.66699 1 5 3l74 186c1.33301 4.66699 -0.333984 7 -5.00098 7h-67c-2.66699 0 -4.33398 -1 -5.00098 -3l-73 -186c-1.33301 -4.66699 0.333984 -7 5.00098 -7zM325.005 509l74.001 185c1.33301 4.66699 -0.333984 7 -5.00098 7h-67
c-2.66699 0 -4.33398 -1 -5.00098 -3l-73 -185c-1.33301 -4.66699 0.333984 -7 5.00098 -7h66c2 0 3.66699 1 5 3z" />
    <glyph glyph-name="dollar" unicode="$" horiz-adv-x="362" 
d="M180 101l-54.9951 -181.995c-1.33301 -4 0.333984 -6 5.00098 -6h52c2 0 3.66699 1.33301 5 4l20 64c24 0 45.833 3 65.5 9s37.667 16.333 54 31s31.5 34.667 45.5 60s27 58 39 98c4 13.333 6.83301 25.666 8.5 36.999s2.5 22.666 2.5 33.999
c0 18.667 -2.33301 35.667 -7 51s-10.834 29.5 -18.501 42.5s-16.167 25 -25.5 36l-27 31.5c-14.667 16.667 -27.834 32.667 -39.501 48s-17.5 32.666 -17.5 51.999c0 7.33301 1.66699 16.666 5 27.999c11.333 38.667 33.666 58 66.999 58c10.667 0 19.667 -2.16699 27 -6.5
s11 -11.833 11 -22.5c0 -7.33301 -1.33301 -15 -4 -23l-14 -48c-1.33301 -4 0.333984 -6 5.00098 -6h110c2 0 3.66699 1.33301 5 4l21 70v-1c7.33301 23.333 11 45 11 65c0 25.333 -7.5 46.333 -22.5 63s-41.5 25.667 -79.5 27l18 62c1.33301 4 -0.333984 6 -5.00098 6h-52
c-2 0 -3.66699 -1.33301 -5 -4l-19 -64c-24 -0.666992 -46.167 -4.5 -66.5 -11.5s-39 -18.167 -56 -33.5s-32.167 -35.333 -45.5 -60s-25.333 -55 -36 -91c-4 -13.333 -6.83301 -25.5 -8.5 -36.5s-2.5 -21.833 -2.5 -32.5c0 -19.333 2.5 -36.333 7.5 -51
s11.5 -28.167 19.5 -40.5s17 -23.5 27 -33.5s20 -19.333 30 -28c15.333 -14 28.666 -27.833 39.999 -41.5s17 -29.834 17 -48.501c0 -9.33301 -1.33301 -18.333 -4 -27c-8.66699 -28.667 -20.834 -49 -36.501 -61s-34.834 -18 -57.501 -18h-9c-2 0 -3.66699 -1.33301 -5 -4z
" />
    <glyph glyph-name="percent" unicode="%" horiz-adv-x="519" 
d="M369 467l44 143.999c4 14 6 27 6 39c0 19.333 -5.16699 34.333 -15.5 45s-23.833 16 -40.5 16h-51c-20.667 0 -41 -8.33301 -61 -25s-35 -41 -45 -73l-44 -144c-4 -14 -6 -26.667 -6 -38c0 -20 5.16699 -35.333 15.5 -46s23.833 -16 40.5 -16h22c2 0 3.66699 1 5 3l25 75
c1.33301 4.66699 -0.333984 7 -5.00098 7c-8 0 -12 4.33301 -12 13c0 2.66699 0.333008 5 1 7l38 129v-1c2 6 5.83301 11.5 11.5 16.5s11.834 7.5 18.501 7.5c4.66699 0 8 -1.16699 10 -3.5s3 -5.16602 3 -8.49902c0 -2 -0.666992 -5 -2 -9l-38 -128
c-2 -8.66699 -8.33301 -15.667 -19 -21c-2 0 -3 -1 -3 -3l-26 -77c-1.33301 -4.66699 0.333984 -7 5.00098 -7h17c20.667 0 41.167 8.33301 61.5 25s35.166 41 44.499 73zM410 89.999l38.001 130v-1c3.33301 9.33301 9.66602 16.333 18.999 21c2 0 3 1 3 3l24 78
c1.33301 4 -0.333984 6 -5.00098 6h-16c-20.667 0 -41 -8.33301 -61 -25s-35 -41 -45 -73l-42 -144c-4 -14 -6 -27 -6 -39c0 -19.333 5.16699 -34.333 15.5 -45s23.833 -16 40.5 -16h51c20.667 0 41 8.33301 61 25s35 40.667 45 72l42 145c4 14 6 27 6 39
c0 19.333 -5.16699 34.333 -15.5 45s-23.833 16 -40.5 16h-23c-2 0 -3.66699 -1.33301 -5 -4l-22 -75c-1.33301 -4 0.333984 -6 5.00098 -6c8 -1.33301 12 -5.33301 12 -12c0 -1.33301 -0.666992 -4 -2 -8l-38 -129c-1.33301 -5.33301 -4.5 -10.5 -9.5 -15.5
s-11.167 -7.5 -18.5 -7.5c-5.33301 0 -9 1.5 -11 4.5s-3 6.16699 -3 9.5c0 2 0.333008 4 1 6zM702.001 710.999h-58c-1.33301 0 -2.66602 -0.666992 -3.99902 -2l-612 -716c-1.33301 -1.33301 -1.66602 -3 -0.999023 -5s2.33398 -3 5.00098 -3h58
c1.33301 0 2.66602 0.666992 3.99902 2l612 716c1.33301 1.33301 1.66602 3 0.999023 5s-2.33398 3 -5.00098 3z" />
    <glyph glyph-name="ampersand" unicode="&#x26;" horiz-adv-x="456" 
d="M486 518c10 32 14.999 59.6709 14.999 83.0039c0 31.333 -8.66699 54.166 -26 68.499s-43.666 21.5 -78.999 21.5c-46 0 -85.667 -14.667 -119 -44s-59.666 -76.666 -78.999 -141.999c-4 -13.333 -7.16699 -27.166 -9.5 -41.499s-3.5 -28.5 -3.5 -42.5
c0 -12.667 1 -24.667 3 -36s5.33301 -21.666 10 -30.999c-32 -20 -60.667 -45.667 -86 -77s-43.666 -65.333 -54.999 -102c-8.66699 -28.667 -13 -56.334 -13 -83.001c0 -34.667 9.33301 -61.834 28 -81.501s48.334 -29.5 89.001 -29.5c31.333 0 58.833 6.66699 82.5 20
s48.167 33.666 73.5 60.999l2 -4l2 -4l11 -25c3.33301 -7.33301 7.83301 -13.5 13.5 -18.5s12.667 -8.83301 21 -11.5s19.5 -4 33.5 -4h43c2 0 3.66699 1.33301 5 4l38 126c1.33301 4 -0.333984 6 -5.00098 6h-28c-5.33301 1.33301 -9.33301 4 -12 8s-5 9.33301 -7 16
c-0.666992 1.33301 -0.333984 1.16602 0.999023 -0.500977l2 -2.5c0.666992 0 0.166992 1.5 -1.5 4.5l-11.5 20.5l135 165c1.33301 1.33301 1.66602 3 0.999023 5s-2.33398 3 -5.00098 3h-125c-1.33301 0 -2.66602 -0.666992 -3.99902 -2l-50 -60l-22 51
c15.333 11.333 29.333 22.333 42 33s24.5 22.667 35.5 36s21 28.666 30 45.999s17.167 38.666 24.5 63.999zM202.999 117.004c-10 0 -17.333 2.66797 -22 8.00098s-7 12.666 -7 21.999c0 7.33301 1.33301 15 4 23c4.66699 16.667 12 31.667 22 45s21.667 25 35 35l37 -85
c-28 -32 -51 -48 -69 -48zM307.999 473.005c0 13.333 2 26.999 6 40.999v-1c6 19.333 13.333 33.5 22 42.5s17.667 13.5 27 13.5c12.667 0 19 -7.33301 19 -22c0 -6 -1.66699 -15 -5 -27c-5.33301 -19.333 -12.333 -34.666 -21 -45.999s-23 -24.333 -43 -39
c-3.33301 12 -5 24.667 -5 38z" />
    <glyph glyph-name="quotesingle" unicode="'" horiz-adv-x="174" 
d="M233 714l-82 -270c-1.33301 -4 0.333984 -6 5.00098 -6h95c2 0 3.66699 1.33301 5 4l82 270c1.33301 4 -0.333984 6 -5.00098 6h-95c-2 0 -3.66699 -1.33301 -5 -4z" />
    <glyph glyph-name="parenleft" unicode="(" horiz-adv-x="252" 
d="M224 -1l30.0039 100c1.33301 4 -0.333984 6 -5.00098 6h-29c-22.667 0 -34 5.33301 -34 16c0 3.33301 1 8 3 14l133 441c3.33301 13.333 9.16602 22.166 17.499 26.499s20.166 6.5 35.499 6.5h29c2 0 3.66699 1.33301 5 4l30 100c1.33301 4 -0.333984 6 -5.00098 6h-75
c-30 0 -57.167 -9.33301 -81.5 -28s-42.5 -49 -54.5 -91l-146 -484v1c-6 -19.333 -9 -37 -9 -53c0 -23.333 6.83301 -40.666 20.5 -51.999s32.167 -17 55.5 -17h75c2 0 3.66699 1.33301 5 4z" />
    <glyph glyph-name="parenright" unicode=")" horiz-adv-x="252" 
d="M57 101l-30.0039 -100c-1.33301 -4 0.333984 -6 5.00098 -6h76c30 0 56.833 9.33301 80.5 28s41.834 49 54.501 91l146 484c3.33301 10 5.5 19.333 6.5 28s1.5 16.667 1.5 24c0 23.333 -6.5 40.666 -19.5 51.999s-31.167 17 -54.5 17h-76c-2 0 -3.66699 -1.33301 -5 -4
l-30 -100c-1.33301 -4 0.333984 -6 5.00098 -6h29c22.667 0 34 -5.66699 34 -17v-6c0 -2 -0.666992 -4.66699 -2 -8l-133 -440c-4 -13.333 -10.167 -22.166 -18.5 -26.499s-20.166 -6.5 -35.499 -6.5h-29c-2 0 -3.66699 -1.33301 -5 -4z" />
    <glyph glyph-name="asterisk" unicode="*" horiz-adv-x="346" 
d="M467 535l34 61.9971c1.33301 1.33301 1.33301 3 0 5l-30 41c-2.66699 2.66699 -5 3 -7 1l-100 -71l65 113c1.33301 2 1.33301 3.66699 0 5l-33 40c-2 2 -4.33301 2.33301 -7 1l-57 -40c-1.33301 -1.33301 -2 -2.66602 -2 -3.99902l-2 -118l-60 73
c-2.66699 2.66699 -5 3 -7 1l-54 -41c-1.33301 -1.33301 -2 -2.66602 -2 -3.99902l-4 -62c0 -3.33301 1.66699 -5 5 -5h93l-95 -62c-1.33301 -1.33301 -2 -2.66602 -2 -3.99902l-6 -64c0 -3.33301 1.66699 -5 5 -5h59c0.666992 0 2 1 4 3l63 112l-5 -110
c0 -3.33301 1.66699 -5 5 -5h59c0.666992 0 2 1 4 3l34 64c1.33301 2 1.33301 3.66699 0 5l-59 63h98c0.666992 0 2 1 4 3z" />
    <glyph glyph-name="plus" unicode="+" horiz-adv-x="510" 
d="M569 319h-438.001c-2 0 -3.66699 -1.33301 -5 -4l-35 -112c-1.33301 -4 0.333984 -6 5.00098 -6h164l-58 -196c-1.33301 -4 0.333984 -6 5.00098 -6h96c2 0 3.66699 1.33301 5 4l59 198h167c2 0 3.66699 1.33301 5 4l35 112c1.33301 4 -0.333984 6 -5.00098 6z
M415.999 368l48.001 146c1.33301 4.66699 -0.333984 7 -5.00098 7h-96c-2.66699 0 -4.33398 -1 -5.00098 -3l-48 -146c-1.33301 -4.66699 0.333984 -7 5.00098 -7h96c2 0 3.66699 1 5 3z" />
    <glyph glyph-name="comma" unicode="," horiz-adv-x="181" 
d="M185 135h-109.998c-2 0 -3.66699 -1.33301 -5 -4l-39 -130c-1.33301 -4 0.333984 -6 5.00098 -6h32l-84 -122c-2.66699 -5.33301 -1.33398 -8 3.99902 -8h62c1.33301 0 2.66602 0.666992 3.99902 2l97 131l39 131c1.33301 4 -0.333984 6 -5.00098 6z" />
    <glyph glyph-name="hyphen" unicode="-" horiz-adv-x="268" 
d="M96 193h196c2 0 3.66699 1.33301 5 4l36 120c1.33301 4 -0.333984 6 -5.00098 6h-196c-2 0 -3.66699 -1.33301 -5 -4l-36 -120c-1.33301 -4 0.333984 -6 5.00098 -6z" />
    <glyph glyph-name="period" unicode="." horiz-adv-x="181" 
d="M185 135h-110c-2 0 -3.66699 -1.33301 -5 -4l-39 -130c-1.33301 -4 0.333984 -6 5.00098 -6h110c2 0 3.66699 1.33301 5 4l39 130c1.33301 4 -0.333984 6 -5.00098 6z" />
    <glyph glyph-name="slash" unicode="/" horiz-adv-x="252" 
d="M476 733h-95.999c-0.666992 0 -2 -1 -4 -3l-389 -742c-2.66699 -4.66699 -1.33398 -7 3.99902 -7h95c0.666992 0 2 1 4 3l390 742c2 4.66699 0.666992 7 -4 7z" />
    <glyph glyph-name="zero" unicode="0" horiz-adv-x="362" 
d="M366 531l-110 -364.001c-8 -24.667 -17.333 -39.334 -28 -44.001c-2 0 -3 -1.33301 -3 -4l-37 -127c-1.33301 -4 0.333984 -6 5.00098 -6c48 2 87.167 15 117.5 39s53.833 62.667 70.5 116l124 412c7.33301 26 11 48 11 66c0 33.333 -10.5 57 -31.5 71s-51.5 21 -91.5 21
c-51.333 0 -93.666 -12 -126.999 -36s-58.333 -64 -75 -120l-124 -412v1c-8 -25.333 -12 -47.666 -12 -66.999c0 -30.667 9.5 -53.167 28.5 -67.5s46.5 -22.166 82.5 -23.499c2 0 3.66699 1.33301 5 4l36 127c1.33301 2 0.666016 3.66699 -2.00098 5c-4 2 -6 7.33301 -6 16
c0 4.66699 1.66699 13.667 5 27l110 364v-1c5.33301 17.333 11.666 29.833 18.999 37.5s15 11.5 23 11.5c10.667 0 16 -6 16 -18c0 -6.66699 -2 -16 -6 -28z" />
    <glyph glyph-name="one" unicode="1" horiz-adv-x="362" 
d="M310 565l-179 -563c-1.33301 -4.66699 0.333984 -7 5.00098 -7h121c2 0 3.66699 1.33301 5 4l210 696c1.33301 4 -0.333984 6 -5.00098 6h-114c-2 0 -3.66699 -1.33301 -5 -4l-38 -133v1z" />
    <glyph glyph-name="two" unicode="2" horiz-adv-x="362" 
d="M27 -5l272.998 -0.000976562c3.33301 0 5 1.66699 5 5c0 13.333 1.5 26.166 4.5 38.499s6.16699 23.833 9.5 34.5v-1c2.66699 7.33301 4.83398 14.333 6.50098 21s2.5 13 2.5 19c0 8.66699 -3.66699 16 -11 22h-111c22.667 30 44.5 56.833 65.5 80.5l61.5 67.5l51 56.5
c16 18.333 30.833 37 44.5 56s26 39.333 37 61s20.5 45.834 28.5 72.501c6 20 10.667 37.833 14 53.5s5 30.167 5 43.5c0 31.333 -9.5 53.5 -28.5 66.5s-50.167 19.5 -93.5 19.5c-30 0 -56.167 -3.66699 -78.5 -11s-41.5 -18.166 -57.5 -32.499s-29.667 -32.166 -41 -53.499
s-21 -46 -29 -74v1l-17 -52c-1.33301 -4.66699 0.333984 -7 5.00098 -7h120c2 0 3.66699 1 5 3l14 44c5.33301 18 11.166 30.333 17.499 37s14.5 10 24.5 10c6 0 10.5 -1 13.5 -3s4.5 -6 4.5 -12c0 -6.66699 -2.66699 -19.667 -8 -39
c-3.33301 -10.667 -9.5 -22.667 -18.5 -36s-19.833 -27.833 -32.5 -43.5s-26.667 -31.834 -42 -48.501l-47 -52l-54 -60c-18 -20 -34.667 -39.5 -50 -58.5s-28.5 -37.5 -39.5 -55.5s-18.833 -34.667 -23.5 -50l-35 -117c-1.33301 -4 0.333984 -6 5.00098 -6z" />
    <glyph glyph-name="three" unicode="3" horiz-adv-x="362" 
d="M212 120h-40.002c-2.66699 0 -4.33398 -1 -5.00098 -3l-39 -121c-1.33301 -4.66699 0 -7 4 -7c6.66699 -1.33301 13.834 -2.33301 21.501 -3s16.167 -1 25.5 -1c51.333 0 93.333 12 126 36s57.667 64 75 120l32 105c3.33301 11.333 5.83301 22.333 7.5 33
s2.5 20.667 2.5 30c0 15.333 -3 28.333 -9 39s-16 18 -30 22c28 6.66699 49.667 20.834 65 42.501s27.666 48.5 36.999 80.5v-1l19 60c7.33301 26 11 48.333 11 67c0 32.667 -10.333 56.167 -31 70.5s-51 21.5 -91 21.5c-51.333 0 -93.5 -12 -126.5 -36
s-57.833 -64 -74.5 -120l-21 -67c-1.33301 -4 0.333984 -6 5.00098 -6h115c2 0 3.66699 1.33301 5 4l16 51c4 15.333 9.5 25.833 16.5 31.5s15.167 8.5 24.5 8.5c13.333 0 20 -5.66699 20 -17c0 -2.66699 -0.333008 -5.66699 -1 -9s-1.66699 -7.33301 -3 -12l-19 -63
c-4.66699 -15.333 -10.5 -25.833 -17.5 -31.5s-15.167 -8.5 -24.5 -8.5h-56c-2 0 -3.66699 -1.33301 -5 -4l-39 -128c-1.33301 -4 0.333984 -6 5.00098 -6h56c12 0 18 -5.66699 18 -17c0 -4.66699 -0.5 -10.334 -1.5 -17.001s-3.16699 -14.667 -6.5 -24l-18 -61v1
c-7.33301 -24 -14.666 -40 -21.999 -48s-16.333 -12 -27 -12z" />
    <glyph glyph-name="four" unicode="4" horiz-adv-x="362" 
d="M93 294l-39.001 -127c-1.33301 -4 0.333984 -6 5.00098 -6h169c2 0 3.66699 1 5 3l39 120l-35 -117l-49 -166c-1.33301 -4 0.333984 -6 5.00098 -6h116c2 0 3.66699 1.33301 5 4l48 162h39c2 0 3.66699 1.33301 5 4l39 126c1.33301 4 -0.333984 6 -5.00098 6h-36l120 398
c1.33301 4 -0.333984 6 -5.00098 6h-165c-1.33301 0 -2.66602 -0.666992 -3.99902 -2zM267.999 293h-59l134 226l-70 -232c0 4 -1.66699 6 -5 6z" />
    <glyph glyph-name="five" unicode="5" horiz-adv-x="362" 
d="M188 193h-97.999c-2.66699 0 -4.33398 -1 -5.00098 -3l-17 -48c-5.33301 -13.333 -9 -26 -11 -38s-3 -23 -3 -33c0 -31.333 10.667 -54.166 32 -68.499s51.666 -21.5 90.999 -21.5c51.333 0 93.5 12.167 126.5 36.5s58.5 64.5 76.5 120.5l66 224v-1
c3.33301 9.33301 5.5 18.333 6.5 27s1.5 17 1.5 25c0 26 -6.83301 46.167 -20.5 60.5s-31.167 21.5 -52.5 21.5c-11.333 0 -25 -1.83301 -41 -5.5s-29.667 -11.167 -41 -22.5l29 94h153c2 0 3.66699 1 5 3l19 54v45c-0.666992 1.33301 -1.16699 2.83301 -1.5 4.5
s-0.833008 3.16699 -1.5 4.5l1 -1c-1.33301 5.33301 -4.16602 11.166 -8.49902 17.499s-13.166 10.5 -26.499 12.5h-215c-2 0 -3.66699 -1.33301 -5 -4l-116 -380c-1.33301 -4 0.333984 -6 5.00098 -6h102c0.666992 0 2 1 4 3l6 11c7.33301 28.667 20.666 43 39.999 43
c12 0 18 -6.66699 18 -20c0 -8 -2.66699 -22 -8 -42l-38 -125c-7.33301 -25.333 -14.833 -42.333 -22.5 -51s-16.5 -13 -26.5 -13h-18c-5.33301 0 -9.83301 0.666992 -13.5 2s-5.5 5 -5.5 11c0 4.66699 2 12.667 6 24l12 32c1.33301 4.66699 -0.333984 7 -5.00098 7z" />
    <glyph glyph-name="six" unicode="6" horiz-adv-x="362" 
d="M290 280l-37.999 -128.001c-3.33301 -12 -8.66602 -20.333 -15.999 -25s-15 -7 -23 -7c-10.667 0 -16 4.33301 -16 13c0 4 1 9.66699 3 17l35.5 120l29 97.5l26 84.5l25.5 82c8.66699 28.667 22 43 40 43c11.333 0 17 -5.33301 17 -16
c0 -5.33301 -1.66699 -13.666 -5 -24.999l-14 -46c-1.33301 -4 0.333984 -6 5.00098 -6h121c2 0 3.66699 1.33301 5 4l19 63c8 26 12 49.333 12 70c0 30 -9.5 52.5 -28.5 67.5s-50.5 22.5 -94.5 22.5c-28.667 0 -54 -3.5 -76 -10.5s-41.167 -17.5 -57.5 -31.5
s-30.5 -32 -42.5 -54s-22.667 -48 -32 -78l-120 -398c-6.66699 -22 -10 -42.667 -10 -62c0 -61.333 41.333 -92 124 -92c53.333 0 96.166 12.167 128.499 36.5s56.166 62.833 71.499 115.5l48 160v-1c3.33301 10.667 5.83301 21 7.5 31s2.5 19.667 2.5 29
c0 25.333 -7.16699 45.5 -21.5 60.5s-36.166 22.5 -65.499 22.5c-6.66699 0 -15.834 -1.16699 -27.501 -3.5s-23.5 -7.83301 -35.5 -16.5l-33 -104c-1.33301 -5.33301 0.666992 -7.33301 6 -6s9.66602 2 12.999 2c5.33301 0 10 -1.16699 14 -3.5s6 -6.5 6 -12.5
c0 -4 -1 -9 -3 -15z" />
    <glyph glyph-name="seven" unicode="7" horiz-adv-x="362" 
d="M350 561l-297.999 -559c-2.66699 -4.66699 -1.33398 -7 3.99902 -7h128c0.666992 0 2 1 4 3l310 583l34 114c1.33301 4 -0.333984 6 -5.00098 6h-272c-2 0 -3.66699 -1.33301 -5 -4l-40 -130c-1.33301 -4 0.333984 -6 5.00098 -6h135z" />
    <glyph glyph-name="eight" unicode="8" horiz-adv-x="362" 
d="M92 241l-31 -102c-7.33301 -26 -11 -47.667 -11 -65c0 -33.333 11 -56.5 33 -69.5s54 -19.5 96 -19.5c26.667 0 50.834 2.66699 72.501 8s40.834 14 57.501 26s31.167 27.667 43.5 47s22.5 43 30.5 71l31 100v-1c4.66699 14 8 27.167 10 39.5s3 23.5 3 33.5
c0 28 -10.667 47.667 -32 59l-98 4c-2 0 -3.66699 -1.33301 -5 -4l-16 -51c-1.33301 -4 0 -6 4 -6c11.333 -2 17 -7.66699 17 -17c0 -2.66699 -0.666992 -6 -2 -10l-39 -132c-6.66699 -21.333 -20.334 -32 -41.001 -32c-14 0 -21 5.66699 -21 17c0 4 0.333008 7 1 9l39 132
v-1c6 20.667 18 32 36 34c2.66699 0 4 1.33301 4 4l16 51c1.33301 4 -0.333984 6 -5.00098 6l-72 3h-2c-28 -3.33301 -51.5 -15.5 -70.5 -36.5s-35.167 -53.5 -48.5 -97.5zM298 489l9.99902 31.998c6 20.667 13 35.167 21 43.5s17 12.5 27 12.5c12 0 18 -6.66699 18 -20
c0 -8 -2 -19.333 -6 -34l-10 -32c-5.33301 -18 -11.333 -31.167 -18 -39.5s-14.334 -13.5 -23.001 -15.5c-2.66699 0 -4 -1 -4 -3l-17 -52c-1.33301 -4.66699 0.333984 -7 5.00098 -7l79 -3c32 8.66699 55.333 24.834 70 48.501s27.334 52.5 38.001 86.5l19 62
c2.66699 9.33301 4.66699 17.833 6 25.5s2 15.5 2 23.5c0 30 -10.167 53.167 -30.5 69.5s-50.833 24.5 -91.5 24.5c-50.667 0 -92.667 -12.5 -126 -37.5s-56.666 -59.5 -69.999 -103.5l-19 -62c-4 -14 -7.33301 -27 -10 -39s-4 -23.667 -4 -35
c0 -25.333 8.66699 -43.666 26 -54.999l99 -4c2 0 3.66699 1 5 3l17 50c1.33301 4.66699 -0.333984 7 -5.00098 7c-10 0.666992 -15 6.66699 -15 18c0 4 0.666992 9 2 15s3 13 5 21z" />
    <glyph glyph-name="nine" unicode="9" horiz-adv-x="362" 
d="M283 254l-26.9961 -92.001v1c-8.66699 -28.667 -22.334 -43 -41.001 -43c-10.667 0 -16 5 -16 15c0 4.66699 1.66699 13 5 25l13 47c1.33301 4 -0.333984 6 -5.00098 6h-121c-2 0 -3.66699 -1.33301 -5 -4l-19 -64c-8 -26 -12 -49 -12 -69c0 -30 9.66699 -52.667 29 -68
s51 -23 95 -23c57.333 0 101.666 14.167 132.999 42.5s56 72.166 74 131.499l120 398c6.66699 22.667 10 43.667 10 63c0 60.667 -41 91 -123 91c-53.333 0 -96.333 -12 -129 -36s-56.667 -62.667 -72 -116l-48 -159v1c-3.33301 -10.667 -5.83301 -21 -7.5 -31
s-2.5 -19.667 -2.5 -29c0 -26 7.16699 -46.5 21.5 -61.5s36.166 -22.5 65.499 -22.5c7.33301 0 17.666 1.33301 30.999 4s26.333 9.33398 39 20.001l-4 -12.5c-1.33301 -4.33301 -2.66602 -9.16602 -3.99902 -14.499zM281.004 415.999l38 128c6 22 18.333 33 37 33
c12 0 18 -4.66699 18 -14c0 -4.66699 -1 -10.334 -3 -17.001l-18.5 -63.5c-5 -17 -9.83301 -32.5 -14.5 -46.5l-7.5 -23c-2.33301 -7.33301 -4.5 -14.666 -6.5 -21.999c-2.66699 2.66699 -5 3 -7 1c-5.33301 -4 -12.333 -6 -21 -6c-12 0 -18 4.33301 -18 13
c0 4 1 9.66699 3 17z" />
    <glyph glyph-name="colon" unicode=":" horiz-adv-x="181" 
d="M293 494h-110c-2 0 -3.66699 -1.33301 -5 -4l-40 -130c-1.33301 -4 0.333984 -6 5.00098 -6h110c2 0 3.66699 1.33301 5 4l40 130c1.33301 4 -0.333984 6 -5.00098 6zM185 135h-110c-2 0 -3.66699 -1.33301 -5 -4l-39 -130c-1.33301 -4 0.333984 -6 5.00098 -6h110
c2 0 3.66699 1.33301 5 4l39 130c1.33301 4 -0.333984 6 -5.00098 6z" />
    <glyph glyph-name="semicolon" unicode=";" horiz-adv-x="181" 
d="M185 135h-109.998c-2 0 -3.66699 -1.33301 -5 -4l-39 -130c-1.33301 -4 0.333984 -6 5.00098 -6h32l-84 -122c-2.66699 -5.33301 -1.33398 -8 3.99902 -8h62c1.33301 0 2.66602 0.666992 3.99902 2l97 131l39 131c1.33301 4 -0.333984 6 -5.00098 6zM293.002 495h-110
c-2 0 -3.66699 -1.33301 -5 -4l-38 -130c-1.33301 -4 0.333984 -6 5.00098 -6h110c2 0 3.66699 1.33301 5 4l38 130c1.33301 4 -0.333984 6 -5.00098 6z" />
    <glyph glyph-name="less" unicode="&#x3c;" horiz-adv-x="510" 
d="M249 257l349.999 148.999c2 0 3 1.33301 3 4l33 108c0.666992 2 0.166992 3.83301 -1.5 5.5s-3.5 1.83398 -5.5 0.500977l-503 -216c-2 0 -3 -1.33301 -3 -4l-27 -90c-1.33301 -2 -0.666016 -3.66699 2.00098 -5l373 -216c4 -2.66699 6.66699 -1.66699 8 3l32 108
c0.666992 2 -0.333008 3.66699 -3 5z" />
    <glyph glyph-name="equal" unicode="=" horiz-adv-x="510" 
d="M573 311l34 112c1.33301 4 -0.333984 6 -5.00098 6h-438c-2 0 -3.66699 -1.33301 -5 -4l-34 -112c-1.33301 -4 0.333984 -6 5.00098 -6h438c2 0 3.66699 1.33301 5 4zM507 91l33 112c1.33301 4 -0.333984 6 -5.00098 6h-438c-2 0 -3.66699 -1.33301 -5 -4l-33 -112
c-1.33301 -4 0.333984 -6 5.00098 -6h438c2 0 3.66699 1.33301 5 4z" />
    <glyph glyph-name="greater" unicode="&#x3e;" horiz-adv-x="510" 
d="M414 259l-348.999 -148.999c-2 0 -3 -1.33301 -3 -4l-32 -108c-0.666992 -2 -0.166992 -3.83301 1.5 -5.5s3.5 -1.83398 5.5 -0.500977l503 216c2 0 3 1.33301 3 4l27 90c1.33301 2 0.666016 3.66699 -2.00098 5l-373 216c-4 2.66699 -6.66699 1.66699 -8 -3l-33 -108
c-0.666992 -2 0.333008 -3.66699 3 -5z" />
    <glyph glyph-name="question" unicode="?" horiz-adv-x="346" 
d="M171 211h110.999c2 0 3.66699 1.33301 5 4l17 56c8 26.667 18.833 47.5 32.5 62.5s28.167 29.167 43.5 42.5c1.33301 1.33301 3 2.66602 5 3.99902s3.66699 2.66602 5 3.99902h-1c8.66699 8 17.5 17 26.5 27s18 21.5 27 34.5s17.667 28.167 26 45.5s16.166 38 23.499 62
c8.66699 28.667 13 55 13 79c0 67.333 -37.667 101 -113 101c-25.333 0 -48.166 -3 -68.499 -9s-38.833 -15.667 -55.5 -29s-31.334 -31.166 -44.001 -53.499s-23.667 -49.5 -33 -81.5v1l-19 -60c-1.33301 -4.66699 0.333984 -7 5.00098 -7h111c2 0 3.66699 1.33301 5 4
l13 45v-1c8 26 16 44 24 54s16 15 24 15c8.66699 0 13 -6.33301 13 -19c0 -11.333 -3.33301 -27 -10 -47c-7.33301 -24.667 -18 -45.667 -32 -63s-29.333 -33.666 -46 -48.999c-17.333 -16 -33.5 -32.833 -48.5 -50.5s-26.833 -39.5 -35.5 -65.5l-29 -100
c-1.33301 -4 0.333984 -6 5.00098 -6zM255.999 135h-111c-2 0 -3.66699 -1.33301 -5 -4l-39 -130c-1.33301 -4 0.333984 -6 5.00098 -6h111c2 0 3.66699 1.33301 5 4l39 130c1.33301 4 -0.333984 6 -5.00098 6z" />
    <glyph glyph-name="at" unicode="@" horiz-adv-x="680" 
d="M477 134c13.333 0 33.666 4.66699 60.999 14s56.333 25.333 87 48s60.334 52.5 89.001 89.5s51.667 83.5 69 139.5c5.33301 16.667 9 32.667 11 48s3 30.666 3 45.999c0 33.333 -5.66699 63.166 -17 89.499s-27 48.833 -47 67.5s-43.667 32.834 -71 42.501
s-56.666 14.5 -87.999 14.5c-44.667 0 -89.667 -9.66699 -135 -29s-87.833 -45.833 -127.5 -79.5s-75.167 -73.334 -106.5 -119.001s-55 -95.167 -71 -148.5c-12.667 -42.667 -19 -84 -19 -124c0 -38 5.66699 -72.5 17 -103.5s27.5 -57.5 48.5 -79.5s46.333 -39 76 -51
s62.834 -18 99.501 -18c52.667 0 105 13.5 157 40.5s100.667 65.5 146 115.5c1.33301 1.33301 1.66602 3 0.999023 5s-2.33398 3 -5.00098 3h-80c-28 -21.333 -58.333 -38.666 -91 -51.999s-65.334 -20 -98.001 -20c-54 0 -96.333 15.5 -127 46.5s-46 73.5 -46 127.5
c0 32 6 68 18 108c12 40.667 28.667 78.334 50 113.001s45.833 64.667 73.5 90s57.834 45.166 90.501 59.499s66.667 21.5 102 21.5c49.333 0 88.333 -12.5 117 -37.5s43 -61.833 43 -110.5c0 -26.667 -5 -57.334 -15 -92.001c-8 -26 -17.333 -48.833 -28 -68.5
s-22 -36.167 -34 -49.5s-23.833 -23.333 -35.5 -30s-22.167 -10 -31.5 -10c-2 0 -3 1 -3 3c0 1.33301 1 5 3 11c3.33301 12 6.33301 20.667 9 26c1.33301 3.33301 2.83301 6.33301 4.5 9s2.16699 3.33398 1.5 2.00098l117 244c2 4.66699 0.333008 7 -5 7h-72
c-0.666992 0 -2 -1 -4 -3l-175 -354c-1.33301 -6.66699 -2 -11 -2 -13c0 -13.333 3.83301 -23.166 11.5 -29.499s17.167 -9.5 28.5 -9.5zM385 254c-13.333 0 -23.499 4.00195 -30.499 12.002s-10.5 18.667 -10.5 32c0 9.33301 2 20.666 6 33.999c4 14 10.333 27.667 19 41
s18.834 25.166 30.501 35.499s24 18.833 37 25.5s25.833 10 38.5 10c13.333 0 23.166 -3.66699 29.499 -11s9.5 -17.666 9.5 -30.999c0 -6 -0.333008 -10.667 -1 -14c-0.666992 -2.66699 0.333008 -4.5 3 -5.5s4.66699 -0.166992 6 2.5l56 113
c-6.66699 21.333 -17.334 36.833 -32.001 46.5s-32.667 14.5 -54 14.5c-27.333 0 -54 -6.83301 -80 -20.5s-50.167 -31.667 -72.5 -54s-42.166 -47.833 -59.499 -76.5s-30.333 -58.334 -39 -89.001c-6 -20 -9 -40 -9 -60c0 -35.333 9.16699 -64.333 27.5 -87
s42.5 -34 72.5 -34c13.333 0 27.666 3.83301 42.999 11.5s30.333 17.167 45 28.5l58 118c1.33301 2.66699 0.833008 4.66699 -1.5 6s-4.5 1 -6.5 -1c-12 -14 -25.333 -25.333 -40 -34s-29.667 -13 -45 -13z" />
    <glyph glyph-name="A" unicode="A" 
d="M3 -5h129.999c2 0 3.66699 1 5 3l49 123h76l-22 -120c-1.33301 -4 0.333984 -6 5.00098 -6h128c3.33301 0 5 1.33301 5 4l112 714c0 4 -1.66699 6 -5 6h-165c-1.33301 0 -3 -1 -5 -3l-318 -714c-1.33301 -2 -1.33301 -3.66699 0 -5s3 -2 5 -2zM290.999 261h-48l108 275z
" />
    <glyph glyph-name="B" unicode="B" 
d="M157 440l-125.003 -439.006c-1.33301 -4 0.333984 -6 5.00098 -6h185c50 0 89.333 12.5 118 37.5s50.667 62.5 66 112.5l33 107c3.33301 11.333 5.83301 21.5 7.5 30.5s2.5 17.833 2.5 26.5c0 34 -14.333 56 -43 66c30 12.667 53.167 30.834 69.5 54.501
s28.166 48.834 35.499 75.501l19 62c3.33301 12.667 6 24.334 8 35.001s3 21 3 31c0 28.667 -8.66699 50.167 -26 64.5s-44.666 21.5 -81.999 21.5h-181c-2 0 -3.66699 -1.33301 -5 -4l-39 -128c-1.33301 -4 0.333984 -6 5.00098 -6h82c20 0 34.833 -0.166992 44.5 -0.5
s15.834 -0.666016 18.501 -0.999023s4.66699 -0.5 6 -0.5h4c7.33301 0 12.5 -1.16699 15.5 -3.5s4.5 -7.16602 4.5 -14.499v-9c0 -2.66699 -0.666992 -6 -2 -10c0 -1.33301 0.166992 -2.66602 0.5 -3.99902s0.5 -2.66602 0.5 -3.99902c0 -7.33301 -3.33301 -15 -10 -23
c-4 -14.667 -7.83301 -26.334 -11.5 -35.001s-7.5 -15.5 -11.5 -20.5s-8.33301 -8.33301 -13 -10s-10 -2.5 -16 -2.5l-163 1c-2 0 -3.66699 -1.33301 -5 -4zM256.997 302.994h25.0029c9.33301 0 16.166 -1 20.499 -3s6.5 -6.66699 6.5 -14c0 -6 -1.16699 -14.333 -3.5 -25
s-5.83301 -24.334 -10.5 -41.001v1c-6 -19.333 -11.333 -34.666 -16 -45.999s-9.33398 -20 -14.001 -26s-9.83398 -9.83301 -15.501 -11.5s-12.5 -2.5 -20.5 -2.5h-22z" />
    <glyph glyph-name="C" unicode="C" horiz-adv-x="362" 
d="M193 561l-122.001 -405.999c-10 -32 -15 -59.333 -15 -82c0 -32 10 -55.333 30 -70s51.667 -22 95 -22h12c2 0 4 0.166992 6 0.5s4 0.5 6 0.5s3.66699 1.33301 5 4l37 135c0.666992 2.66699 0.166992 4.5 -1.5 5.5s-3.5 0.833008 -5.5 -0.5
c-6.66699 -3.33301 -13.334 -5 -20.001 -5c-12 0 -18 5.33301 -18 16c0 5.33301 1.66699 14.666 5 27.999l115 382c5.33301 18 11.5 30.167 18.5 36.5s15.167 9.5 24.5 9.5c5.33301 0 10 -1.5 14 -4.5s6 -7.16699 6 -12.5c0 -0.666992 -0.666992 -3.66699 -2 -9l-31 -107
c-1.33301 -4 0.333984 -6 5.00098 -6h124c2 0 3.66699 1.33301 5 4l30 101c9.33301 32 14 58.667 14 80c0 32.667 -10.167 56.5 -30.5 71.5s-52.166 22.5 -95.499 22.5c-57.333 0 -102.5 -13.5 -135.5 -40.5s-58.167 -70.833 -75.5 -131.5z" />
    <glyph glyph-name="D" unicode="D" 
d="M215 580l142.998 -0.999023c18 0 27 -6.33301 27 -19c0 -4.66699 -0.333008 -8.33398 -1 -11.001c-1.33301 -11.333 -4.16602 -24.833 -8.49902 -40.5s-11.166 -37.5 -20.499 -65.5l-31 -98.5c-12.667 -39.667 -27.667 -90.167 -45 -151.5v1
c-6.66699 -19.333 -12.834 -33.333 -18.501 -42s-12.5 -14 -20.5 -16c-2.66699 0 -4 -1 -4 -3l-51 -131c-1.33301 -4.66699 0.333984 -7 5.00098 -7c28 0 53 2.5 75 7.5s41.667 14 59 27s32.666 30.667 45.999 53s25.333 50.5 36 84.5l113 378
c5.33301 17.333 9.33301 33 12 47s4 26.667 4 38c0 34.667 -11.167 58.167 -33.5 70.5s-54.5 18.5 -96.5 18.5h-153c-2 0 -3.66699 -1.33301 -5 -4l-37 -129c-1.33301 -4 0.333984 -6 5.00098 -6z" />
    <glyph glyph-name="E" unicode="E" horiz-adv-x="314" 
d="M247 715l-214.998 -714c-1.33301 -4 0.333984 -6 5.00098 -6h255c2 0 3.66699 1.33301 5 4l39 130c1.33301 4 -0.333984 6 -5.00098 6h-124l50 168h121c2 0 3.66699 1.33301 5 4l40 130c1.33301 4 -0.333984 6 -5.00098 6h-118l40 136h127c2 0 3.66699 1.33301 5 4
l40 130c1.33301 4 -0.333984 6 -5.00098 6h-255c-2 0 -3.66699 -1.33301 -5 -4z" />
    <glyph glyph-name="F" unicode="F" horiz-adv-x="314" 
d="M247 715l-214.999 -714c-1.33301 -4 0.333984 -6 5.00098 -6h124c2 0 3.66699 1.33301 5 4l91 304h121c2 0 3.66699 1.33301 5 4l40 130c1.33301 4 -0.333984 6 -5.00098 6h-118l40 136h127c2 0 3.66699 1.33301 5 4l40 130c1.33301 4 -0.333984 6 -5.00098 6h-255
c-2 0 -3.66699 -1.33301 -5 -4z" />
    <glyph glyph-name="G" unicode="G" horiz-adv-x="383" 
d="M361 28l115.999 385c1.33301 4 -0.333984 6 -5.00098 6h-119c-2.66699 0 -4.33398 -1 -5.00098 -3l-82 -259c-4.66699 -13.333 -10 -22.666 -16 -27.999s-14.667 -8 -26 -8c-15.333 0 -23 5 -23 15c0 1.33301 0.333008 3.66602 1 6.99902s1.66699 7 3 11l122 404
c5.33301 23.333 19.333 35 42 35c11.333 0 18 -3 20 -9c1.33301 -2.66699 3 -4 5 -4s3.66699 1.33301 5 4l48 140c1.33301 4.66699 -0.333984 7 -5.00098 7c-5.33301 0.666992 -11.166 1.16699 -17.499 1.5s-13.166 0.5 -20.499 0.5c-57.333 0 -102.5 -13.5 -135.5 -40.5
s-58.167 -70.833 -75.5 -131.5l-131 -433c-4 -14 -6 -26 -6 -36c0 -17.333 3.83301 -32 11.5 -44s17.834 -21.833 30.501 -29.5s27 -13.167 43 -16.5s32 -5 48 -5h18c12 0 24.5 0.166992 37.5 0.5s26 1.5 39 3.5s25.333 5.16699 37 9.5s21.834 10.5 30.501 18.5
c0 -2 1.33301 -3.33301 4 -4s4.66699 0.333008 6 3z" />
    <glyph glyph-name="H" unicode="H" horiz-adv-x="394" 
d="M247 715l-215 -714c-1.33301 -4 0.333984 -6 5.00098 -6h124c2 0 3.66699 1.33301 5 4l91 304h61l-90 -302c-1.33301 -4 0.333984 -6 5.00098 -6h124c2 0 3.66699 1.33301 5 4l215 714c1.33301 4 -0.333984 6 -5.00098 6h-124c-2 0 -3.66699 -1.33301 -5 -4l-82 -272h-61
l81 270c1.33301 4 -0.333984 6 -5.00098 6h-124c-2 0 -3.66699 -1.33301 -5 -4z" />
    <glyph glyph-name="I" unicode="I" horiz-adv-x="205" 
d="M41 -5h124c2 0 3.66699 1.33301 5 4l215 714c1.33301 4 -0.333984 6 -5.00098 6h-124c-2 0 -3.66699 -1.33301 -5 -4l-215 -714c-1.33301 -4 0.333984 -6 5.00098 -6z" />
    <glyph glyph-name="J" unicode="J" horiz-adv-x="346" 
d="M193 230l-120.997 -0.000976562c-2 0 -3.66699 -1.33301 -5 -4l-21 -71c-5.33301 -17.333 -9.33301 -33.166 -12 -47.499s-4 -27.166 -4 -38.499c0 -34 10.667 -57.167 32 -69.5s53 -18.5 95 -18.5c27.333 0 51.666 2.66699 72.999 8s40.333 14.5 57 27.5
s31.5 30.667 44.5 53s24.5 50.166 34.5 83.499l168 560c1.33301 4 -0.333984 6 -5.00098 6h-124c-2 0 -3.66699 -1.33301 -5 -4l-167 -554c-4.66699 -14.667 -10 -25 -16 -31s-14.333 -9 -25 -9c-12.667 0 -19 4.66699 -19 14c0 4.66699 1.66699 12.667 5 24l20 65
c1.33301 4 -0.333984 6 -5.00098 6z" />
    <glyph glyph-name="K" unicode="K" horiz-adv-x="394" 
d="M272 354h127.999c0.666992 0 2 1 4 3l204 355c2 4.66699 0.666992 7 -4 7h-131c-1.33301 0 -2.66602 -0.666992 -3.99902 -2l-178 -303l90 299c1.33301 4 -0.333984 6 -5.00098 6h-124c-2 0 -3.66699 -1.33301 -5 -4l-215 -714c-1.33301 -4 0.333984 -6 5.00098 -6h124
c2 0 3.66699 1.33301 5 4z" />
    <glyph glyph-name="L" unicode="L" horiz-adv-x="299" 
d="M37 -5h255.001c2 0 3.66699 1.33301 5 4l39 130c1.33301 4 -0.333984 6 -5.00098 6h-124l174 578c1.33301 4 -0.333984 6 -5.00098 6h-124c-2 0 -3.66699 -1.33301 -5 -4l-215 -714c-1.33301 -4 0.333984 -6 5.00098 -6z" />
    <glyph glyph-name="M" unicode="M" horiz-adv-x="582" 
d="M350 195l101 518c1.33301 4 -0.333984 6 -5.00098 6h-197c-2 0 -3.66699 -1.33301 -5 -4l-215 -714c-1.33301 -4 0.333984 -6 5.00098 -6h117c2 0 3.66699 1.33301 5 4l164 543l-96 -541c-1.33301 -4 0.333984 -6 5.00098 -6h124c2 0 3.66699 1 5 3l229 538l-161 -535
c-1.33301 -4 0.333984 -6 5.00098 -6h117c2 0 3.66699 1.33301 5 4l215 714c1.33301 4 -0.333984 6 -5.00098 6h-197c-2.66699 0 -4.33398 -1 -5.00098 -3z" />
    <glyph glyph-name="N" unicode="N" horiz-adv-x="456" 
d="M372 251l43 463c0 3.33301 -1.66699 5 -5 5h-158c-2 0 -3.66699 -1.33301 -5 -4l-215 -714c-1.33301 -4 0.333984 -6 5.00098 -6h118c2 0 3.66699 1.33301 5 4l137 456l-39 -455c0 -3.33301 1.66699 -5 5 -5h156c2 0 3.66699 1.33301 5 4l215 714
c1.33301 4 -0.333984 6 -5.00098 6h-117c-2 0 -3.66699 -1.33301 -5 -4z" />
    <glyph glyph-name="O" unicode="O" 
d="M193 561l-122 -406c-5.33301 -17.333 -9.33301 -33 -12 -47s-4 -26.667 -4 -38c0 -34.667 11.167 -58.167 33.5 -70.5s54.5 -18.5 96.5 -18.5c27.333 0 52 2.5 74 7.5s41.667 14 59 27s32.666 30.667 45.999 53s25.333 50.5 36 84.5l122 406c10 34 15 62.333 15 85
c0 34.667 -11 58.167 -33 70.5s-54 18.5 -96 18.5c-28 0 -52.833 -2.5 -74.5 -7.5s-41.167 -14 -58.5 -27s-32.666 -30.667 -45.999 -53s-25.333 -50.5 -36 -84.5zM205 154l122 404.001c5.33301 23.333 19.333 35 42 35c14.667 0 22 -5.33301 22 -16
c0 -4.66699 -1 -10.334 -3 -17.001l-122 -404v1c-4.66699 -13.333 -10 -22.666 -16 -27.999s-14.667 -8 -26 -8c-15.333 0 -23 5 -23 15c0 1.33301 0.333008 3.66602 1 6.99902s1.66699 7 3 11z" />
    <glyph glyph-name="P" unicode="P" horiz-adv-x="362" 
d="M238 247l44 144.001l2 2l56 186h28c6.66699 0 11.667 -0.666992 15 -2s5 -5.33301 5 -12c0 -7.33301 -1.66699 -18 -5 -32s-8.66602 -32.667 -15.999 -56c-5.33301 -18.667 -10.333 -33.834 -15 -45.501s-9.16699 -20.834 -13.5 -27.501s-9 -11.167 -14 -13.5
s-10.5 -3.5 -16.5 -3.5h-4c-2.66699 0 -4.33398 -1 -5.00098 -3l-44 -130c-1.33301 -4.66699 0.333984 -7 5.00098 -7h6c31.333 0 58.166 2.66699 80.499 8s41.666 14.333 57.999 27s30.333 29.667 42 51s22.5 48.333 32.5 81l41 136c10.667 34 16 63 16 87
c0 31.333 -10.333 52.833 -31 64.5s-54 17.5 -100 17.5h-153c-2 0 -3.66699 -1.33301 -5 -4l-215 -714c-1.33301 -4 0.333984 -6 5.00098 -6h124c2 0 3.66699 1.33301 5 4l71 237c0 2.66699 -0.333008 4.33398 -1 5.00098c0 1.33301 0.666992 3.33301 2 6z" />
    <glyph glyph-name="Q" unicode="Q" 
d="M205 154l122.002 404.001c4.66699 22 17.334 33.667 38.001 35c2 0 3.66699 1 5 3l42 130c1.33301 4.66699 -0.333984 7 -5.00098 7c-28 0 -53 -2.66699 -75 -8s-41.5 -14.5 -58.5 -27.5s-32 -30.5 -45 -52.5s-24.833 -50 -35.5 -84l-122 -406
c-5.33301 -17.333 -9.33301 -33 -12 -47s-4 -26.667 -4 -38c0 -25.333 6.33301 -44.5 19 -57.5s31.667 -21.5 57 -25.5l-16 -56c-8 -26 -12 -46.667 -12 -62c0 -21.333 6.33301 -35.666 19 -42.999s30.667 -11 54 -11h84c2 0 3.66699 1.33301 5 4l34 112
c1.33301 4 -0.333984 6 -5.00098 6h-47c-11.333 0 -17 6 -17 18c0 2 0.666992 6.33301 2 13v-1l6 19c19.333 2.66699 37.166 7.5 53.499 14.5s31 17 44 30s24.833 29.5 35.5 49.5s20.334 44.333 29.001 73l122 406c10 34 15 62 15 84c0 34 -10.167 57.167 -30.5 69.5
s-49.5 19.166 -87.5 20.499c-2 0 -3.66699 -1.33301 -5 -4l-37 -128c-0.666992 -2.66699 0.666016 -4.66699 3.99902 -6l3 -1.5c0.666992 -0.333008 1 -2.16602 1 -5.49902c0 -6.66699 -1.83301 -18.334 -5.5 -35.001s-10 -41.334 -19 -74.001l-36.5 -127.5l-58 -195.5v1
c-4.66699 -13.333 -10 -22.666 -16 -27.999s-14.667 -8 -26 -8c-15.333 0 -23 5 -23 15c0 1.33301 0.333008 3.66602 1 6.99902s1.66699 7 3 11z" />
    <glyph glyph-name="R" unicode="R" 
d="M318 579l26.9951 0.000976562c14 0 21 -6 21 -18c0 -10 -3 -26.333 -9 -49c-8 -29.333 -15.5 -48.166 -22.5 -56.499s-16.167 -12.5 -27.5 -12.5c-3.33301 0 -5 -1.33301 -5 -4l-28 -130c-1.33301 -4 0 -6 4 -6c14 -1.33301 21 -7.66602 21 -18.999
c0 -4.66699 -0.333008 -8.33398 -1 -11.001l-62 -243l1 1c-1.33301 -3.33301 -2.16602 -6 -2.49902 -8s-0.5 -4.33301 -0.5 -7v-10c0 -2.66699 0.666992 -5.33398 2 -8.00098c0.666992 -2 2.33398 -3 5.00098 -3h124c4.66699 0 6.33398 2.33301 5.00098 7
c-1.33301 4 -2 7 -2 9c0 5.33301 1 12.833 3 22.5s5.66699 24.167 11 43.5l40 155c8 30 12 54.667 12 74c0 35.333 -12.667 58 -38 68c12.667 4 24 10 34 18s18.5 17 25.5 27s12.833 20.5 17.5 31.5s8.33398 21.5 11.001 31.5l22 85c3.33301 12 5.83301 23.167 7.5 33.5
s2.5 20.166 2.5 29.499c0 34 -11.333 57.333 -34 70s-56 19 -100 19h-159c-2 0 -3.66699 -1.33301 -5 -4l-186 -714c-1.33301 -4 0.333984 -6 5.00098 -6h124c2 0 3.66699 1.33301 5 4z" />
    <glyph glyph-name="S" unicode="S" horiz-adv-x="346" 
d="M359 494h121.001c2 0 3.66699 1.33301 5 4l17 56c10 32.667 15 60.334 15 83.001c0 34.667 -10.5 59.334 -31.5 74.001s-52.167 22 -93.5 22c-30 0 -56.5 -3.5 -79.5 -10.5s-43.167 -18 -60.5 -33s-32.333 -34.333 -45 -58s-24 -51.834 -34 -84.501
c-10.667 -36 -16 -67.667 -16 -95c0 -17.333 1.83301 -32.833 5.5 -46.5s8.33398 -26.334 14.001 -38.001s12.167 -22.334 19.5 -32.001s14.666 -18.834 21.999 -27.501c11.333 -14 21.666 -28 30.999 -42s14 -31 14 -51c0 -11.333 -2 -24.333 -6 -39
c-6 -19.333 -12.667 -33.333 -20 -42s-17 -13 -29 -13c-4 0 -7.33301 0.333008 -10 1c-2.66699 1.33301 -4.66699 0.333008 -6 -3l-46 -131c-1.33301 -4.66699 0.333984 -7 5.00098 -7h18c30.667 0 57.5 3.16699 80.5 9.5s43.167 17.333 60.5 33s32.5 36.167 45.5 61.5
s25.167 57 36.5 95c5.33301 18 9.16602 34.833 11.499 50.5s3.5 30.167 3.5 43.5c0 18 -2 34.333 -6 49s-9 28 -15 40s-12.667 22.833 -20 32.5s-14.666 18.834 -21.999 27.501c-11.333 13.333 -21.333 26.333 -30 39s-13 27.667 -13 45
c0 4.66699 0.333008 9.33398 1 14.001s2 10 4 16c5.33301 20 11.666 34.333 18.999 43s16.666 13 27.999 13c13.333 0 20 -7 20 -21c0 -7.33301 -2 -18 -6 -32v1l-13 -40c-1.33301 -4.66699 0.333984 -7 5.00098 -7z" />
    <glyph glyph-name="T" unicode="T" horiz-adv-x="314" 
d="M263 579l-173.001 -578c-1.33301 -4 0.333984 -6 5.00098 -6h124c2 0 3.66699 1.33301 5 4l174 580h88c2 0 3.66699 1.33301 5 4l40 130c1.33301 4 -0.333984 6 -5.00098 6h-308c-2 0 -3.66699 -1.33301 -5 -4l-40 -130c-1.33301 -4 0.333984 -6 5.00098 -6h85z" />
    <glyph glyph-name="U" unicode="U" 
d="M400 153l168.002 560c1.33301 4 -0.333984 6 -5.00098 6h-124c-2 0 -3.66699 -1.33301 -5 -4l-162 -538c-7.33301 -23.333 -14.333 -38.5 -21 -45.5s-15.667 -10.5 -27 -10.5c-7.33301 0 -12.666 1 -15.999 3s-5 6.33301 -5 13c0 7.33301 2.66699 20 8 38l162 538
c1.33301 4 -0.333984 6 -5.00098 6h-124c-2 0 -3.66699 -1.33301 -5 -4l-168 -560c-5.33301 -17.333 -9.33301 -33 -12 -47s-4 -26.667 -4 -38c0 -34.667 11.167 -58.167 33.5 -70.5s54.5 -18.5 96.5 -18.5c27.333 0 52 2.5 74 7.5s41.667 14 59 27s32.666 30.667 45.999 53
s25.333 50.5 36 84.5z" />
    <glyph glyph-name="V" unicode="V" 
d="M589 719h-126.998c-2.66699 0 -4.33398 -1 -5.00098 -3l-206 -511l101 508c1.33301 4 -0.333984 6 -5.00098 6h-129c-3.33301 0 -5 -1.33301 -5 -4l-112 -714c0 -4 1.66699 -6 5 -6h165c1.33301 0 3 1 5 3l318 714c2 4.66699 0.333008 7 -5 7z" />
    <glyph glyph-name="W" unicode="W" horiz-adv-x="614" 
d="M213 715l-120.998 -714c-1.33301 -4 0.333984 -6 5.00098 -6h156c2 0 3.66699 1 5 3l199 501l-102 -498c-1.33301 -4 0.333984 -6 5.00098 -6h157c2 0 3.66699 1 5 3l308 714c2 4.66699 0.333008 7 -5 7h-128c-2.66699 0 -4.33398 -1 -5.00098 -3l-197 -508l102 505
c1.33301 4 -0.333984 6 -5.00098 6h-140c-2.66699 0 -4.33398 -1 -5.00098 -3l-203 -511l108 508c1.33301 4 -0.333984 6 -5.00098 6h-129c-3.33301 0 -5 -1.33301 -5 -4z" />
    <glyph glyph-name="X" unicode="X" horiz-adv-x="409" 
d="M243 373l-243.997 -370c-2.66699 -5.33301 -1.33398 -8 3.99902 -8h132c1.33301 0 2.66602 0.666992 3.99902 2l127 205l3 -202c0 -3.33301 1.66699 -5 5 -5h131c3.33301 0 5 1.66699 5 5l-7 112.5l-5.5 89.5c-1.66699 26.667 -3.33398 51.167 -5.00098 73.5
s-3.16699 44.5 -4.5 66.5c-1.33301 22.667 -2.83301 46 -4.5 70l-5.5 79.5l-6.5 97.5c-2.33301 36 -4.83301 77.667 -7.5 125c0 3.33301 -1.66699 5 -5 5h-130c-3.33301 0 -5 -1.66699 -5 -5z" />
    <glyph glyph-name="Y" unicode="Y" horiz-adv-x="394" 
d="M339 473l13.998 241c0 3.33301 -1.66699 5 -5 5h-130c-3.33301 0 -5 -1.66699 -5 -5l-2 -441l-82 -272c-1.33301 -4 0.333984 -6 5.00098 -6h124c2 0 3.66699 1.33301 5 4l82 271l264 441c2.66699 5.33301 1.33398 8 -3.99902 8h-130c-0.666992 0 -2 -1 -4 -3z" />
    <glyph glyph-name="Z" unicode="Z" horiz-adv-x="331" 
d="M19 -5h303c2 0 3.66699 1.33301 5 4l39 130c1.33301 4 -0.333984 6 -5.00098 6h-160l287 447l40 131c1.33301 4 -0.333984 6 -5.00098 6h-285c-2 0 -3.66699 -1.33301 -5 -4l-40 -130c-1.33301 -4 0.333984 -6 5.00098 -6h135l-280 -447l-39 -131
c-1.33301 -4 0.333984 -6 5.00098 -6z" />
    <glyph glyph-name="bracketleft" unicode="[" horiz-adv-x="252" 
d="M48 -5h171.001c2 0 3.66699 1.33301 5 4l30 100c1.33301 4 -0.333984 6 -5.00098 6h-69l152 504h72c2 0 3.66699 1.33301 5 4l30 100c1.33301 4 -0.333984 6 -5.00098 6h-171c-2 0 -3.66699 -1.33301 -5 -4l-215 -714c-1.33301 -4 0.333984 -6 5.00098 -6z" />
    <glyph glyph-name="backslash" unicode="\" horiz-adv-x="476" 
d="M163 730c-4.66699 0 -6.33398 -2 -5.00098 -6l224 -738c1.33301 -2.66699 3 -4 5 -4h95c4.66699 0 6.33398 2 5.00098 6l-223 738c-1.33301 2.66699 -3 4 -5 4h-96z" />
    <glyph glyph-name="bracketright" unicode="]" horiz-adv-x="252" 
d="M32 -5h171.999c2 0 3.66699 1.33301 5 4l215 714c1.33301 4 -0.333984 6 -5.00098 6h-172c-2 0 -3.66699 -1.33301 -5 -4l-30 -100c-1.33301 -4 0.333984 -6 5.00098 -6h70l-152 -504h-73c-2 0 -3.66699 -1.33301 -5 -4l-30 -100c-1.33301 -4 0.333984 -6 5.00098 -6z
" />
    <glyph glyph-name="asciicircum" unicode="^" horiz-adv-x="510" 
d="M155 316h94c1.33301 0 2.66602 0.666992 3.99902 2l173 252l22 -249c0 -3.33301 1.66699 -5 5 -5h93c3.33301 0 5 2 5 6l-39 375c0 2.66699 -1.66699 4 -5 4h-85c-1.33301 0 -2.66602 -0.666992 -3.99902 -2l-267 -375c-1.33301 -2 -1.5 -3.83301 -0.5 -5.5
s2.5 -2.5 4.5 -2.5z" />
    <glyph glyph-name="underscore" unicode="_" horiz-adv-x="425" 
d="M-46 -157h425c2 0 3.66699 1.33301 5 4l23 77c1.33301 4 -0.333984 6 -5.00098 6h-425c-2 0 -3.66699 -1.33301 -5 -4l-23 -77c-1.33301 -4 0.333984 -6 5.00098 -6z" />
    <glyph glyph-name="grave" unicode="`" horiz-adv-x="174" 
d="M297 975c-0.666992 0.666992 -2 1 -4 1h-120c-2.66699 0 -4.33398 -1.16699 -5.00098 -3.5s-0.333984 -4.16602 0.999023 -5.49902l154 -154c0.666992 -0.666992 2 -1 4 -1h121c2.66699 0 4.33398 1.16699 5.00098 3.5s0.333984 4.16602 -0.999023 5.49902z" />
    <glyph glyph-name="a" unicode="a" 
d="M3 -5h129.999c2 0 3.66699 1 5 3l49 123h76l-22 -120c-1.33301 -4 0.333984 -6 5.00098 -6h128c3.33301 0 5 1.33301 5 4l112 714c0 4 -1.66699 6 -5 6h-165c-1.33301 0 -3 -1 -5 -3l-318 -714c-1.33301 -2 -1.33301 -3.66699 0 -5s3 -2 5 -2zM290.999 261h-48l108 275z
" />
    <glyph glyph-name="b" unicode="b" 
d="M157 440l-125.003 -439.006c-1.33301 -4 0.333984 -6 5.00098 -6h185c50 0 89.333 12.5 118 37.5s50.667 62.5 66 112.5l33 107c3.33301 11.333 5.83301 21.5 7.5 30.5s2.5 17.833 2.5 26.5c0 34 -14.333 56 -43 66c30 12.667 53.167 30.834 69.5 54.501
s28.166 48.834 35.499 75.501l19 62c3.33301 12.667 6 24.334 8 35.001s3 21 3 31c0 28.667 -8.66699 50.167 -26 64.5s-44.666 21.5 -81.999 21.5h-181c-2 0 -3.66699 -1.33301 -5 -4l-39 -128c-1.33301 -4 0.333984 -6 5.00098 -6h82c20 0 34.833 -0.166992 44.5 -0.5
s15.834 -0.666016 18.501 -0.999023s4.66699 -0.5 6 -0.5h4c7.33301 0 12.5 -1.16699 15.5 -3.5s4.5 -7.16602 4.5 -14.499v-9c0 -2.66699 -0.666992 -6 -2 -10c0 -1.33301 0.166992 -2.66602 0.5 -3.99902s0.5 -2.66602 0.5 -3.99902c0 -7.33301 -3.33301 -15 -10 -23
c-4 -14.667 -7.83301 -26.334 -11.5 -35.001s-7.5 -15.5 -11.5 -20.5s-8.33301 -8.33301 -13 -10s-10 -2.5 -16 -2.5l-163 1c-2 0 -3.66699 -1.33301 -5 -4zM256.997 302.994h25.0029c9.33301 0 16.166 -1 20.499 -3s6.5 -6.66699 6.5 -14c0 -6 -1.16699 -14.333 -3.5 -25
s-5.83301 -24.334 -10.5 -41.001v1c-6 -19.333 -11.333 -34.666 -16 -45.999s-9.33398 -20 -14.001 -26s-9.83398 -9.83301 -15.501 -11.5s-12.5 -2.5 -20.5 -2.5h-22z" />
    <glyph glyph-name="c" unicode="c" horiz-adv-x="362" 
d="M193 561l-122.001 -405.999c-10 -32 -15 -59.333 -15 -82c0 -32 10 -55.333 30 -70s51.667 -22 95 -22h12c2 0 4 0.166992 6 0.5s4 0.5 6 0.5s3.66699 1.33301 5 4l37 135c0.666992 2.66699 0.166992 4.5 -1.5 5.5s-3.5 0.833008 -5.5 -0.5
c-6.66699 -3.33301 -13.334 -5 -20.001 -5c-12 0 -18 5.33301 -18 16c0 5.33301 1.66699 14.666 5 27.999l115 382c5.33301 18 11.5 30.167 18.5 36.5s15.167 9.5 24.5 9.5c5.33301 0 10 -1.5 14 -4.5s6 -7.16699 6 -12.5c0 -0.666992 -0.666992 -3.66699 -2 -9l-31 -107
c-1.33301 -4 0.333984 -6 5.00098 -6h124c2 0 3.66699 1.33301 5 4l30 101c9.33301 32 14 58.667 14 80c0 32.667 -10.167 56.5 -30.5 71.5s-52.166 22.5 -95.499 22.5c-57.333 0 -102.5 -13.5 -135.5 -40.5s-58.167 -70.833 -75.5 -131.5z" />
    <glyph glyph-name="d" unicode="d" 
d="M215 580l142.998 -0.999023c18 0 27 -6.33301 27 -19c0 -4.66699 -0.333008 -8.33398 -1 -11.001c-1.33301 -11.333 -4.16602 -24.833 -8.49902 -40.5s-11.166 -37.5 -20.499 -65.5l-31 -98.5c-12.667 -39.667 -27.667 -90.167 -45 -151.5v1
c-6.66699 -19.333 -12.834 -33.333 -18.501 -42s-12.5 -14 -20.5 -16c-2.66699 0 -4 -1 -4 -3l-51 -131c-1.33301 -4.66699 0.333984 -7 5.00098 -7c28 0 53 2.5 75 7.5s41.667 14 59 27s32.666 30.667 45.999 53s25.333 50.5 36 84.5l113 378
c5.33301 17.333 9.33301 33 12 47s4 26.667 4 38c0 34.667 -11.167 58.167 -33.5 70.5s-54.5 18.5 -96.5 18.5h-153c-2 0 -3.66699 -1.33301 -5 -4l-37 -129c-1.33301 -4 0.333984 -6 5.00098 -6z" />
    <glyph glyph-name="e" unicode="e" horiz-adv-x="314" 
d="M247 715l-214.998 -714c-1.33301 -4 0.333984 -6 5.00098 -6h255c2 0 3.66699 1.33301 5 4l39 130c1.33301 4 -0.333984 6 -5.00098 6h-124l50 168h121c2 0 3.66699 1.33301 5 4l40 130c1.33301 4 -0.333984 6 -5.00098 6h-118l40 136h127c2 0 3.66699 1.33301 5 4
l40 130c1.33301 4 -0.333984 6 -5.00098 6h-255c-2 0 -3.66699 -1.33301 -5 -4z" />
    <glyph glyph-name="f" unicode="f" horiz-adv-x="314" 
d="M247 715l-214.999 -714c-1.33301 -4 0.333984 -6 5.00098 -6h124c2 0 3.66699 1.33301 5 4l91 304h121c2 0 3.66699 1.33301 5 4l40 130c1.33301 4 -0.333984 6 -5.00098 6h-118l40 136h127c2 0 3.66699 1.33301 5 4l40 130c1.33301 4 -0.333984 6 -5.00098 6h-255
c-2 0 -3.66699 -1.33301 -5 -4z" />
    <glyph glyph-name="g" unicode="g" horiz-adv-x="383" 
d="M361 28l115.999 385c1.33301 4 -0.333984 6 -5.00098 6h-119c-2.66699 0 -4.33398 -1 -5.00098 -3l-82 -259c-4.66699 -13.333 -10 -22.666 -16 -27.999s-14.667 -8 -26 -8c-15.333 0 -23 5 -23 15c0 1.33301 0.333008 3.66602 1 6.99902s1.66699 7 3 11l122 404
c5.33301 23.333 19.333 35 42 35c11.333 0 18 -3 20 -9c1.33301 -2.66699 3 -4 5 -4s3.66699 1.33301 5 4l48 140c1.33301 4.66699 -0.333984 7 -5.00098 7c-5.33301 0.666992 -11.166 1.16699 -17.499 1.5s-13.166 0.5 -20.499 0.5c-57.333 0 -102.5 -13.5 -135.5 -40.5
s-58.167 -70.833 -75.5 -131.5l-131 -433c-4 -14 -6 -26 -6 -36c0 -17.333 3.83301 -32 11.5 -44s17.834 -21.833 30.501 -29.5s27 -13.167 43 -16.5s32 -5 48 -5h18c12 0 24.5 0.166992 37.5 0.5s26 1.5 39 3.5s25.333 5.16699 37 9.5s21.834 10.5 30.501 18.5
c0 -2 1.33301 -3.33301 4 -4s4.66699 0.333008 6 3z" />
    <glyph glyph-name="h" unicode="h" horiz-adv-x="394" 
d="M247 715l-215 -714c-1.33301 -4 0.333984 -6 5.00098 -6h124c2 0 3.66699 1.33301 5 4l91 304h61l-90 -302c-1.33301 -4 0.333984 -6 5.00098 -6h124c2 0 3.66699 1.33301 5 4l215 714c1.33301 4 -0.333984 6 -5.00098 6h-124c-2 0 -3.66699 -1.33301 -5 -4l-82 -272h-61
l81 270c1.33301 4 -0.333984 6 -5.00098 6h-124c-2 0 -3.66699 -1.33301 -5 -4z" />
    <glyph glyph-name="i" unicode="i" horiz-adv-x="205" 
d="M41 -5h124c2 0 3.66699 1.33301 5 4l215 714c1.33301 4 -0.333984 6 -5.00098 6h-124c-2 0 -3.66699 -1.33301 -5 -4l-215 -714c-1.33301 -4 0.333984 -6 5.00098 -6z" />
    <glyph glyph-name="j" unicode="j" horiz-adv-x="346" 
d="M193 230l-120.997 -0.000976562c-2 0 -3.66699 -1.33301 -5 -4l-21 -71c-5.33301 -17.333 -9.33301 -33.166 -12 -47.499s-4 -27.166 -4 -38.499c0 -34 10.667 -57.167 32 -69.5s53 -18.5 95 -18.5c27.333 0 51.666 2.66699 72.999 8s40.333 14.5 57 27.5
s31.5 30.667 44.5 53s24.5 50.166 34.5 83.499l168 560c1.33301 4 -0.333984 6 -5.00098 6h-124c-2 0 -3.66699 -1.33301 -5 -4l-167 -554c-4.66699 -14.667 -10 -25 -16 -31s-14.333 -9 -25 -9c-12.667 0 -19 4.66699 -19 14c0 4.66699 1.66699 12.667 5 24l20 65
c1.33301 4 -0.333984 6 -5.00098 6z" />
    <glyph glyph-name="k" unicode="k" horiz-adv-x="394" 
d="M272 354h127.999c0.666992 0 2 1 4 3l204 355c2 4.66699 0.666992 7 -4 7h-131c-1.33301 0 -2.66602 -0.666992 -3.99902 -2l-178 -303l90 299c1.33301 4 -0.333984 6 -5.00098 6h-124c-2 0 -3.66699 -1.33301 -5 -4l-215 -714c-1.33301 -4 0.333984 -6 5.00098 -6h124
c2 0 3.66699 1.33301 5 4z" />
    <glyph glyph-name="l" unicode="l" horiz-adv-x="299" 
d="M37 -5h255.001c2 0 3.66699 1.33301 5 4l39 130c1.33301 4 -0.333984 6 -5.00098 6h-124l174 578c1.33301 4 -0.333984 6 -5.00098 6h-124c-2 0 -3.66699 -1.33301 -5 -4l-215 -714c-1.33301 -4 0.333984 -6 5.00098 -6z" />
    <glyph glyph-name="m" unicode="m" horiz-adv-x="582" 
d="M350 195l101 518c1.33301 4 -0.333984 6 -5.00098 6h-197c-2 0 -3.66699 -1.33301 -5 -4l-215 -714c-1.33301 -4 0.333984 -6 5.00098 -6h117c2 0 3.66699 1.33301 5 4l164 543l-96 -541c-1.33301 -4 0.333984 -6 5.00098 -6h124c2 0 3.66699 1 5 3l229 538l-161 -535
c-1.33301 -4 0.333984 -6 5.00098 -6h117c2 0 3.66699 1.33301 5 4l215 714c1.33301 4 -0.333984 6 -5.00098 6h-197c-2.66699 0 -4.33398 -1 -5.00098 -3z" />
    <glyph glyph-name="n" unicode="n" horiz-adv-x="456" 
d="M372 251l43 463c0 3.33301 -1.66699 5 -5 5h-158c-2 0 -3.66699 -1.33301 -5 -4l-215 -714c-1.33301 -4 0.333984 -6 5.00098 -6h118c2 0 3.66699 1.33301 5 4l137 456l-39 -455c0 -3.33301 1.66699 -5 5 -5h156c2 0 3.66699 1.33301 5 4l215 714
c1.33301 4 -0.333984 6 -5.00098 6h-117c-2 0 -3.66699 -1.33301 -5 -4z" />
    <glyph glyph-name="o" unicode="o" 
d="M193 561l-122 -406c-5.33301 -17.333 -9.33301 -33 -12 -47s-4 -26.667 -4 -38c0 -34.667 11.167 -58.167 33.5 -70.5s54.5 -18.5 96.5 -18.5c27.333 0 52 2.5 74 7.5s41.667 14 59 27s32.666 30.667 45.999 53s25.333 50.5 36 84.5l122 406c10 34 15 62.333 15 85
c0 34.667 -11 58.167 -33 70.5s-54 18.5 -96 18.5c-28 0 -52.833 -2.5 -74.5 -7.5s-41.167 -14 -58.5 -27s-32.666 -30.667 -45.999 -53s-25.333 -50.5 -36 -84.5zM205 154l122 404.001c5.33301 23.333 19.333 35 42 35c14.667 0 22 -5.33301 22 -16
c0 -4.66699 -1 -10.334 -3 -17.001l-122 -404v1c-4.66699 -13.333 -10 -22.666 -16 -27.999s-14.667 -8 -26 -8c-15.333 0 -23 5 -23 15c0 1.33301 0.333008 3.66602 1 6.99902s1.66699 7 3 11z" />
    <glyph glyph-name="p" unicode="p" horiz-adv-x="362" 
d="M238 247l44 144.001l2 2l56 186h28c6.66699 0 11.667 -0.666992 15 -2s5 -5.33301 5 -12c0 -7.33301 -1.66699 -18 -5 -32s-8.66602 -32.667 -15.999 -56c-5.33301 -18.667 -10.333 -33.834 -15 -45.501s-9.16699 -20.834 -13.5 -27.501s-9 -11.167 -14 -13.5
s-10.5 -3.5 -16.5 -3.5h-4c-2.66699 0 -4.33398 -1 -5.00098 -3l-44 -130c-1.33301 -4.66699 0.333984 -7 5.00098 -7h6c31.333 0 58.166 2.66699 80.499 8s41.666 14.333 57.999 27s30.333 29.667 42 51s22.5 48.333 32.5 81l41 136c10.667 34 16 63 16 87
c0 31.333 -10.333 52.833 -31 64.5s-54 17.5 -100 17.5h-153c-2 0 -3.66699 -1.33301 -5 -4l-215 -714c-1.33301 -4 0.333984 -6 5.00098 -6h124c2 0 3.66699 1.33301 5 4l71 237c0 2.66699 -0.333008 4.33398 -1 5.00098c0 1.33301 0.666992 3.33301 2 6z" />
    <glyph glyph-name="q" unicode="q" 
d="M205 154l122.002 404.001c4.66699 22 17.334 33.667 38.001 35c2 0 3.66699 1 5 3l42 130c1.33301 4.66699 -0.333984 7 -5.00098 7c-28 0 -53 -2.66699 -75 -8s-41.5 -14.5 -58.5 -27.5s-32 -30.5 -45 -52.5s-24.833 -50 -35.5 -84l-122 -406
c-5.33301 -17.333 -9.33301 -33 -12 -47s-4 -26.667 -4 -38c0 -25.333 6.33301 -44.5 19 -57.5s31.667 -21.5 57 -25.5l-16 -56c-8 -26 -12 -46.667 -12 -62c0 -21.333 6.33301 -35.666 19 -42.999s30.667 -11 54 -11h84c2 0 3.66699 1.33301 5 4l34 112
c1.33301 4 -0.333984 6 -5.00098 6h-47c-11.333 0 -17 6 -17 18c0 2 0.666992 6.33301 2 13v-1l6 19c19.333 2.66699 37.166 7.5 53.499 14.5s31 17 44 30s24.833 29.5 35.5 49.5s20.334 44.333 29.001 73l122 406c10 34 15 62 15 84c0 34 -10.167 57.167 -30.5 69.5
s-49.5 19.166 -87.5 20.499c-2 0 -3.66699 -1.33301 -5 -4l-37 -128c-0.666992 -2.66699 0.666016 -4.66699 3.99902 -6l3 -1.5c0.666992 -0.333008 1 -2.16602 1 -5.49902c0 -6.66699 -1.83301 -18.334 -5.5 -35.001s-10 -41.334 -19 -74.001l-36.5 -127.5l-58 -195.5v1
c-4.66699 -13.333 -10 -22.666 -16 -27.999s-14.667 -8 -26 -8c-15.333 0 -23 5 -23 15c0 1.33301 0.333008 3.66602 1 6.99902s1.66699 7 3 11z" />
    <glyph glyph-name="r" unicode="r" 
d="M318 579l26.9951 0.000976562c14 0 21 -6 21 -18c0 -10 -3 -26.333 -9 -49c-8 -29.333 -15.5 -48.166 -22.5 -56.499s-16.167 -12.5 -27.5 -12.5c-3.33301 0 -5 -1.33301 -5 -4l-28 -130c-1.33301 -4 0 -6 4 -6c14 -1.33301 21 -7.66602 21 -18.999
c0 -4.66699 -0.333008 -8.33398 -1 -11.001l-62 -243l1 1c-1.33301 -3.33301 -2.16602 -6 -2.49902 -8s-0.5 -4.33301 -0.5 -7v-10c0 -2.66699 0.666992 -5.33398 2 -8.00098c0.666992 -2 2.33398 -3 5.00098 -3h124c4.66699 0 6.33398 2.33301 5.00098 7
c-1.33301 4 -2 7 -2 9c0 5.33301 1 12.833 3 22.5s5.66699 24.167 11 43.5l40 155c8 30 12 54.667 12 74c0 35.333 -12.667 58 -38 68c12.667 4 24 10 34 18s18.5 17 25.5 27s12.833 20.5 17.5 31.5s8.33398 21.5 11.001 31.5l22 85c3.33301 12 5.83301 23.167 7.5 33.5
s2.5 20.166 2.5 29.499c0 34 -11.333 57.333 -34 70s-56 19 -100 19h-159c-2 0 -3.66699 -1.33301 -5 -4l-186 -714c-1.33301 -4 0.333984 -6 5.00098 -6h124c2 0 3.66699 1.33301 5 4z" />
    <glyph glyph-name="s" unicode="s" horiz-adv-x="346" 
d="M359 494h121.001c2 0 3.66699 1.33301 5 4l17 56c10 32.667 15 60.334 15 83.001c0 34.667 -10.5 59.334 -31.5 74.001s-52.167 22 -93.5 22c-30 0 -56.5 -3.5 -79.5 -10.5s-43.167 -18 -60.5 -33s-32.333 -34.333 -45 -58s-24 -51.834 -34 -84.501
c-10.667 -36 -16 -67.667 -16 -95c0 -17.333 1.83301 -32.833 5.5 -46.5s8.33398 -26.334 14.001 -38.001s12.167 -22.334 19.5 -32.001s14.666 -18.834 21.999 -27.501c11.333 -14 21.666 -28 30.999 -42s14 -31 14 -51c0 -11.333 -2 -24.333 -6 -39
c-6 -19.333 -12.667 -33.333 -20 -42s-17 -13 -29 -13c-4 0 -7.33301 0.333008 -10 1c-2.66699 1.33301 -4.66699 0.333008 -6 -3l-46 -131c-1.33301 -4.66699 0.333984 -7 5.00098 -7h18c30.667 0 57.5 3.16699 80.5 9.5s43.167 17.333 60.5 33s32.5 36.167 45.5 61.5
s25.167 57 36.5 95c5.33301 18 9.16602 34.833 11.499 50.5s3.5 30.167 3.5 43.5c0 18 -2 34.333 -6 49s-9 28 -15 40s-12.667 22.833 -20 32.5s-14.666 18.834 -21.999 27.501c-11.333 13.333 -21.333 26.333 -30 39s-13 27.667 -13 45
c0 4.66699 0.333008 9.33398 1 14.001s2 10 4 16c5.33301 20 11.666 34.333 18.999 43s16.666 13 27.999 13c13.333 0 20 -7 20 -21c0 -7.33301 -2 -18 -6 -32v1l-13 -40c-1.33301 -4.66699 0.333984 -7 5.00098 -7z" />
    <glyph glyph-name="t" unicode="t" horiz-adv-x="314" 
d="M263 579l-173.001 -578c-1.33301 -4 0.333984 -6 5.00098 -6h124c2 0 3.66699 1.33301 5 4l174 580h88c2 0 3.66699 1.33301 5 4l40 130c1.33301 4 -0.333984 6 -5.00098 6h-308c-2 0 -3.66699 -1.33301 -5 -4l-40 -130c-1.33301 -4 0.333984 -6 5.00098 -6h85z" />
    <glyph glyph-name="u" unicode="u" 
d="M400 153l168.002 560c1.33301 4 -0.333984 6 -5.00098 6h-124c-2 0 -3.66699 -1.33301 -5 -4l-162 -538c-7.33301 -23.333 -14.333 -38.5 -21 -45.5s-15.667 -10.5 -27 -10.5c-7.33301 0 -12.666 1 -15.999 3s-5 6.33301 -5 13c0 7.33301 2.66699 20 8 38l162 538
c1.33301 4 -0.333984 6 -5.00098 6h-124c-2 0 -3.66699 -1.33301 -5 -4l-168 -560c-5.33301 -17.333 -9.33301 -33 -12 -47s-4 -26.667 -4 -38c0 -34.667 11.167 -58.167 33.5 -70.5s54.5 -18.5 96.5 -18.5c27.333 0 52 2.5 74 7.5s41.667 14 59 27s32.666 30.667 45.999 53
s25.333 50.5 36 84.5z" />
    <glyph glyph-name="v" unicode="v" 
d="M589 719h-126.998c-2.66699 0 -4.33398 -1 -5.00098 -3l-206 -511l101 508c1.33301 4 -0.333984 6 -5.00098 6h-129c-3.33301 0 -5 -1.33301 -5 -4l-112 -714c0 -4 1.66699 -6 5 -6h165c1.33301 0 3 1 5 3l318 714c2 4.66699 0.333008 7 -5 7z" />
    <glyph glyph-name="w" unicode="w" horiz-adv-x="614" 
d="M213 715l-120.998 -714c-1.33301 -4 0.333984 -6 5.00098 -6h156c2 0 3.66699 1 5 3l199 501l-102 -498c-1.33301 -4 0.333984 -6 5.00098 -6h157c2 0 3.66699 1 5 3l308 714c2 4.66699 0.333008 7 -5 7h-128c-2.66699 0 -4.33398 -1 -5.00098 -3l-197 -508l102 505
c1.33301 4 -0.333984 6 -5.00098 6h-140c-2.66699 0 -4.33398 -1 -5.00098 -3l-203 -511l108 508c1.33301 4 -0.333984 6 -5.00098 6h-129c-3.33301 0 -5 -1.33301 -5 -4z" />
    <glyph glyph-name="x" unicode="x" horiz-adv-x="409" 
d="M243 373l-243.998 -370c-2.66699 -5.33301 -1.33398 -8 3.99902 -8h132c1.33301 0 2.66602 0.666992 3.99902 2l127 205l3 -202c0 -3.33301 1.66699 -5 5 -5h131c3.33301 0 5 1.66699 5 5l-46 714c0 3.33301 -1.66699 5 -5 5h-130c-3.33301 0 -5 -1.66699 -5 -5z" />
    <glyph glyph-name="y" unicode="y" horiz-adv-x="394" 
d="M339 473l13.998 241c0 3.33301 -1.66699 5 -5 5h-130c-3.33301 0 -5 -1.66699 -5 -5l-2 -441l-82 -272c-1.33301 -4 0.333984 -6 5.00098 -6h124c2 0 3.66699 1.33301 5 4l82 271l264 441c2.66699 5.33301 1.33398 8 -3.99902 8h-130c-0.666992 0 -2 -1 -4 -3z" />
    <glyph glyph-name="z" unicode="z" horiz-adv-x="331" 
d="M19 -5h303c2 0 3.66699 1.33301 5 4l39 130c1.33301 4 -0.333984 6 -5.00098 6h-160l287 447l40 131c1.33301 4 -0.333984 6 -5.00098 6h-285c-2 0 -3.66699 -1.33301 -5 -4l-40 -130c-1.33301 -4 0.333984 -6 5.00098 -6h135l-280 -447l-39 -131
c-1.33301 -4 0.333984 -6 5.00098 -6z" />
    <glyph glyph-name="braceleft" unicode="{" horiz-adv-x="237" 
d="M142 409l-29 -100.001c-1.33301 -4 0.333984 -6 5.00098 -6c6 -0.666992 11.333 -3 16 -7s7 -10.333 7 -19c0 -7.33301 -1.33301 -15 -4 -23l-43 -149v1c-6 -19.333 -9 -36.333 -9 -51c0 -40 20.667 -60 62 -60h59c2 0 3.66699 1.33301 5 4l29 100
c1.33301 4 -0.333984 6 -5.00098 6h-14c-14 0 -21 4.33301 -21 13c0 4.66699 1.66699 13 5 25l40 136c2.66699 8.66699 4 18 4 28c0 14.667 -3.66699 26 -11 34s-15 13.667 -23 17c13.333 4.66699 27.5 13 42.5 25s26.167 30.667 33.5 56l38 130
c4.66699 16 9.83398 26.667 15.501 32s14.167 8 25.5 8h15c2 0 3.66699 1.33301 5 4l29 100c1.33301 4 -0.333984 6 -5.00098 6h-59c-28 0 -51.333 -9.16699 -70 -27.5s-33.334 -45.166 -44.001 -80.499l-43 -149c-5.33301 -17.333 -12.666 -29.833 -21.999 -37.5
s-19 -11.5 -29 -11.5c-2 0 -3.66699 -1.33301 -5 -4z" />
    <glyph glyph-name="bar" unicode="|" horiz-adv-x="178" 
d="M312 856l-363.999 -999c-1.33301 -4.66699 0.333984 -7 5.00098 -7h90c2 0 3.66699 1 5 3l364 999c1.33301 4.66699 -0.333984 7 -5.00098 7h-90c-2.66699 0 -4.33398 -1 -5.00098 -3z" />
    <glyph glyph-name="braceright" unicode="}" horiz-adv-x="237" 
d="M325 306l36.001 99.999c1.33301 4.66699 -0.333984 7 -5.00098 7c-6 0 -11 1.66699 -15 5s-6 8.66602 -6 15.999c0 5.33301 2 13.666 6 24.999l54 149c8 22 12 41.667 12 59c0 34.667 -19 52 -57 52h-60c-2.66699 0 -4.33398 -1 -5.00098 -3l-37 -100
c-1.33301 -4.66699 0.333984 -7 5.00098 -7h15c12.667 0 19 -3.66699 19 -11c0 -6 -2.33301 -14.667 -7 -26l-47 -130c-2.66699 -6.66699 -4.33398 -12.667 -5.00098 -18s-1 -10.666 -1 -15.999c0 -13.333 3 -23.833 9 -31.5s12.667 -13.167 20 -16.5
c-13.333 -3.33301 -27.833 -11 -43.5 -23s-28.167 -30.333 -37.5 -55l-50 -136c-5.33301 -16.667 -11.166 -27.667 -17.499 -33s-15.166 -8 -26.499 -8h-15c-2.66699 0 -4.33398 -1 -5.00098 -3l-36 -100c-1.33301 -4.66699 0.333984 -7 5.00098 -7h60
c28 0 51.833 9.16699 71.5 27.5s36.167 44.833 49.5 79.5l54 149c6.66699 18.667 15.167 31.834 25.5 39.501s20.166 11.834 29.499 12.501c2 0 3.66699 1 5 3z" />
    <glyph glyph-name="asciitilde" unicode="~" horiz-adv-x="480" 
d="M523 256l3.99902 92c0 2.66699 -1.16699 4.33398 -3.5 5.00098s-4.16602 0 -5.49902 -2c-19.333 -22 -36.166 -39.167 -50.499 -51.5s-28.166 -18.5 -41.499 -18.5c-7.33301 0 -14.833 2.33301 -22.5 7s-17.5 11 -29.5 19l-13 9
c-15.333 10.667 -29.333 18.834 -42 24.501s-25.667 8.5 -39 8.5c-25.333 0 -49.333 -8.16699 -72 -24.5s-43.667 -37.833 -63 -64.5l-4 -92c0 -2.66699 1.16699 -4.33398 3.5 -5.00098s4.16602 0 5.49902 2c19.333 22 36 39.167 50 51.5s27.667 18.5 41 18.5
c7.33301 0 15 -2 23 -6s18 -10.667 30 -20l13 -9c15.333 -10.667 29.333 -18.834 42 -24.501s25.667 -8.5 39 -8.5c25.333 0 49.166 8.16699 71.499 24.5s43.5 37.833 63.5 64.5z" />
    <glyph glyph-name="exclamdown" unicode="&#xa1;" horiz-adv-x="227" 
d="M155 331l-168.999 -500c-1.33301 -4.66699 0.333984 -7 5.00098 -7h125c2 0 3.66699 1.33301 5 4l133 500c1.33301 4 -0.333984 6 -5.00098 6h-89c-2.66699 0 -4.33398 -1 -5.00098 -3zM174.001 408h111c2 0 3.66699 1.33301 5 4l39 130
c1.33301 4 -0.333984 6 -5.00098 6h-111c-2 0 -3.66699 -1.33301 -5 -4l-39 -130c-1.33301 -4 0.333984 -6 5.00098 -6z" />
    <glyph glyph-name="cent" unicode="&#xa2;" horiz-adv-x="362" 
d="M240 127c-2 0 -3.33496 -0.332031 -4.00195 -0.999023l-1 -1h2c-6.66699 -2.66699 -12.334 -4 -17.001 -4c-12 0 -18 5.33301 -18 16c0 5.33301 1.66699 14.666 5 27.999l115 382c5.33301 18 11.5 30.167 18.5 36.5s15.167 9.5 24.5 9.5c5.33301 0 10 -1.5 14 -4.5
s6 -7.16699 6 -12.5c0 -0.666992 -0.666992 -3.66699 -2 -9l-31 -107c-1.33301 -4 0.333984 -6 5.00098 -6h124c2 0 3.66699 1.33301 5 4l30 101c8.66699 30 13 56.333 13 79c0 28 -7.16699 49.5 -21.5 64.5s-37.5 24.167 -69.5 27.5l19 63
c1.33301 4 -0.333984 6 -5.00098 6h-52c-2 0 -3.66699 -1.33301 -5 -4l-19 -64c-50 -4 -89.167 -19.5 -117.5 -46.5s-50.166 -68.167 -65.499 -123.5l-122 -406c-10 -32 -15 -59.333 -15 -82c0 -32 10 -55.333 30 -70s51.667 -22 95 -22h10l-26 -77
c-1.33301 -4.66699 0.333984 -7 5.00098 -7h52c2 0 3.66699 1 5 3l75 224c0.666992 2 0.333984 3.83301 -0.999023 5.5s-3 2.16699 -5 1.5c-5.33301 -1.33301 -12 -2.33301 -20 -3s-15.667 -1 -23 -1h-13z" />
    <glyph glyph-name="sterling" unicode="&#xa3;" horiz-adv-x="341" 
d="M346 272c2 0 3.66504 1.33301 4.99805 4l22 74c1.33301 4 -0.333984 6 -5.00098 6h-75v104c0 15.333 0.333008 27.833 1 37.5s2.33398 18.5 5.00098 26.5v-1c11.333 34 26.666 51 45.999 51c13.333 0 20 -10.333 20 -31c0 -8 -1.33301 -16.333 -4 -25l-9 -31
c-1.33301 -4 0.333984 -6 5.00098 -6h104c2 0 3.66699 1.33301 5 4l10 37c10.667 34.667 16 65.667 16 93c0 64 -34.667 96 -104 96c-53.333 0 -97.666 -14.333 -132.999 -43s-61.333 -71 -78 -127c-5.33301 -19.333 -9.5 -41.833 -12.5 -67.5s-4.5 -50.167 -4.5 -73.5v-24
c0 -7.33301 0.666992 -14 2 -20h-47c-2 0 -3.66699 -1.33301 -5 -4l-21 -74c-1.33301 -4 0.333984 -6 5.00098 -6h252zM86.998 -5c2 0 3.66797 1.00098 5.00098 3.00098c7.33301 17.333 18.666 26 33.999 26c6 0 18.667 -5 38 -15c15.333 -8 28.5 -13.833 39.5 -17.5
s22.167 -5.5 33.5 -5.5c37.333 0 67.833 14.5 91.5 43.5s42.834 68.167 57.501 117.5c1.33301 4 -0.333984 6 -5.00098 6h-73c-2.66699 0 -4.33398 -1 -5.00098 -3l-2 -6c-2.66699 -6.66699 -5.33398 -12.167 -8.00098 -16.5s-5.66699 -6.5 -9 -6.5
c-4.66699 0 -15.667 4.33301 -33 13h1c-4 2.66699 -9.83301 5.5 -17.5 8.5s-16 5.66699 -25 8s-18.167 4.16602 -27.5 5.49902s-17.666 2 -24.999 2c-10 0 -17.333 -1.33301 -22 -4l1 1c-31.333 -3.33301 -57 -18.5 -77 -45.5s-36.667 -63.167 -50 -108.5
c-1.33301 -4 0.333984 -6 5.00098 -6h73z" />
    <glyph glyph-name="yen" unicode="&#xa5;" horiz-adv-x="341" 
d="M461 372c2 0 3.66797 1 5.00098 3l21 56c1.33301 4.66699 -0.333984 7 -5.00098 7h-51l156 255c2.66699 5.33301 1.33398 8 -3.99902 8h-110c-0.666992 0 -2 -1 -4 -3l-126 -225l36 222c1.33301 4 -0.333984 6 -5.00098 6h-110c-3.33301 0 -5 -1.33301 -5 -4l-28 -259
h-55c-2.66699 0 -4.33398 -1 -5.00098 -3l-21 -56c-1.33301 -4.66699 0.333984 -7 5.00098 -7h306zM129.001 309c-2.66699 0 -4.33398 -1 -5.00098 -3l-21 -56c-1.33301 -4.66699 0.333984 -7 5.00098 -7h87l-87 -241c-1.33301 -4.66699 0.333984 -7 5.00098 -7h113
c2 0 3.66699 1 5 3l89 245h94c2 0 3.66699 1 5 3l21 56c1.33301 4.66699 -0.333984 7 -5.00098 7h-306z" />
    <glyph glyph-name="brokenbar" unicode="&#xa6;" horiz-adv-x="178" 
d="M236 760l-103 -350c-1.33301 -4 0.333984 -6 5.00098 -6h90c2 0 3.66699 1.33301 5 4l102 350c1.33301 4 -0.333984 6 -5.00098 6h-89c-2 0 -3.66699 -1.33301 -5 -4zM90 260l-101 -349c-1.33301 -4 0.333984 -6 5.00098 -6h89c2 0 3.66699 1.33301 5 4l102 349
c1.33301 4 -0.333984 6 -5.00098 6h-90c-2 0 -3.66699 -1.33301 -5 -4z" />
    <glyph glyph-name="section" unicode="&#xa7;" horiz-adv-x="385" 
d="M517 519c2 0 3.66895 1.00195 5.00195 3.00195l14 38c10.667 29.333 16 55.333 16 78c0 51.333 -33.333 77 -100 77c-46.667 0 -86.5 -13.667 -119.5 -41s-60.167 -70 -81.5 -128c-10 -27.333 -15 -52.666 -15 -75.999v-6c0.666992 -18.667 4 -31.334 10 -38.001
c-26 -8 -48.833 -23.833 -68.5 -47.5s-37.834 -59.167 -54.501 -106.5c-10 -28 -15 -53.333 -15 -76c0 -18 3.33301 -34.333 10 -49s14.667 -26.334 24 -35.001s21.666 -19 36.999 -31c14 -10.667 24.667 -19.834 32 -27.501s11 -16.167 11 -25.5
c0 -6 -1.33301 -12.667 -4 -20c-12 -34 -27 -51 -45 -51l-23 -2c-3.33301 0 -5 -1.33301 -5 -4l-26 -109c-1.33301 -4 0.333984 -6 5.00098 -6h8c50 0 91.667 13.833 125 41.5s60.666 70.167 81.999 127.5c6 17.333 10.167 32.333 12.5 45s3.5 24 3.5 34
c0 10.667 -1.33301 19.5 -4 26.5s-5.66699 12.167 -9 15.5c12.667 3.33301 24.167 8.33301 34.5 15s20.333 15.834 30 27.501s18.667 26 27 43s16.833 37.5 25.5 61.5c11.333 31.333 17 59.333 17 84c0 18.667 -3.33301 35.334 -10 50.001
c-6.66699 15.333 -15 27.666 -25 36.999s-22.333 19 -37 29c-14 9.33301 -24.5 17.5 -31.5 24.5s-10.5 15.167 -10.5 24.5c0 5.33301 1.33301 11.666 4 18.999c13.333 35.333 28.666 53 45.999 53c10 0 15 -5.66699 15 -17c0 -6 -1.33301 -12.667 -4 -20l-10 -31
c-1.33301 -4.66699 0.333984 -7 5.00098 -7h99zM268.002 213.002c-20.667 0 -31.001 7.66699 -31.001 23c0 8.66699 3 21 9 37c8.66699 23.333 18.334 40 29.001 50s24.667 15 42 15c20.667 0 31 -7.33301 31 -22c0 -7.33301 -3.33301 -20.333 -10 -39
c-8 -22.667 -17.333 -39 -28 -49s-24.667 -15 -42 -15z" />
    <glyph glyph-name="dieresis" unicode="&#xa8;" horiz-adv-x="385" 
d="M274 974h-110c-2 0 -3.66699 -1.33301 -5 -4l-39 -130c-1.33301 -4 0.333984 -6 5.00098 -6h110c2 0 3.66699 1.33301 5 4l39 130c1.33301 4 -0.333984 6 -5.00098 6zM472 973h-110c-2 0 -3.66699 -1.33301 -5 -4l-39 -130c-1.33301 -4 0.333984 -6 5.00098 -6h110
c2 0 3.66699 1.33301 5 4l39 130c1.33301 4 -0.333984 6 -5.00098 6z" />
    <glyph glyph-name="copyright" unicode="&#xa9;" horiz-adv-x="640" 
d="M126 378l88.999 0.000976562c2 0 3.66699 1 5 3c13.333 38 30.5 72.667 51.5 104s44.333 58.166 70 80.499s52.667 39.833 81 52.5s56.5 19 84.5 19c44 0 79.167 -15.833 105.5 -47.5s39.5 -74.167 39.5 -127.5c0 -11.333 -0.666992 -22.833 -2 -34.5
s-3.33301 -24.167 -6 -37.5c-1.33301 -4 0.333984 -6 5.00098 -6h89c3.33301 0 5 1.33301 5 4c8.66699 35.333 13 70 13 104c0 38 -5.5 72 -16.5 102s-26.5 55.167 -46.5 75.5s-43.667 36 -71 47s-57.333 16.5 -90 16.5c-39.333 0 -79.5 -8 -120.5 -24s-80 -39 -117 -69
s-70.667 -66.5 -101 -109.5s-54.5 -91.5 -72.5 -145.5zM340.999 77.001c-45.333 0 -80.8311 15.668 -106.498 47.001s-38.5 73.333 -38.5 126c0 11.333 0.5 23.333 1.5 36s3.16699 25.667 6.5 39c1.33301 4 -0.333984 6 -5.00098 6h-90c-3.33301 0 -5 -1.33301 -5 -4
c-8.66699 -35.333 -13 -70 -13 -104c0 -38 5.5 -72 16.5 -102s26.5 -55.333 46.5 -76s43.833 -36.334 71.5 -47.001s57.834 -16 90.501 -16h3c38 0 77.167 7.83301 117.5 23.5s78.833 38.334 115.5 68.001s70 65.5 100 107.5s54 89 72 141
c1.33301 4.66699 -0.333984 7 -5.00098 7h-89c-2.66699 0 -4.33398 -1 -5.00098 -3c-14 -36.667 -31.667 -70.334 -53 -101.001s-44.666 -57 -69.999 -79s-51.833 -39 -79.5 -51s-54.834 -18 -81.501 -18zM355.001 481.002l-75.999 -251.001v1c-6 -19.333 -9 -36.333 -9 -51
c0 -40 26.667 -60 80 -60h6c1.33301 0 2.66602 0.166992 3.99902 0.5s2.66602 0.5 3.99902 0.5c2 0 3.66699 1.33301 5 4l23 83c0.666992 2.66699 0 4.5 -2 5.5s-4 0.833008 -6 -0.5s-5.66699 -2 -11 -2c-6 0 -9 2.66699 -9 8c0 3.33301 1 8.66602 3 15.999l72 237
c3.33301 10 6.83301 16.833 10.5 20.5s8.16699 5.5 13.5 5.5c7.33301 0 11 -3.33301 11 -10c0 -1.33301 -0.166992 -2.16602 -0.5 -2.49902s-0.5 -0.833008 -0.5 -1.5l-20 -65c-1.33301 -4 0.333984 -6 5.00098 -6h76c2 0 3.66699 1.33301 5 4l19 62v-1
c3.33301 9.33301 5.5 18.333 6.5 27s1.5 16.667 1.5 24c0 20.667 -6.16699 35.834 -18.5 45.501s-32.5 14.5 -60.5 14.5c-36.667 0 -65 -8.5 -85 -25.5s-35.667 -44.5 -47 -82.5z" />
    <glyph glyph-name="guillemotleft" unicode="&#xab;" horiz-adv-x="326" 
d="M238 257l31 -124.999c1.33301 -2.66699 3 -4 5 -4h84c4.66699 0 6.33398 2 5.00098 6l-31 122l121 123c1.33301 1.33301 1.66602 3.16602 0.999023 5.49902s-2.33398 3.5 -5.00098 3.5h-84c-1.33301 0 -2.66602 -0.666992 -3.99902 -2l-122 -125
c-0.666992 -0.666992 -1 -2 -1 -4zM105 257.001l32.001 -124.998c1.33301 -2.66699 3 -4 5 -4h83c4.66699 0 6.33398 2 5.00098 6l-31 122l121 123c1.33301 1.33301 1.66602 3.16602 0.999023 5.49902s-2.33398 3.5 -5.00098 3.5h-83c-2 0 -3.33301 -0.333008 -4 -1
l-123 -125c-0.666992 -0.666992 -1 -2.33398 -1 -5.00098z" />
    <glyph glyph-name="logicalnot" unicode="&#xac;" horiz-adv-x="763" 
d="M214 -42c2.66699 0 4 0.665039 4 1.99805l30 77h46l-13 -75c-1.33301 -2.66699 -0.666016 -4 2.00098 -4l163 1c30 0 54.167 7.83301 72.5 23.5s31.833 39.167 40.5 70.5l21 65c4 14.667 6 26.667 6 36c0 20 -9 33.333 -27 40c18.667 7.33301 33.167 18.333 43.5 33
s17.833 30.334 22.5 47.001l11 38c4 14.667 6 28.334 6 41.001c0 20 -5.66699 33.667 -17 41l11 41c0.666992 2 0 3 -2 3h-77l30 104h75c2 0 3 1.33301 3 4l23 78c1.33301 2.66699 0.666016 4 -2.00098 4h-72l24 84h79c1.33301 0 2 0.666992 2 2l26 81c0 2.66699 -1 4 -3 4
h-158c-2.66699 0 -4 -1 -4 -3l-52 -168h-37l51 167c0.666992 0.666992 0.666992 1.5 0 2.5s-2 1.5 -4 1.5h-265c-0.666992 0 -1.66699 -0.666992 -3 -2l-26 -83c-2 -2 -0.333008 -3 5 -3h52l-91 -306h-52c-1.33301 0 -2 -0.666992 -2 -2l-133 -439
c-0.666992 -3.33301 0 -5 2 -5zM331 403.998c-1.33301 0 -2.33203 -0.166992 -2.99902 -0.5s-1.33398 -0.5 -2.00098 -0.5l-158 -357h-38l92 306h50c0.666992 0 1.66699 0.666992 3 2l109 357h49l-92 -307h-10zM435.001 399.998c0 2.66699 -1 4 -3 4h-7l40 138h38l-66 -217
c0 -2 1 -3 3 -3c22 0 39 -0.166992 51 -0.5s21 -0.5 27 -0.5s9.83301 -0.166992 11.5 -0.5s3.16699 -0.5 4.5 -0.5h2c8 0 12 -4.33301 12 -13v-4c0 -1.33301 -0.333008 -3.66602 -1 -6.99902v-4c0 -4.66699 -1.66699 -9.33398 -5 -14.001
c-5.33301 -18.667 -10 -30.167 -14 -34.5s-9.66699 -6.5 -17 -6.5h-103zM230.001 324.998l4.00098 2l39 -1c4 0 5.66699 -1 5 -3l-79 -159c0 -2 -0.666992 -3 -2 -3l-9 3c-2.66699 0 -4.33398 0.5 -5.00098 1.5s-0.666992 1.83301 0 2.5zM483.002 149.998
c6 0 10.334 -0.500977 13.001 -1.50098s4 -3.83301 4 -8.5c0 -3.33301 -0.833008 -8.5 -2.5 -15.5s-3.83398 -15.167 -6.50098 -24.5c-8 -23.333 -14.167 -38.166 -18.5 -44.499s-11.5 -9.5 -21.5 -9.5h-14l31 104h15zM311.003 121.997h-29l66 170z" />
    <glyph glyph-name="registered" unicode="&#xae;" horiz-adv-x="640" 
d="M126 378l88.999 0.000976562c2 0 3.66699 1 5 3c13.333 38 30.5 72.667 51.5 104s44.333 58.166 70 80.499s52.667 39.833 81 52.5s56.5 19 84.5 19c44 0 79.167 -15.833 105.5 -47.5s39.5 -74.167 39.5 -127.5c0 -11.333 -0.666992 -22.833 -2 -34.5
s-3.33301 -24.167 -6 -37.5c-1.33301 -4 0.333984 -6 5.00098 -6h89c3.33301 0 5 1.33301 5 4c8.66699 35.333 13 70 13 104c0 38 -5.5 72 -16.5 102s-26.5 55.167 -46.5 75.5s-43.667 36 -71 47s-57.333 16.5 -90 16.5c-39.333 0 -79.5 -8 -120.5 -24s-80 -39 -117 -69
s-70.667 -66.5 -101 -109.5s-54.5 -91.5 -72.5 -145.5zM340.999 77.001c-45.333 0 -80.8311 15.668 -106.498 47.001s-38.5 73.333 -38.5 126c0 11.333 0.5 23.333 1.5 36s3.16699 25.667 6.5 39c1.33301 4 -0.333984 6 -5.00098 6h-90c-3.33301 0 -5 -1.33301 -5 -4
c-8.66699 -35.333 -13 -70 -13 -104c0 -38 5.5 -72 16.5 -102s26.5 -55.333 46.5 -76s43.833 -36.334 71.5 -47.001s57.834 -16 90.501 -16h3c38 0 77.167 7.83301 117.5 23.5s78.833 38.334 115.5 68.001s70 65.5 100 107.5s54 89 72 141
c1.33301 4.66699 -0.333984 7 -5.00098 7h-89c-2.66699 0 -4.33398 -1 -5.00098 -3c-14 -36.667 -31.667 -70.334 -53 -101.001s-44.666 -57 -69.999 -79s-51.833 -39 -79.5 -51s-54.834 -18 -81.501 -18zM351.001 153.002l-3.99902 -0.000976562l90 343
c1.33301 2.66699 3 4 5 4h19c6.66699 0 11.667 -1.33301 15 -4s5 -7.66699 5 -15c0 -4 -0.5 -8.33301 -1.5 -13s-2.16699 -10.667 -3.5 -18c-5.33301 -18.667 -10.5 -31 -15.5 -37s-11.167 -9.33301 -18.5 -10l1 4l-5 -4h4l-15 -68c10 -3.33301 15 -9.66602 15 -18.999
c0 -2.66699 -0.666992 -5.33398 -2 -8.00098l1 1l-36 -143c-2 -3.33301 -3 -6.33301 -3 -9c0 -1.33301 0.333008 -2.66602 1 -3.99902h-4l5 -3c-0.666992 0.666992 -1 1.66699 -1 3h63c0 -2.66699 1 -5 3 -7l4 7h-7v2c0 4 0.666992 9 2 15s3.33301 14.333 6 25l24 93
c2.66699 8.66699 4.5 16.5 5.5 23.5s1.5 13.167 1.5 18.5c0 20 -8.33301 31.667 -25 35c-2.66699 0 -4 1.66699 -4 5v1c0 3.33301 1.33301 5 4 5c16.667 3.33301 29.167 11 37.5 23s14.166 24.333 17.499 37l14 50c3.33301 15.333 5 27 5 35c0 17.333 -6 29.333 -18 36
s-29.667 10 -53 10h-91l1 4l-5 -4h4l-108 -414h63l-1 -4zM278.002 153.001l5 -6l1 6h-6zM421.002 336.001l5 -6l1 5c-1.33301 0 -2.33301 0.166992 -3 0.5s-1.66699 0.5 -3 0.5z" />
    <glyph glyph-name="macron" unicode="&#xaf;" horiz-adv-x="268" 
d="M79 877l261 -1c1.33301 0 3 1 5 3l41 89c2 4.66699 0.333008 7 -5 7l-261 1c-1.33301 0 -3 -1 -5 -3l-41 -89c-1.33301 -2 -1.33301 -3.66699 0 -5s3 -2 5 -2z" />
    <glyph glyph-name="degree" unicode="&#xb0;" horiz-adv-x="294" 
d="M391 473l44 143.999c4 14 6 27 6 39c0 19.333 -5.16699 34.333 -15.5 45s-23.833 16 -40.5 16h-51c-20.667 0 -41 -8.33301 -61 -25s-35 -41 -45 -73l-44 -144c-4 -14 -6 -26.667 -6 -38c0 -20 5.16699 -35.333 15.5 -46s23.833 -16 40.5 -16h22c2 0 3.66699 1 5 3l25 75
c1.33301 4.66699 -0.333984 7 -5.00098 7c-8 0 -12 4.33301 -12 13c0 2.66699 0.333008 5 1 7l38 129v-1c2 6 5.83301 11.5 11.5 16.5s11.834 7.5 18.501 7.5c4.66699 0 8 -1.16699 10 -3.5s3 -5.16602 3 -8.49902c0 -2 -0.666992 -5 -2 -9l-38 -128
c-2 -8.66699 -8.33301 -15.667 -19 -21c-2 0 -3 -1 -3 -3l-26 -77c-1.33301 -4.66699 0.333984 -7 5.00098 -7h17c20.667 0 41.167 8.33301 61.5 25s35.166 41 44.499 73z" />
    <glyph glyph-name="plusminus" unicode="&#xb1;" horiz-adv-x="510" 
d="M130 501l-35.001 -112c-1.33301 -4 0.333984 -6 5.00098 -6h164l-58 -196c-1.33301 -4 0.333984 -6 5.00098 -6h96c2 0 3.66699 1.33301 5 4l59 198h167c2 0 3.66699 1.33301 5 4l35 112c1.33301 4 -0.333984 6 -5.00098 6h-168c-0.666992 0 -1.16699 0.166992 -1.5 0.5
s-0.833008 0.5 -1.5 0.5h-96c-0.666992 0 -1.16699 -0.166992 -1.5 -0.5s-0.833008 -0.5 -1.5 -0.5h-168c-2 0 -3.66699 -1.33301 -5 -4zM452.999 27l34 112c1.33301 4 -0.333984 6 -5.00098 6h-438c-2 0 -3.66699 -1.33301 -5 -4l-34 -112
c-1.33301 -4 0.333984 -6 5.00098 -6h438c2 0 3.66699 1.33301 5 4zM413.999 517l54 184c1.33301 4 -0.333984 6 -5.00098 6h-96c-2 0 -3.66699 -1.33301 -5 -4l-54 -184c-1.33301 -4 0.333984 -6 5.00098 -6h96c2 0 3.66699 1.33301 5 4z" />
    <glyph glyph-name="acute" unicode="&#xb4;" horiz-adv-x="174" 
d="M325 975l-157.002 -154c-1.33301 -1.33301 -1.66602 -3.16602 -0.999023 -5.49902s2.33398 -3.5 5.00098 -3.5l122 1l158 154c1.33301 1.33301 1.83301 3.16602 1.5 5.49902s-1.83301 3.5 -4.5 3.5h-120c-2 0 -3.33301 -0.333008 -4 -1z" />
    <glyph glyph-name="mu" unicode="&#xb5;" horiz-adv-x="341" 
d="M499 521h-112.999c-2.66699 0 -4.33398 -1 -5.00098 -3l-136 -374c-5.33301 -13.333 -11.666 -23.5 -18.999 -30.5s-14.666 -10.5 -21.999 -10.5c-6.66699 0 -10 3.66699 -10 11c0 6 2 14.667 6 26l136 374c1.33301 4.66699 -0.333984 7 -5.00098 7h-113
c-2.66699 0 -4.33398 -1 -5.00098 -3l-253 -695c-1.33301 -4.66699 0.333984 -7 5.00098 -7h113c2 0 3.66699 1 5 3l61 170c12 4 23.667 10.333 35 19s21.666 18.667 30.999 30l-13 -36c-1.33301 -4.66699 0.333984 -7 5.00098 -7h109c2 0 3.66699 1 5 3l188 516
c1.33301 4.66699 -0.333984 7 -5.00098 7z" />
    <glyph glyph-name="paragraph" unicode="&#xb6;" horiz-adv-x="496" 
d="M156 -178c-1.33301 -4 0.333008 -6 5 -6h89c2 0 3.66699 1.33301 5 4l161 534h45l-116 -389c-1.33301 -4 0.333984 -6 5.00098 -6h88c2 0 3.66699 1.33301 5 4l150 516c1.33301 4 -0.333984 6 -5.00098 6h-399c-3.33301 0 -5 -1.66699 -5 -5v-7
c0 -36 10.833 -64 32.5 -84s53.167 -30.667 94.5 -32zM625.999 591c1.33301 4 -0.333984 6 -5.00098 6h-400c-0.666992 0 -2 -1 -4 -3c-5.33301 -9.33301 -9.66602 -19 -12.999 -29l-10 -29v2c-0.666992 -1.33301 -1 -3.33301 -1 -6
c0 -0.666992 -0.166992 -1.16699 -0.5 -1.5s-0.5 -0.833008 -0.5 -1.5c0 -3.33301 1.66699 -5 5 -5h405c2 0 3.66699 1.33301 5 4zM261.999 645h376.001c2 0 3.66699 1.33301 5 4l19 64c1.33301 4 -0.333984 6 -5.00098 6h-219c-77.333 0 -137.333 -22 -180 -66z" />
    <glyph glyph-name="periodcentered" unicode="&#xb7;" horiz-adv-x="181" 
d="M284 439h-110c-2 0 -3.66699 -1.33301 -5 -4l-39 -130c-1.33301 -4 0.333984 -6 5.00098 -6h110c2 0 3.66699 1.33301 5 4l39 130c1.33301 4 -0.333984 6 -5.00098 6z" />
    <glyph glyph-name="periodcentered" unicode="&#x2219;" horiz-adv-x="181" 
d="M284 439h-110c-2 0 -3.66699 -1.33301 -5 -4l-39 -130c-1.33301 -4 0.333984 -6 5.00098 -6h110c2 0 3.66699 1.33301 5 4l39 130c1.33301 4 -0.333984 6 -5.00098 6z" />
    <glyph glyph-name="cedilla" unicode="&#xb8;" horiz-adv-x="178" 
d="M73 3l-76.001 -87c-2 -2 -2.33301 -3.66699 -1 -5l8 -17c1.33301 -3.33301 3.33301 -4.33301 6 -3c2.66699 0.666992 4.33398 1 5.00098 1c10 2.66699 18.667 4 26 4c14 0 21 -5 21 -15c0 -4.66699 -1.33301 -10 -4 -16c-4.66699 -11.333 -12 -20 -22 -26
s-19.667 -9 -29 -9c-14.667 0 -29.667 4.33301 -45 13c-3.33301 2 -5.66602 1.66699 -6.99902 -1l-27 -39c-1.33301 -2.66699 -1 -5 1 -7c16 -13.333 40.333 -20 73 -20c29.333 0 56 7.83301 80 23.5s41 37.167 51 64.5c2.66699 6.66699 4.5 13.334 5.5 20.001
s1.5 12.667 1.5 18c0 15.333 -4 27.166 -12 35.499s-19.667 12.5 -35 12.5h-17l45 47c1.33301 1.33301 1.66602 3 0.999023 5s-2.33398 3 -5.00098 3h-40c-1.33301 0 -2.66602 -0.666992 -3.99902 -2z" />
    <glyph glyph-name="guillemotright" unicode="&#xbb;" horiz-adv-x="326" 
d="M371 388l-83.001 -0.00195312c-4.66699 0 -6.33398 -2 -5.00098 -6l31 -122l-121 -123c-1.33301 -1.33301 -1.66602 -3.16602 -0.999023 -5.49902s2.33398 -3.5 5.00098 -3.5h83c2 0 3.33301 0.333008 4 1l124 125c0.666992 0.666992 1 2.33398 1 5.00098l-33 125
c-1.33301 2.66699 -3 4 -5 4zM237.999 387.998l-83.001 -0.00195312c-4.66699 0 -6.33398 -2 -5.00098 -6l32 -122l-122 -123c-1.33301 -1.33301 -1.66602 -3.16602 -0.999023 -5.49902s2.33398 -3.5 5.00098 -3.5h83c2 0 3.33301 0.333008 4 1l124 125
c0.666992 0.666992 1 2.33398 1 5.00098l-33 125c-1.33301 2.66699 -3 4 -5 4z" />
    <glyph glyph-name="questiondown" unicode="&#xbf;" horiz-adv-x="334" 
d="M306 290l-110.999 0.00292969c-2 0 -3.66699 -1.33301 -5 -4l-17 -56c-8 -26.667 -18.833 -47.334 -32.5 -62.001s-28.5 -29 -44.5 -43c-1.33301 -1.33301 -2.83301 -2.66602 -4.5 -3.99902s-3.16699 -2.66602 -4.5 -3.99902h1c-8.66699 -8 -17.5 -17 -26.5 -27
s-18 -21.5 -27 -34.5s-17.667 -28.167 -26 -45.5s-16.166 -38 -23.499 -62c-8.66699 -28.667 -13 -55 -13 -79c0 -67.333 37.667 -101 113 -101c24.667 0 47.334 3 68.001 9s39.167 15.667 55.5 29s31 31.166 44 53.499s24.167 49.5 33.5 81.5v-1l19 60
c1.33301 4.66699 -0.333984 7 -5.00098 7h-111c-2 0 -3.66699 -1.33301 -5 -4l-13 -45v1c-8 -26 -16 -44 -24 -54s-16 -15 -24 -15c-8.66699 0 -13 6.33301 -13 19c0 10.667 3.33301 26 10 46c7.33301 25.333 18 46.666 32 63.999s29.333 33.666 46 48.999
c17.333 16.667 33.666 33.667 48.999 51s27 38.666 35 63.999l29 101c1.33301 4 -0.333984 6 -5.00098 6zM221.001 366.003h111c2 0 3.66699 1.33301 5 4l39 130c1.33301 4 -0.333984 6 -5.00098 6h-111c-2 0 -3.66699 -1.33301 -5 -4l-39 -130
c-1.33301 -4 0.333984 -6 5.00098 -6z" />
    <glyph glyph-name="Agrave" unicode="&#xc0;" 
d="M3 -5h129.999c2 0 3.66699 1 5 3l49 123h76l-22 -120c-1.33301 -4 0.333984 -6 5.00098 -6h128c3.33301 0 5 1.33301 5 4l112 714c0 4 -1.66699 6 -5 6h-165c-1.33301 0 -3 -1 -5 -3l-318 -714c-1.33301 -2 -1.33301 -3.66699 0 -5s3 -2 5 -2zM402.999 975
c-0.666992 0.666992 -2 1 -4 1h-120c-2.66699 0 -4.33398 -1.16699 -5.00098 -3.5s-0.333984 -4.16602 0.999023 -5.49902l154 -154c0.666992 -0.666992 2 -1 4 -1h121c2.66699 0 4.33398 1.16699 5.00098 3.5s0.333984 4.16602 -0.999023 5.49902zM290.999 261h-48l108 275
z" />
    <glyph glyph-name="Aacute" unicode="&#xc1;" 
d="M3 -5h129.999c2 0 3.66699 1 5 3l49 123h76l-22 -120c-1.33301 -4 0.333984 -6 5.00098 -6h128c3.33301 0 5 1.33301 5 4l112 714c0 4 -1.66699 6 -5 6h-165c-1.33301 0 -3 -1 -5 -3l-318 -714c-1.33301 -2 -1.33301 -3.66699 0 -5s3 -2 5 -2zM436.999 975l-157.002 -154
c-1.33301 -1.33301 -1.66602 -3.16602 -0.999023 -5.49902s2.33398 -3.5 5.00098 -3.5l122 1l158 154c1.33301 1.33301 1.83301 3.16602 1.5 5.49902s-1.83301 3.5 -4.5 3.5h-120c-2 0 -3.33301 -0.333008 -4 -1zM290.997 261h-48l108 275z" />
    <glyph glyph-name="Acircumflex" unicode="&#xc2;" 
d="M3 -5h129.999c2 0 3.66699 1 5 3l49 123h76l-22 -120c-1.33301 -4 0.333984 -6 5.00098 -6h128c3.33301 0 5 1.33301 5 4l112 714c0 4 -1.66699 6 -5 6h-165c-1.33301 0 -3 -1 -5 -3l-318 -714c-1.33301 -2 -1.33301 -3.66699 0 -5s3 -2 5 -2zM249.999 764h94
c1.33301 0 2.66602 0.666992 3.99902 2l103 158l20 -146c0 -2.66699 1.66699 -4 5 -4h93c3.33301 0 5 2 5 6l-37 270c0 2.66699 -1.66699 4 -5 4h-85c-1.33301 0 -2.66602 -0.666992 -3.99902 -2l-197 -280c-1.33301 -2 -1.5 -3.83301 -0.5 -5.5s2.5 -2.5 4.5 -2.5z
M290.999 261h-48l108 275z" />
    <glyph glyph-name="Atilde" unicode="&#xc3;" 
d="M3 -5h129.999c2 0 3.66699 1 5 3l49 123h76l-22 -120c-1.33301 -4 0.333984 -6 5.00098 -6h128c3.33301 0 5 1.33301 5 4l112 714c0 4 -1.66699 6 -5 6h-165c-1.33301 0 -3 -1 -5 -3l-318 -714c-1.33301 -2 -1.33301 -3.66699 0 -5s3 -2 5 -2zM557.999 858l3.00293 70
c0 2.66699 -1.16699 4.33398 -3.5 5.00098s-4.16602 0 -5.49902 -2c-14.667 -16.667 -27.334 -29.5 -38.001 -38.5s-20.667 -13.5 -30 -13.5c-5.33301 0 -10.833 1.66699 -16.5 5s-12.834 8 -21.501 14l-10 7c-11.333 8 -22 14.167 -32 18.5s-20 6.5 -30 6.5
c-19.333 0 -37.5 -6.16699 -54.5 -18.5s-32.833 -28.833 -47.5 -49.5l-3 -69c0 -2.66699 1.16699 -4.33398 3.5 -5.00098s4.16602 0 5.49902 2c14.667 16.667 27.167 29.5 37.5 38.5s20.166 13.5 29.499 13.5c8.66699 0 21.667 -6.33301 39 -19l10 -7
c11.333 -8 22 -14.167 32 -18.5s19.667 -6.5 29 -6.5c19.333 0 37.5 6.16699 54.5 18.5s33.167 28.5 48.5 48.5zM291.002 261h-48l108 275z" />
    <glyph glyph-name="Adieresis" unicode="&#xc4;" 
d="M3 -5h129.999c2 0 3.66699 1 5 3l49 123h76l-22 -120c-1.33301 -4 0.333984 -6 5.00098 -6h128c3.33301 0 5 1.33301 5 4l112 714c0 4 -1.66699 6 -5 6h-165c-1.33301 0 -3 -1 -5 -3l-318 -714c-1.33301 -2 -1.33301 -3.66699 0 -5s3 -2 5 -2zM606.999 972h-110
c-2 0 -3.66699 -1.33301 -5 -4l-39 -130c-1.33301 -4 0.333984 -6 5.00098 -6h110c2 0 3.66699 1.33301 5 4l39 130c1.33301 4 -0.333984 6 -5.00098 6zM408.999 973h-110c-2 0 -3.66699 -1.33301 -5 -4l-39 -130c-1.33301 -4 0.333984 -6 5.00098 -6h110
c2 0 3.66699 1.33301 5 4l39 130c1.33301 4 -0.333984 6 -5.00098 6zM290.999 261h-48l108 275z" />
    <glyph glyph-name="Aring" unicode="&#xc5;" 
d="M539 808l43.999 144c4 14 6 27 6 39c0 19.333 -5.16699 34.333 -15.5 45s-23.833 16 -40.5 16h-51c-20.667 0 -41 -8.33301 -61 -25s-35 -41 -45 -73l-44 -144c-4 -14 -6 -26.667 -6 -38c0 -24.667 8 -42.334 24 -53.001h-29c-1.33301 0 -3 -1 -5 -3l-318 -714
c-1.33301 -2 -1.33301 -3.66699 0 -5s3 -2 5 -2h130c2 0 3.66699 1 5 3l49 123h76l-22 -120c-1.33301 -4 0.333984 -6 5.00098 -6h128c3.33301 0 5 1.33301 5 4l112 714c0 4 -1.66699 6 -5 6h-16c14.667 7.33301 28.167 18.333 40.5 33s21.833 33.334 28.5 56.001z
M410.999 719l23 68.999c1.33301 4.66699 -0.333984 7 -5.00098 7c-8 0 -12 4.33301 -12 13c0 2.66699 0.333008 5 1 7l38 129v-1c2 6 5.83301 11.5 11.5 16.5s11.834 7.5 18.501 7.5c4.66699 0 8 -1.16699 10 -3.5s3 -5.16602 3 -8.49902c0 -2 -0.666992 -5 -2 -9l-38 -128
c-2 -8.66699 -8.33301 -15.667 -19 -21c-2 0 -3 -1 -3 -3zM290.999 260.999h-48l108 275z" />
    <glyph glyph-name="AE" unicode="&#xc6;" horiz-adv-x="504" 
d="M239 -5h238.003c2 0 3.66699 1.33301 5 4l37 130c1.33301 4 -0.333984 6 -5.00098 6h-117l49 168h113c2 0 3.66699 1.33301 5 4l36 130c1.33301 4 -0.333984 6 -5.00098 6h-111l39 136h119c2 0 3.66699 1.33301 5 4l37 130c1.33301 4 -0.333984 6 -5.00098 6h-316
c-0.666992 0 -2 -1 -4 -3l-361 -714c-2.66699 -4.66699 -1.33398 -7 3.99902 -7h121c1.33301 0 3 1 5 3l58 122h81l-33 -119c-1.33301 -4 0.333984 -6 5.00098 -6zM305.003 260h-55l140 297z" />
    <glyph glyph-name="Ccedilla" unicode="&#xc7;" horiz-adv-x="362" 
d="M193 561l-122.003 -405.999c-10 -32 -15 -59.333 -15 -82c0 -48 24.667 -77 74 -87l-46 -53c-2 -2 -2.33301 -3.66699 -1 -5l8 -17c1.33301 -3.33301 3.33301 -4.33301 6 -3c2.66699 0.666992 4.33398 1 5.00098 1c10 2.66699 18.667 4 26 4c14 0 21 -5 21 -15
c0 -4.66699 -1.33301 -10 -4 -16c-4.66699 -11.333 -12 -20 -22 -26s-19.667 -9 -29 -9c-14.667 0 -29.667 4.33301 -45 13c-3.33301 2 -5.66602 1.66699 -6.99902 -1l-27 -39c-1.33301 -2.66699 -1 -5 1 -7c16 -13.333 40.333 -20 73 -20c29.333 0 56 7.83301 80 23.5
s41 37.167 51 64.5c2.66699 6.66699 4.5 13.334 5.5 20.001s1.5 12.667 1.5 18c0 15.333 -4 27.166 -12 35.499s-19.667 12.5 -35 12.5h-17l14 14h16c2 0 4 0.166992 6 0.5s4 0.5 6 0.5s3.66699 1.33301 5 4l37 135c0.666992 2.66699 0.166992 4.5 -1.5 5.5
s-3.5 0.833008 -5.5 -0.5c-6.66699 -3.33301 -13.334 -5 -20.001 -5c-12 0 -18 5.33301 -18 16c0 5.33301 1.66699 14.666 5 27.999l115 382c5.33301 18 11.5 30.167 18.5 36.5s15.167 9.5 24.5 9.5c5.33301 0 10 -1.5 14 -4.5s6 -7.16699 6 -12.5
c0 -0.666992 -0.666992 -3.66699 -2 -9l-31 -107c-1.33301 -4 0.333984 -6 5.00098 -6h124c2 0 3.66699 1.33301 5 4l30 101c9.33301 32 14 58.667 14 80c0 32.667 -10.167 56.5 -30.5 71.5s-52.166 22.5 -95.499 22.5c-57.333 0 -102.5 -13.5 -135.5 -40.5
s-58.167 -70.833 -75.5 -131.5z" />
    <glyph glyph-name="Egrave" unicode="&#xc8;" horiz-adv-x="314" 
d="M257 713l-4.99805 -4h4l-212 -704h244l-1 -4l5 4h-4l36 120h-124c-4.66699 0 -6.33398 2 -5.00098 6l53 178c1.33301 2.66699 3 4 5 4h121l-1 -4l5 4h-4l37 120h-118c-4.66699 0 -6.33398 2 -5.00098 6l43 146c1.33301 2.66699 3 4 5 4h127l37 120h-244zM390.002 975
c-0.666992 0.666992 -2 1 -4 1h-120c-2.66699 0 -4.33398 -1.16699 -5.00098 -3.5s-0.333984 -4.16602 0.999023 -5.49902l154 -154c0.666992 -0.666992 2 -1 4 -1h121c2.66699 0 4.33398 1.16699 5.00098 3.5s0.333984 4.16602 -0.999023 5.49902zM507.002 709l-5 6l-2 -6
h7zM42.002 -1l2 6h-7zM418.002 433l-5 6l-2 -6h7zM331.002 125l-5 6l-2 -6h7zM467.002 589h-4l-1 -4z" />
    <glyph glyph-name="Eacute" unicode="&#xc9;" horiz-adv-x="314" 
d="M247 715l-214.998 -714c-1.33301 -4 0.333984 -6 5.00098 -6h255c2 0 3.66699 1.33301 5 4l39 130c1.33301 4 -0.333984 6 -5.00098 6h-124l50 168h121c2 0 3.66699 1.33301 5 4l40 130c1.33301 4 -0.333984 6 -5.00098 6h-118l40 136h127c2 0 3.66699 1.33301 5 4
l40 130c1.33301 4 -0.333984 6 -5.00098 6h-255c-2 0 -3.66699 -1.33301 -5 -4zM436.002 975l-157.002 -154c-1.33301 -1.33301 -1.66602 -3.16602 -0.999023 -5.49902s2.33398 -3.5 5.00098 -3.5l122 1l158 154c1.33301 1.33301 1.83301 3.16602 1.5 5.49902
s-1.83301 3.5 -4.5 3.5h-120c-2 0 -3.33301 -0.333008 -4 -1z" />
    <glyph glyph-name="Ecircumflex" unicode="&#xca;" horiz-adv-x="314" 
d="M247 715l-214.998 -714c-1.33301 -4 0.333984 -6 5.00098 -6h255c2 0 3.66699 1.33301 5 4l39 130c1.33301 4 -0.333984 6 -5.00098 6h-124l50 168h121c2 0 3.66699 1.33301 5 4l40 130c1.33301 4 -0.333984 6 -5.00098 6h-118l40 136h127c2 0 3.66699 1.33301 5 4
l40 130c1.33301 4 -0.333984 6 -5.00098 6h-255c-2 0 -3.66699 -1.33301 -5 -4zM227.002 765h94c1.33301 0 2.66602 0.666992 3.99902 2l103 158l20 -146c0 -2.66699 1.66699 -4 5 -4h93c3.33301 0 5 2 5 6l-37 270c0 2.66699 -1.66699 4 -5 4h-85
c-1.33301 0 -2.66602 -0.666992 -3.99902 -2l-197 -280c-1.33301 -2 -1.5 -3.83301 -0.5 -5.5s2.5 -2.5 4.5 -2.5z" />
    <glyph glyph-name="Edieresis" unicode="&#xcb;" horiz-adv-x="314" 
d="M247 715l-214.998 -714c-1.33301 -4 0.333984 -6 5.00098 -6h255c2 0 3.66699 1.33301 5 4l39 130c1.33301 4 -0.333984 6 -5.00098 6h-124l50 168h121c2 0 3.66699 1.33301 5 4l40 130c1.33301 4 -0.333984 6 -5.00098 6h-118l40 136h127c2 0 3.66699 1.33301 5 4
l40 130c1.33301 4 -0.333984 6 -5.00098 6h-255c-2 0 -3.66699 -1.33301 -5 -4zM592.002 974h-110c-2 0 -3.66699 -1.33301 -5 -4l-39 -130c-1.33301 -4 0.333984 -6 5.00098 -6h110c2 0 3.66699 1.33301 5 4l39 130c1.33301 4 -0.333984 6 -5.00098 6zM394.002 975h-110
c-2 0 -3.66699 -1.33301 -5 -4l-39 -130c-1.33301 -4 0.333984 -6 5.00098 -6h110c2 0 3.66699 1.33301 5 4l39 130c1.33301 4 -0.333984 6 -5.00098 6z" />
    <glyph glyph-name="Igrave" unicode="&#xcc;" horiz-adv-x="205" 
d="M41 -5h124c2 0 3.66699 1.33301 5 4l215 714c1.33301 4 -0.333984 6 -5.00098 6h-124c-2 0 -3.66699 -1.33301 -5 -4l-215 -714c-1.33301 -4 0.333984 -6 5.00098 -6zM336 975c-0.666992 0.666992 -2 1 -4 1h-120c-2.66699 0 -4.33398 -1.16699 -5.00098 -3.5
s-0.333984 -4.16602 0.999023 -5.49902l154 -154c0.666992 -0.666992 2 -1 4 -1h121c2.66699 0 4.33398 1.16699 5.00098 3.5s0.333984 4.16602 -0.999023 5.49902z" />
    <glyph glyph-name="Iacute" unicode="&#xcd;" horiz-adv-x="205" 
d="M41 -5h124c2 0 3.66699 1.33301 5 4l215 714c1.33301 4 -0.333984 6 -5.00098 6h-124c-2 0 -3.66699 -1.33301 -5 -4l-215 -714c-1.33301 -4 0.333984 -6 5.00098 -6zM370 975l-157.002 -154c-1.33301 -1.33301 -1.66602 -3.16602 -0.999023 -5.49902
s2.33398 -3.5 5.00098 -3.5l122 1l158 154c1.33301 1.33301 1.83301 3.16602 1.5 5.49902s-1.83301 3.5 -4.5 3.5h-120c-2 0 -3.33301 -0.333008 -4 -1z" />
    <glyph glyph-name="Icircumflex" unicode="&#xce;" horiz-adv-x="205" 
d="M41 -5h124c2 0 3.66699 1.33301 5 4l215 714c1.33301 4 -0.333984 6 -5.00098 6h-124c-2 0 -3.66699 -1.33301 -5 -4l-215 -714c-1.33301 -4 0.333984 -6 5.00098 -6zM168 765h94c1.33301 0 2.66602 0.666992 3.99902 2l103 158l20 -146c0 -2.66699 1.66699 -4 5 -4h93
c3.33301 0 5 2 5 6l-37 270c0 2.66699 -1.66699 4 -5 4h-85c-1.33301 0 -2.66602 -0.666992 -3.99902 -2l-197 -280c-1.33301 -2 -1.5 -3.83301 -0.5 -5.5s2.5 -2.5 4.5 -2.5z" />
    <glyph glyph-name="Idieresis" unicode="&#xcf;" horiz-adv-x="205" 
d="M41 -5h124c2 0 3.66699 1.33301 5 4l215 714c1.33301 4 -0.333984 6 -5.00098 6h-124c-2 0 -3.66699 -1.33301 -5 -4l-215 -714c-1.33301 -4 0.333984 -6 5.00098 -6zM328 975h-110c-2 0 -3.66699 -1.33301 -5 -4l-39 -130c-1.33301 -4 0.333984 -6 5.00098 -6h110
c2 0 3.66699 1.33301 5 4l39 130c1.33301 4 -0.333984 6 -5.00098 6zM526 974h-110c-2 0 -3.66699 -1.33301 -5 -4l-39 -130c-1.33301 -4 0.333984 -6 5.00098 -6h110c2 0 3.66699 1.33301 5 4l39 130c1.33301 4 -0.333984 6 -5.00098 6z" />
    <glyph glyph-name="Eth" unicode="&#xd0;" 
d="M215 580l142.998 -0.999023c18 0 27 -6.33301 27 -19c0 -4.66699 -0.333008 -8.33398 -1 -11.001c-1.33301 -11.333 -4.16602 -24.833 -8.49902 -40.5s-11.166 -37.5 -20.499 -65.5l-31 -98.5c-12.667 -39.667 -27.667 -90.167 -45 -151.5v1
c-6.66699 -19.333 -12.834 -33.333 -18.501 -42s-12.5 -14 -20.5 -16c-2.66699 0 -4 -1 -4 -3l-51 -131c-1.33301 -4.66699 0.333984 -7 5.00098 -7c28 0 53 2.5 75 7.5s41.667 14 59 27s32.666 30.667 45.999 53s25.333 50.5 36 84.5l113 378
c5.33301 17.333 9.33301 33 12 47s4 26.667 4 38c0 34.667 -11.167 58.167 -33.5 70.5s-54.5 18.5 -96.5 18.5h-153c-2 0 -3.66699 -1.33301 -5 -4l-37 -129c-1.33301 -4 0.333984 -6 5.00098 -6zM61.998 313.001h196c2 0 3.66699 1.33301 5 4l36 120
c1.33301 4 -0.333984 6 -5.00098 6h-196c-2 0 -3.66699 -1.33301 -5 -4l-36 -120c-1.33301 -4 0.333984 -6 5.00098 -6z" />
    <glyph glyph-name="Ntilde" unicode="&#xd1;" horiz-adv-x="456" 
d="M372 251l43 463c0 3.33301 -1.66699 5 -5 5h-158c-2 0 -3.66699 -1.33301 -5 -4l-215 -714c-1.33301 -4 0.333984 -6 5.00098 -6h118c2 0 3.66699 1.33301 5 4l137 456l-39 -455c0 -3.33301 1.66699 -5 5 -5h156c2 0 3.66699 1.33301 5 4l215 714
c1.33301 4 -0.333984 6 -5.00098 6h-117c-2 0 -3.66699 -1.33301 -5 -4zM591 859l3.00293 70c0 2.66699 -1.16699 4.33398 -3.5 5.00098s-4.16602 0 -5.49902 -2c-14.667 -16.667 -27.334 -29.5 -38.001 -38.5s-20.667 -13.5 -30 -13.5c-5.33301 0 -10.833 1.66699 -16.5 5
s-12.834 8 -21.501 14l-10 7c-11.333 8 -22 14.167 -32 18.5s-20 6.5 -30 6.5c-19.333 0 -37.5 -6.16699 -54.5 -18.5s-32.833 -28.833 -47.5 -49.5l-3 -69c0 -2.66699 1.16699 -4.33398 3.5 -5.00098s4.16602 0 5.49902 2c14.667 16.667 27.167 29.5 37.5 38.5
s20.166 13.5 29.499 13.5c8.66699 0 21.667 -6.33301 39 -19l10 -7c11.333 -8 22 -14.167 32 -18.5s19.667 -6.5 29 -6.5c19.333 0 37.5 6.16699 54.5 18.5s33.167 28.5 48.5 48.5z" />
    <glyph glyph-name="Ograve" unicode="&#xd2;" 
d="M193 561l-122 -406c-5.33301 -17.333 -9.33301 -33 -12 -47s-4 -26.667 -4 -38c0 -34.667 11.167 -58.167 33.5 -70.5s54.5 -18.5 96.5 -18.5c27.333 0 52 2.5 74 7.5s41.667 14 59 27s32.666 30.667 45.999 53s25.333 50.5 36 84.5l122 406c10 34 15 62.333 15 85
c0 34.667 -11 58.167 -33 70.5s-54 18.5 -96 18.5c-28 0 -52.833 -2.5 -74.5 -7.5s-41.167 -14 -58.5 -27s-32.666 -30.667 -45.999 -53s-25.333 -50.5 -36 -84.5zM205 154l122 404.001c5.33301 23.333 19.333 35 42 35c14.667 0 22 -5.33301 22 -16
c0 -4.66699 -1 -10.334 -3 -17.001l-122 -404v1c-4.66699 -13.333 -10 -22.666 -16 -27.999s-14.667 -8 -26 -8c-15.333 0 -23 5 -23 15c0 1.33301 0.333008 3.66602 1 6.99902s1.66699 7 3 11zM402 973.001c-0.666992 0.666992 -2 1 -4 1h-120
c-2.66699 0 -4.33398 -1.16699 -5.00098 -3.5s-0.333984 -4.16602 0.999023 -5.49902l154 -154c0.666992 -0.666992 2 -1 4 -1h121c2.66699 0 4.33398 1.16699 5.00098 3.5s0.333984 4.16602 -0.999023 5.49902z" />
    <glyph glyph-name="Oacute" unicode="&#xd3;" 
d="M193 561l-122 -406c-5.33301 -17.333 -9.33301 -33 -12 -47s-4 -26.667 -4 -38c0 -34.667 11.167 -58.167 33.5 -70.5s54.5 -18.5 96.5 -18.5c27.333 0 52 2.5 74 7.5s41.667 14 59 27s32.666 30.667 45.999 53s25.333 50.5 36 84.5l122 406c10 34 15 62.333 15 85
c0 34.667 -11 58.167 -33 70.5s-54 18.5 -96 18.5c-28 0 -52.833 -2.5 -74.5 -7.5s-41.167 -14 -58.5 -27s-32.666 -30.667 -45.999 -53s-25.333 -50.5 -36 -84.5zM205 154l122 404.001c5.33301 23.333 19.333 35 42 35c14.667 0 22 -5.33301 22 -16
c0 -4.66699 -1 -10.334 -3 -17.001l-122 -404v1c-4.66699 -13.333 -10 -22.666 -16 -27.999s-14.667 -8 -26 -8c-15.333 0 -23 5 -23 15c0 1.33301 0.333008 3.66602 1 6.99902s1.66699 7 3 11zM459 975.001l-157.002 -154
c-1.33301 -1.33301 -1.66602 -3.16602 -0.999023 -5.49902s2.33398 -3.5 5.00098 -3.5l122 1l158 154c1.33301 1.33301 1.83301 3.16602 1.5 5.49902s-1.83301 3.5 -4.5 3.5h-120c-2 0 -3.33301 -0.333008 -4 -1z" />
    <glyph glyph-name="Ocircumflex" unicode="&#xd4;" 
d="M193 561l-122 -406c-5.33301 -17.333 -9.33301 -33 -12 -47s-4 -26.667 -4 -38c0 -34.667 11.167 -58.167 33.5 -70.5s54.5 -18.5 96.5 -18.5c27.333 0 52 2.5 74 7.5s41.667 14 59 27s32.666 30.667 45.999 53s25.333 50.5 36 84.5l122 406c10 34 15 62.333 15 85
c0 34.667 -11 58.167 -33 70.5s-54 18.5 -96 18.5c-28 0 -52.833 -2.5 -74.5 -7.5s-41.167 -14 -58.5 -27s-32.666 -30.667 -45.999 -53s-25.333 -50.5 -36 -84.5zM250 765h94c1.33301 0 2.66602 0.666992 3.99902 2l103 158l20 -146c0 -2.66699 1.66699 -4 5 -4h93
c3.33301 0 5 2 5 6l-37 270c0 2.66699 -1.66699 4 -5 4h-85c-1.33301 0 -2.66602 -0.666992 -3.99902 -2l-197 -280c-1.33301 -2 -1.5 -3.83301 -0.5 -5.5s2.5 -2.5 4.5 -2.5zM205 154l122 404.001c5.33301 23.333 19.333 35 42 35c14.667 0 22 -5.33301 22 -16
c0 -4.66699 -1 -10.334 -3 -17.001l-122 -404v1c-4.66699 -13.333 -10 -22.666 -16 -27.999s-14.667 -8 -26 -8c-15.333 0 -23 5 -23 15c0 1.33301 0.333008 3.66602 1 6.99902s1.66699 7 3 11z" />
    <glyph glyph-name="Otilde" unicode="&#xd5;" 
d="M193 561l-122 -406c-5.33301 -17.333 -9.33301 -33 -12 -47s-4 -26.667 -4 -38c0 -34.667 11.167 -58.167 33.5 -70.5s54.5 -18.5 96.5 -18.5c27.333 0 52 2.5 74 7.5s41.667 14 59 27s32.666 30.667 45.999 53s25.333 50.5 36 84.5l122 406c10 34 15 62.333 15 85
c0 34.667 -11 58.167 -33 70.5s-54 18.5 -96 18.5c-28 0 -52.833 -2.5 -74.5 -7.5s-41.167 -14 -58.5 -27s-32.666 -30.667 -45.999 -53s-25.333 -50.5 -36 -84.5zM205 154l122 404.001c5.33301 23.333 19.333 35 42 35c14.667 0 22 -5.33301 22 -16
c0 -4.66699 -1 -10.334 -3 -17.001l-122 -404v1c-4.66699 -13.333 -10 -22.666 -16 -27.999s-14.667 -8 -26 -8c-15.333 0 -23 5 -23 15c0 1.33301 0.333008 3.66602 1 6.99902s1.66699 7 3 11zM559 859.001l3.00293 70c0 2.66699 -1.16699 4.33398 -3.5 5.00098
s-4.16602 0 -5.49902 -2c-14.667 -16.667 -27.334 -29.5 -38.001 -38.5s-20.667 -13.5 -30 -13.5c-5.33301 0 -10.833 1.66699 -16.5 5s-12.834 8 -21.501 14l-10 7c-11.333 8 -22 14.167 -32 18.5s-20 6.5 -30 6.5c-19.333 0 -37.5 -6.16699 -54.5 -18.5
s-32.833 -28.833 -47.5 -49.5l-3 -69c0 -2.66699 1.16699 -4.33398 3.5 -5.00098s4.16602 0 5.49902 2c14.667 16.667 27.167 29.5 37.5 38.5s20.166 13.5 29.499 13.5c8.66699 0 21.667 -6.33301 39 -19l10 -7c11.333 -8 22 -14.167 32 -18.5s19.667 -6.5 29 -6.5
c19.333 0 37.5 6.16699 54.5 18.5s33.167 28.5 48.5 48.5z" />
    <glyph glyph-name="Odieresis" unicode="&#xd6;" 
d="M193 561l-122 -406c-5.33301 -17.333 -9.33301 -33 -12 -47s-4 -26.667 -4 -38c0 -34.667 11.167 -58.167 33.5 -70.5s54.5 -18.5 96.5 -18.5c27.333 0 52 2.5 74 7.5s41.667 14 59 27s32.666 30.667 45.999 53s25.333 50.5 36 84.5l122 406c10 34 15 62.333 15 85
c0 34.667 -11 58.167 -33 70.5s-54 18.5 -96 18.5c-28 0 -52.833 -2.5 -74.5 -7.5s-41.167 -14 -58.5 -27s-32.666 -30.667 -45.999 -53s-25.333 -50.5 -36 -84.5zM205 154l122 404.001c5.33301 23.333 19.333 35 42 35c14.667 0 22 -5.33301 22 -16
c0 -4.66699 -1 -10.334 -3 -17.001l-122 -404v1c-4.66699 -13.333 -10 -22.666 -16 -27.999s-14.667 -8 -26 -8c-15.333 0 -23 5 -23 15c0 1.33301 0.333008 3.66602 1 6.99902s1.66699 7 3 11zM420 974.001h-110c-2 0 -3.66699 -1.33301 -5 -4l-39 -130
c-1.33301 -4 0.333984 -6 5.00098 -6h110c2 0 3.66699 1.33301 5 4l39 130c1.33301 4 -0.333984 6 -5.00098 6zM618 973.001h-110c-2 0 -3.66699 -1.33301 -5 -4l-39 -130c-1.33301 -4 0.333984 -6 5.00098 -6h110c2 0 3.66699 1.33301 5 4l39 130
c1.33301 4 -0.333984 6 -5.00098 6z" />
    <glyph glyph-name="multiply" unicode="&#xd7;" horiz-adv-x="480" 
d="M334 105c1.33301 -4 4 -4.66699 8 -2l87 77c2 2 2.66699 4 2 6l-30 74l208 176c2 2 2.66699 4 2 6l-32 76c-1.33301 4 -4 4.66699 -8 2l-207 -178l-77 176c-1.33301 4 -4 4.66699 -8 2l-88 -76c-2 -2 -2.66699 -4 -2 -6l78 -179l-208 -179c-2 -2 -2.66699 -4 -2 -6
l32 -76c1.33301 -4 4 -4.66699 8 -2l207 177zM381 -2c1.33301 -4 4 -4.66699 8 -2l88 76c2 2 2.66699 4 2 6l-35 82c-1.33301 4 -4 4.66699 -8 2l-88 -79c-2 -2 -2.66699 -4 -2 -6z" />
    <glyph glyph-name="Oslash" unicode="&#xd8;" 
d="M454 807c1.33301 4 -0.333984 6 -5.00098 6h-30c-2 0 -3.66699 -1.33301 -5 -4l-24 -76c-25.333 -1.33301 -48 -4.83301 -68 -10.5s-38 -15.167 -54 -28.5s-30 -30.833 -42 -52.5s-23 -48.5 -33 -80.5l-122 -406v1c-10.667 -32.667 -16 -61.334 -16 -86.001
c0 -31.333 9 -53.5 27 -66.5s44.667 -20.167 80 -21.5l-28 -93c-1.33301 -4 0.333984 -6 5.00098 -6h29c2 0 3.66699 1.33301 5 4l29 94c24.667 0.666992 47 4 67 10s38 15.5 54 28.5s30.333 30.333 43 52s24 48.834 34 81.501l122 406c10 34 15 62.333 15 85
c0 32 -9.16699 54.333 -27.5 67s-44.5 19.667 -78.5 21zM205 154l122 403.999c4 16 10.667 26.333 20 31l-141 -465c-3.33301 2.66699 -5 6.33398 -5 11.001s1.33301 10.667 4 18v1zM391 576.999c0 -4.66699 -1 -10.333 -3 -17l-122 -404v1c-6 -16 -12.667 -26.333 -20 -31
l141 462c2.66699 -4 4 -7.66699 4 -11z" />
    <glyph glyph-name="Ugrave" unicode="&#xd9;" 
d="M400 153l168.002 560c1.33301 4 -0.333984 6 -5.00098 6h-124c-2 0 -3.66699 -1.33301 -5 -4l-162 -538c-7.33301 -23.333 -14.333 -38.5 -21 -45.5s-15.667 -10.5 -27 -10.5c-7.33301 0 -12.666 1 -15.999 3s-5 6.33301 -5 13c0 7.33301 2.66699 20 8 38l162 538
c1.33301 4 -0.333984 6 -5.00098 6h-124c-2 0 -3.66699 -1.33301 -5 -4l-168 -560c-5.33301 -17.333 -9.33301 -33 -12 -47s-4 -26.667 -4 -38c0 -34.667 11.167 -58.167 33.5 -70.5s54.5 -18.5 96.5 -18.5c27.333 0 52 2.5 74 7.5s41.667 14 59 27s32.666 30.667 45.999 53
s25.333 50.5 36 84.5zM387.002 975c-0.666992 0.666992 -2 1 -4 1h-120c-2.66699 0 -4.33398 -1.16699 -5.00098 -3.5s-0.333984 -4.16602 0.999023 -5.49902l154 -154c0.666992 -0.666992 2 -1 4 -1h121c2.66699 0 4.33398 1.16699 5.00098 3.5
s0.333984 4.16602 -0.999023 5.49902z" />
    <glyph glyph-name="Uacute" unicode="&#xda;" 
d="M400 153l168.002 560c1.33301 4 -0.333984 6 -5.00098 6h-124c-2 0 -3.66699 -1.33301 -5 -4l-162 -538c-7.33301 -23.333 -14.333 -38.5 -21 -45.5s-15.667 -10.5 -27 -10.5c-7.33301 0 -12.666 1 -15.999 3s-5 6.33301 -5 13c0 7.33301 2.66699 20 8 38l162 538
c1.33301 4 -0.333984 6 -5.00098 6h-124c-2 0 -3.66699 -1.33301 -5 -4l-168 -560c-5.33301 -17.333 -9.33301 -33 -12 -47s-4 -26.667 -4 -38c0 -34.667 11.167 -58.167 33.5 -70.5s54.5 -18.5 96.5 -18.5c27.333 0 52 2.5 74 7.5s41.667 14 59 27s32.666 30.667 45.999 53
s25.333 50.5 36 84.5zM453.002 974l-157.002 -154c-1.33301 -1.33301 -1.66602 -3.16602 -0.999023 -5.49902s2.33398 -3.5 5.00098 -3.5l122 1l158 154c1.33301 1.33301 1.83301 3.16602 1.5 5.49902s-1.83301 3.5 -4.5 3.5h-120c-2 0 -3.33301 -0.333008 -4 -1z" />
    <glyph glyph-name="Ucircumflex" unicode="&#xdb;" 
d="M400 153l168.002 560c1.33301 4 -0.333984 6 -5.00098 6h-124c-2 0 -3.66699 -1.33301 -5 -4l-162 -538c-7.33301 -23.333 -14.333 -38.5 -21 -45.5s-15.667 -10.5 -27 -10.5c-7.33301 0 -12.666 1 -15.999 3s-5 6.33301 -5 13c0 7.33301 2.66699 20 8 38l162 538
c1.33301 4 -0.333984 6 -5.00098 6h-124c-2 0 -3.66699 -1.33301 -5 -4l-168 -560c-5.33301 -17.333 -9.33301 -33 -12 -47s-4 -26.667 -4 -38c0 -34.667 11.167 -58.167 33.5 -70.5s54.5 -18.5 96.5 -18.5c27.333 0 52 2.5 74 7.5s41.667 14 59 27s32.666 30.667 45.999 53
s25.333 50.5 36 84.5zM252.002 765h94c1.33301 0 2.66602 0.666992 3.99902 2l103 158l20 -146c0 -2.66699 1.66699 -4 5 -4h93c3.33301 0 5 2 5 6l-37 270c0 2.66699 -1.66699 4 -5 4h-85c-1.33301 0 -2.66602 -0.666992 -3.99902 -2l-197 -280
c-1.33301 -2 -1.5 -3.83301 -0.5 -5.5s2.5 -2.5 4.5 -2.5z" />
    <glyph glyph-name="Udieresis" unicode="&#xdc;" 
d="M400 153l168.002 560c1.33301 4 -0.333984 6 -5.00098 6h-124c-2 0 -3.66699 -1.33301 -5 -4l-162 -538c-7.33301 -23.333 -14.333 -38.5 -21 -45.5s-15.667 -10.5 -27 -10.5c-7.33301 0 -12.666 1 -15.999 3s-5 6.33301 -5 13c0 7.33301 2.66699 20 8 38l162 538
c1.33301 4 -0.333984 6 -5.00098 6h-124c-2 0 -3.66699 -1.33301 -5 -4l-168 -560c-5.33301 -17.333 -9.33301 -33 -12 -47s-4 -26.667 -4 -38c0 -34.667 11.167 -58.167 33.5 -70.5s54.5 -18.5 96.5 -18.5c27.333 0 52 2.5 74 7.5s41.667 14 59 27s32.666 30.667 45.999 53
s25.333 50.5 36 84.5zM615.002 977h-110c-2 0 -3.66699 -1.33301 -5 -4l-39 -130c-1.33301 -4 0.333984 -6 5.00098 -6h110c2 0 3.66699 1.33301 5 4l39 130c1.33301 4 -0.333984 6 -5.00098 6zM417.002 978h-110c-2 0 -3.66699 -1.33301 -5 -4l-39 -130
c-1.33301 -4 0.333984 -6 5.00098 -6h110c2 0 3.66699 1.33301 5 4l39 130c1.33301 4 -0.333984 6 -5.00098 6z" />
    <glyph glyph-name="Yacute" unicode="&#xdd;" horiz-adv-x="394" 
d="M339 473l13.998 241c0 3.33301 -1.66699 5 -5 5h-130c-3.33301 0 -5 -1.66699 -5 -5l-2 -441l-82 -272c-1.33301 -4 0.333984 -6 5.00098 -6h124c2 0 3.66699 1.33301 5 4l82 271l264 441c2.66699 5.33301 1.33398 8 -3.99902 8h-130c-0.666992 0 -2 -1 -4 -3z
M465.998 975l-157.002 -154c-1.33301 -1.33301 -1.66602 -3.16602 -0.999023 -5.49902s2.33398 -3.5 5.00098 -3.5l122 1l158 154c1.33301 1.33301 1.83301 3.16602 1.5 5.49902s-1.83301 3.5 -4.5 3.5h-120c-2 0 -3.33301 -0.333008 -4 -1z" />
    <glyph glyph-name="Thorn" unicode="&#xde;" horiz-adv-x="341" 
d="M190 109l23.001 -0.000976562c29.333 0 54.666 2.5 75.999 7.5s39.833 13.833 55.5 26.5s29 29.834 40 51.501s21.167 48.834 30.5 81.501l40 136c5.33301 18 9.33301 34.167 12 48.5s4 27.5 4 39.5c0 31.333 -9.83301 52.666 -29.5 63.999s-51.167 17 -94.5 17h-21
l39 132c1.33301 4 -0.333984 6 -5.00098 6h-117c-2 0 -3.66699 -1.33301 -5 -4l-208 -714c-1.33301 -4 0.333984 -6 5.00098 -6h117c2 0 3.66699 1.33301 5 4zM286.001 440.999h14c14.667 0 22.667 -4.66699 24 -14v-5c0 -14 -5 -39.333 -15 -76
c-6.66699 -21.333 -12.5 -38.833 -17.5 -52.5s-9.83301 -23.167 -14.5 -28.5c-8 -10.667 -20 -16 -36 -16h-11z" />
    <glyph glyph-name="germandbls" unicode="&#xdf;" horiz-adv-x="341" 
d="M180 538c-1.33301 -4 0.331055 -6 4.99805 -6h113c2 0 3.66699 1 5 3l5 15c10.667 38 26.667 57 48 57c6 0 13.5 -2.33301 22.5 -7s13.5 -15.667 13.5 -33c0 -7.33301 -1.16699 -16.333 -3.5 -27s-6.5 -23.334 -12.5 -38.001c-3.33301 -8 -8.5 -18.833 -15.5 -32.5
s-14.667 -27.167 -23 -40.5s-16.666 -24.833 -24.999 -34.5s-15.5 -14.5 -21.5 -14.5c-2 0 -3.66699 -1.33301 -5 -4l-35 -122c-1.33301 -4 0.333984 -6 5.00098 -6h13c4 0 6 -3 6 -9c0 -5.33301 -1.33301 -11.666 -4 -18.999l-60 -204c-5.33301 -20 -12.333 -30 -21 -30
h-14c-2 0 -3.66699 -1.33301 -5 -4l-36 -126c-1.33301 -4 0.333984 -6 5.00098 -6h66c26 0 49.5 12 70.5 36s37.833 57 50.5 99l64 221c5.33301 19.333 8 35.666 8 48.999c0 36 -15.333 57.667 -46 65c14 6.66699 27.5 17.667 40.5 33s25 32.666 36 51.999
s20.667 39.333 29 60s15.166 39.667 20.499 57c6.66699 22.667 10 47 10 73c0 18.667 -2.16699 36.334 -6.5 53.001s-10.833 31.334 -19.5 44.001s-19.5 22.667 -32.5 30s-28.167 11 -45.5 11c-24 0 -46.5 -4.16699 -67.5 -12.5s-39.833 -19.833 -56.5 -34.5
s-31.167 -32 -43.5 -52s-21.833 -41.667 -28.5 -65zM141.997 -5c2 0 3.66699 1.33301 5 4l139 478c1.33301 4 -0.333984 6 -5.00098 6h-113c-2 0 -3.66699 -1.33301 -5 -4l-139 -478c-1.33301 -4 0.333984 -6 5.00098 -6h113z" />
    <glyph glyph-name="agrave" unicode="&#xe0;" 
d="M326 712l-5.00195 -3h3l-313 -704h118l-1 -3l5 3h-4l49 123c0.666992 2 2.33398 3 5.00098 3h86c4.66699 0 6.33398 -2 5.00098 -6l-22 -120h117l111 704h-156zM402.998 975c-0.666992 0.666992 -2 1 -4 1h-120c-2.66699 0 -4.33398 -1.16699 -5.00098 -3.5
s-0.333984 -4.16602 0.999023 -5.49902l154 -154c0.666992 -0.666992 2 -1 4 -1h121c2.66699 0 4.33398 1.16699 5.00098 3.5s0.333984 4.16602 -0.999023 5.49902zM229.998 258l132.999 338c0.666992 2 2.33398 3 5.00098 3h1c4.66699 0 6.33398 -2 5.00098 -6l-74 -338
c0 -2.66699 -1.66699 -4 -5 -4h-60c-4.66699 0 -6.33398 2.33301 -5.00098 7zM2.99707 5l5 -7l3 7h-8zM485.997 709l-5 6l-1 -6h6zM250.997 -1l1 6h-6zM373.997 5h-5v-4z" />
    <glyph glyph-name="aacute" unicode="&#xe1;" 
d="M3 -5h129.999c2 0 3.66699 1 5 3l49 123h76l-22 -120c-1.33301 -4 0.333984 -6 5.00098 -6h128c3.33301 0 5 1.33301 5 4l112 714c0 4 -1.66699 6 -5 6h-165c-1.33301 0 -3 -1 -5 -3l-318 -714c-1.33301 -2 -1.33301 -3.66699 0 -5s3 -2 5 -2zM436.999 975l-157.002 -154
c-1.33301 -1.33301 -1.66602 -3.16602 -0.999023 -5.49902s2.33398 -3.5 5.00098 -3.5l122 1l158 154c1.33301 1.33301 1.83301 3.16602 1.5 5.49902s-1.83301 3.5 -4.5 3.5h-120c-2 0 -3.33301 -0.333008 -4 -1zM290.997 261h-48l108 275z" />
    <glyph glyph-name="acircumflex" unicode="&#xe2;" 
d="M3 -5h129.999c2 0 3.66699 1 5 3l49 123h76l-22 -120c-1.33301 -4 0.333984 -6 5.00098 -6h128c3.33301 0 5 1.33301 5 4l112 714c0 4 -1.66699 6 -5 6h-165c-1.33301 0 -3 -1 -5 -3l-318 -714c-1.33301 -2 -1.33301 -3.66699 0 -5s3 -2 5 -2zM249.999 764h94
c1.33301 0 2.66602 0.666992 3.99902 2l103 158l20 -146c0 -2.66699 1.66699 -4 5 -4h93c3.33301 0 5 2 5 6l-37 270c0 2.66699 -1.66699 4 -5 4h-85c-1.33301 0 -2.66602 -0.666992 -3.99902 -2l-197 -280c-1.33301 -2 -1.5 -3.83301 -0.5 -5.5s2.5 -2.5 4.5 -2.5z
M290.999 261h-48l108 275z" />
    <glyph glyph-name="atilde" unicode="&#xe3;" 
d="M3 -5h129.999c2 0 3.66699 1 5 3l49 123h76l-22 -120c-1.33301 -4 0.333984 -6 5.00098 -6h128c3.33301 0 5 1.33301 5 4l112 714c0 4 -1.66699 6 -5 6h-165c-1.33301 0 -3 -1 -5 -3l-318 -714c-1.33301 -2 -1.33301 -3.66699 0 -5s3 -2 5 -2zM557.999 858l3.00293 70
c0 2.66699 -1.16699 4.33398 -3.5 5.00098s-4.16602 0 -5.49902 -2c-14.667 -16.667 -27.334 -29.5 -38.001 -38.5s-20.667 -13.5 -30 -13.5c-5.33301 0 -10.833 1.66699 -16.5 5s-12.834 8 -21.501 14l-10 7c-11.333 8 -22 14.167 -32 18.5s-20 6.5 -30 6.5
c-19.333 0 -37.5 -6.16699 -54.5 -18.5s-32.833 -28.833 -47.5 -49.5l-3 -69c0 -2.66699 1.16699 -4.33398 3.5 -5.00098s4.16602 0 5.49902 2c14.667 16.667 27.167 29.5 37.5 38.5s20.166 13.5 29.499 13.5c8.66699 0 21.667 -6.33301 39 -19l10 -7
c11.333 -8 22 -14.167 32 -18.5s19.667 -6.5 29 -6.5c19.333 0 37.5 6.16699 54.5 18.5s33.167 28.5 48.5 48.5zM291.002 261h-48l108 275z" />
    <glyph glyph-name="adieresis" unicode="&#xe4;" 
d="M3 -5h129.999c2 0 3.66699 1 5 3l49 123h76l-22 -120c-1.33301 -4 0.333984 -6 5.00098 -6h128c3.33301 0 5 1.33301 5 4l112 714c0 4 -1.66699 6 -5 6h-165c-1.33301 0 -3 -1 -5 -3l-318 -714c-1.33301 -2 -1.33301 -3.66699 0 -5s3 -2 5 -2zM606.999 972h-110
c-2 0 -3.66699 -1.33301 -5 -4l-39 -130c-1.33301 -4 0.333984 -6 5.00098 -6h110c2 0 3.66699 1.33301 5 4l39 130c1.33301 4 -0.333984 6 -5.00098 6zM408.999 973h-110c-2 0 -3.66699 -1.33301 -5 -4l-39 -130c-1.33301 -4 0.333984 -6 5.00098 -6h110
c2 0 3.66699 1.33301 5 4l39 130c1.33301 4 -0.333984 6 -5.00098 6zM290.999 261h-48l108 275z" />
    <glyph glyph-name="aring" unicode="&#xe5;" 
d="M3 -5h129.999c2 0 3.66699 1 5 3l49 123h76l-22 -120c-1.33301 -4 0.333984 -6 5.00098 -6h128c3.33301 0 5 1.33301 5 4l112 714c0 4 -1.66699 6 -5 6h-16c14.667 7.33301 28.167 18.333 40.5 33s21.833 33.334 28.5 56.001l44 144c4 14 6 27 6 39
c0 19.333 -5.16699 34.333 -15.5 45s-23.833 16 -40.5 16h-51c-20.667 0 -41 -8.33301 -61 -25s-35 -41 -45 -73l-44 -144c-4 -14 -6 -26.667 -6 -38c0 -24.667 8 -42.334 24 -53.001h-29c-1.33301 0 -3 -1 -5 -3l-318 -714c-1.33301 -2 -1.33301 -3.66699 0 -5s3 -2 5 -2z
M410.999 719l23 68.999c1.33301 4.66699 -0.333984 7 -5.00098 7c-8 0 -12 4.33301 -12 13c0 2.66699 0.333008 5 1 7l38 129v-1c2 6 5.83301 11.5 11.5 16.5s11.834 7.5 18.501 7.5c4.66699 0 8 -1.16699 10 -3.5s3 -5.16602 3 -8.49902c0 -2 -0.666992 -5 -2 -9l-38 -128
c-2 -8.66699 -8.33301 -15.667 -19 -21c-2 0 -3 -1 -3 -3zM290.999 260.999h-48l108 275z" />
    <glyph glyph-name="ae" unicode="&#xe6;" horiz-adv-x="504" 
d="M239 -5h238.003c2 0 3.66699 1.33301 5 4l37 130c1.33301 4 -0.333984 6 -5.00098 6h-117l49 168h113c2 0 3.66699 1.33301 5 4l36 130c1.33301 4 -0.333984 6 -5.00098 6h-111l39 136h119c2 0 3.66699 1.33301 5 4l37 130c1.33301 4 -0.333984 6 -5.00098 6h-316
c-0.666992 0 -2 -1 -4 -3l-361 -714c-2.66699 -4.66699 -1.33398 -7 3.99902 -7h121c1.33301 0 3 1 5 3l58 122h81l-33 -119c-1.33301 -4 0.333984 -6 5.00098 -6zM305.003 260h-55l140 297z" />
    <glyph glyph-name="ccedilla" unicode="&#xe7;" horiz-adv-x="362" 
d="M193 561l-122.003 -405.999c-10 -32 -15 -59.333 -15 -82c0 -48 24.667 -77 74 -87l-46 -53c-2 -2 -2.33301 -3.66699 -1 -5l8 -17c1.33301 -3.33301 3.33301 -4.33301 6 -3c2.66699 0.666992 4.33398 1 5.00098 1c10 2.66699 18.667 4 26 4c14 0 21 -5 21 -15
c0 -4.66699 -1.33301 -10 -4 -16c-4.66699 -11.333 -12 -20 -22 -26s-19.667 -9 -29 -9c-14.667 0 -29.667 4.33301 -45 13c-3.33301 2 -5.66602 1.66699 -6.99902 -1l-27 -39c-1.33301 -2.66699 -1 -5 1 -7c16 -13.333 40.333 -20 73 -20c29.333 0 56 7.83301 80 23.5
s41 37.167 51 64.5c2.66699 6.66699 4.5 13.334 5.5 20.001s1.5 12.667 1.5 18c0 15.333 -4 27.166 -12 35.499s-19.667 12.5 -35 12.5h-17l13 14h5h12c2 0 4 0.166992 6 0.5s4 0.5 6 0.5s3.66699 1.33301 5 4l37 135c0.666992 2.66699 0.166992 4.5 -1.5 5.5
s-3.5 0.833008 -5.5 -0.5c-6.66699 -3.33301 -13.334 -5 -20.001 -5c-12 0 -18 5.33301 -18 16c0 5.33301 1.66699 14.666 5 27.999l115 382c5.33301 18 11.5 30.167 18.5 36.5s15.167 9.5 24.5 9.5c5.33301 0 10 -1.5 14 -4.5s6 -7.16699 6 -12.5
c0 -0.666992 -0.666992 -3.66699 -2 -9l-31 -107c-1.33301 -4 0.333984 -6 5.00098 -6h124c2 0 3.66699 1.33301 5 4l30 101c9.33301 32 14 58.667 14 80c0 32.667 -10.167 56.5 -30.5 71.5s-52.166 22.5 -95.499 22.5c-57.333 0 -102.5 -13.5 -135.5 -40.5
s-58.167 -70.833 -75.5 -131.5z" />
    <glyph glyph-name="egrave" unicode="&#xe8;" horiz-adv-x="314" 
d="M247 715l-214.998 -714c-1.33301 -4 0.333984 -6 5.00098 -6h255c2 0 3.66699 1.33301 5 4l39 130c1.33301 4 -0.333984 6 -5.00098 6h-124l50 168h121c2 0 3.66699 1.33301 5 4l40 130c1.33301 4 -0.333984 6 -5.00098 6h-118l40 136h127c2 0 3.66699 1.33301 5 4
l40 130c1.33301 4 -0.333984 6 -5.00098 6h-255c-2 0 -3.66699 -1.33301 -5 -4zM390.002 975c-0.666992 0.666992 -2 1 -4 1h-120c-2.66699 0 -4.33398 -1.16699 -5.00098 -3.5s-0.333984 -4.16602 0.999023 -5.49902l154 -154c0.666992 -0.666992 2 -1 4 -1h121
c2.66699 0 4.33398 1.16699 5.00098 3.5s0.333984 4.16602 -0.999023 5.49902z" />
    <glyph glyph-name="eacute" unicode="&#xe9;" horiz-adv-x="314" 
d="M247 715l-214.998 -714c-1.33301 -4 0.333984 -6 5.00098 -6h255c2 0 3.66699 1.33301 5 4l39 130c1.33301 4 -0.333984 6 -5.00098 6h-124l50 168h121c2 0 3.66699 1.33301 5 4l40 130c1.33301 4 -0.333984 6 -5.00098 6h-118l40 136h127c2 0 3.66699 1.33301 5 4
l40 130c1.33301 4 -0.333984 6 -5.00098 6h-255c-2 0 -3.66699 -1.33301 -5 -4zM436.002 975l-157.002 -154c-1.33301 -1.33301 -1.66602 -3.16602 -0.999023 -5.49902s2.33398 -3.5 5.00098 -3.5l122 1l158 154c1.33301 1.33301 1.83301 3.16602 1.5 5.49902
s-1.83301 3.5 -4.5 3.5h-120c-2 0 -3.33301 -0.333008 -4 -1z" />
    <glyph glyph-name="ecircumflex" unicode="&#xea;" horiz-adv-x="314" 
d="M247 715l-214.998 -714c-1.33301 -4 0.333984 -6 5.00098 -6h255c2 0 3.66699 1.33301 5 4l39 130c1.33301 4 -0.333984 6 -5.00098 6h-124l50 168h121c2 0 3.66699 1.33301 5 4l40 130c1.33301 4 -0.333984 6 -5.00098 6h-118l40 136h127c2 0 3.66699 1.33301 5 4
l40 130c1.33301 4 -0.333984 6 -5.00098 6h-255c-2 0 -3.66699 -1.33301 -5 -4zM227.002 765h94c1.33301 0 2.66602 0.666992 3.99902 2l103 158l20 -146c0 -2.66699 1.66699 -4 5 -4h93c3.33301 0 5 2 5 6l-37 270c0 2.66699 -1.66699 4 -5 4h-85
c-1.33301 0 -2.66602 -0.666992 -3.99902 -2l-197 -280c-1.33301 -2 -1.5 -3.83301 -0.5 -5.5s2.5 -2.5 4.5 -2.5z" />
    <glyph glyph-name="edieresis" unicode="&#xeb;" horiz-adv-x="314" 
d="M247 715l-214.998 -714c-1.33301 -4 0.333984 -6 5.00098 -6h255c2 0 3.66699 1.33301 5 4l39 130c1.33301 4 -0.333984 6 -5.00098 6h-124l50 168h121c2 0 3.66699 1.33301 5 4l40 130c1.33301 4 -0.333984 6 -5.00098 6h-118l40 136h127c2 0 3.66699 1.33301 5 4
l40 130c1.33301 4 -0.333984 6 -5.00098 6h-255c-2 0 -3.66699 -1.33301 -5 -4zM592.002 974h-110c-2 0 -3.66699 -1.33301 -5 -4l-39 -130c-1.33301 -4 0.333984 -6 5.00098 -6h110c2 0 3.66699 1.33301 5 4l39 130c1.33301 4 -0.333984 6 -5.00098 6zM394.002 975h-110
c-2 0 -3.66699 -1.33301 -5 -4l-39 -130c-1.33301 -4 0.333984 -6 5.00098 -6h110c2 0 3.66699 1.33301 5 4l39 130c1.33301 4 -0.333984 6 -5.00098 6z" />
    <glyph glyph-name="igrave" unicode="&#xec;" horiz-adv-x="205" 
d="M261 713l-5 -4h4l-212 -704h113l-1 -4l5 4h-4l212 704h-113zM336 975c-0.666992 0.666992 -2 1 -4 1h-120c-2.66699 0 -4.33398 -1.16699 -5.00098 -3.5s-0.333984 -4.16602 0.999023 -5.49902l154 -154c0.666992 -0.666992 2 -1 4 -1h121
c2.66699 0 4.33398 1.16699 5.00098 3.5s0.333984 4.16602 -0.999023 5.49902zM41 5l5 -6l2 6h-7zM380 709l-5 6l-2 -6h7z" />
    <glyph glyph-name="iacute" unicode="&#xed;" horiz-adv-x="205" 
d="M41 -5h124c2 0 3.66699 1.33301 5 4l215 714c1.33301 4 -0.333984 6 -5.00098 6h-124c-2 0 -3.66699 -1.33301 -5 -4l-215 -714c-1.33301 -4 0.333984 -6 5.00098 -6zM370 975l-157.002 -154c-1.33301 -1.33301 -1.66602 -3.16602 -0.999023 -5.49902
s2.33398 -3.5 5.00098 -3.5l122 1l158 154c1.33301 1.33301 1.83301 3.16602 1.5 5.49902s-1.83301 3.5 -4.5 3.5h-120c-2 0 -3.33301 -0.333008 -4 -1z" />
    <glyph glyph-name="icircumflex" unicode="&#xee;" horiz-adv-x="205" 
d="M41 -5h124c2 0 3.66699 1.33301 5 4l215 714c1.33301 4 -0.333984 6 -5.00098 6h-124c-2 0 -3.66699 -1.33301 -5 -4l-215 -714c-1.33301 -4 0.333984 -6 5.00098 -6zM168 765h94c1.33301 0 2.66602 0.666992 3.99902 2l103 158l20 -146c0 -2.66699 1.66699 -4 5 -4h93
c3.33301 0 5 2 5 6l-37 270c0 2.66699 -1.66699 4 -5 4h-85c-1.33301 0 -2.66602 -0.666992 -3.99902 -2l-197 -280c-1.33301 -2 -1.5 -3.83301 -0.5 -5.5s2.5 -2.5 4.5 -2.5z" />
    <glyph glyph-name="idieresis" unicode="&#xef;" horiz-adv-x="205" 
d="M41 -5h124c2 0 3.66699 1.33301 5 4l215 714c1.33301 4 -0.333984 6 -5.00098 6h-124c-2 0 -3.66699 -1.33301 -5 -4l-215 -714c-1.33301 -4 0.333984 -6 5.00098 -6zM526 974h-110c-2 0 -3.66699 -1.33301 -5 -4l-39 -130c-1.33301 -4 0.333984 -6 5.00098 -6h110
c2 0 3.66699 1.33301 5 4l39 130c1.33301 4 -0.333984 6 -5.00098 6zM328 975h-110c-2 0 -3.66699 -1.33301 -5 -4l-39 -130c-1.33301 -4 0.333984 -6 5.00098 -6h110c2 0 3.66699 1.33301 5 4l39 130c1.33301 4 -0.333984 6 -5.00098 6z" />
    <glyph glyph-name="eth" unicode="&#xf0;" 
d="M215 580l142.998 -0.999023c18 0 27 -6.33301 27 -19c0 -4.66699 -0.333008 -8.33398 -1 -11.001c-1.33301 -11.333 -4.16602 -24.833 -8.49902 -40.5s-11.166 -37.5 -20.499 -65.5l-31 -98.5c-12.667 -39.667 -27.667 -90.167 -45 -151.5v1
c-6.66699 -19.333 -12.834 -33.333 -18.501 -42s-12.5 -14 -20.5 -16c-2.66699 0 -4 -1 -4 -3l-51 -131c-1.33301 -4.66699 0.333984 -7 5.00098 -7c28 0 53 2.5 75 7.5s41.667 14 59 27s32.666 30.667 45.999 53s25.333 50.5 36 84.5l113 378
c5.33301 17.333 9.33301 33 12 47s4 26.667 4 38c0 34.667 -11.167 58.167 -33.5 70.5s-54.5 18.5 -96.5 18.5h-153c-2 0 -3.66699 -1.33301 -5 -4l-37 -129c-1.33301 -4 0.333984 -6 5.00098 -6zM61.998 313.001h196c2 0 3.66699 1.33301 5 4l36 120
c1.33301 4 -0.333984 6 -5.00098 6h-196c-2 0 -3.66699 -1.33301 -5 -4l-36 -120c-1.33301 -4 0.333984 -6 5.00098 -6z" />
    <glyph glyph-name="ntilde" unicode="&#xf1;" horiz-adv-x="456" 
d="M372 251l43 463c0 3.33301 -1.66699 5 -5 5h-158c-2 0 -3.66699 -1.33301 -5 -4l-215 -714c-1.33301 -4 0.333984 -6 5.00098 -6h118c2 0 3.66699 1.33301 5 4l137 456l-39 -455c0 -3.33301 1.66699 -5 5 -5h156c2 0 3.66699 1.33301 5 4l215 714
c1.33301 4 -0.333984 6 -5.00098 6h-117c-2 0 -3.66699 -1.33301 -5 -4zM591 859l3.00293 70c0 2.66699 -1.16699 4.33398 -3.5 5.00098s-4.16602 0 -5.49902 -2c-14.667 -16.667 -27.334 -29.5 -38.001 -38.5s-20.667 -13.5 -30 -13.5c-5.33301 0 -10.833 1.66699 -16.5 5
s-12.834 8 -21.501 14l-10 7c-11.333 8 -22 14.167 -32 18.5s-20 6.5 -30 6.5c-19.333 0 -37.5 -6.16699 -54.5 -18.5s-32.833 -28.833 -47.5 -49.5l-3 -69c0 -2.66699 1.16699 -4.33398 3.5 -5.00098s4.16602 0 5.49902 2c14.667 16.667 27.167 29.5 37.5 38.5
s20.166 13.5 29.499 13.5c8.66699 0 21.667 -6.33301 39 -19l10 -7c11.333 -8 22 -14.167 32 -18.5s19.667 -6.5 29 -6.5c19.333 0 37.5 6.16699 54.5 18.5s33.167 28.5 48.5 48.5z" />
    <glyph glyph-name="ograve" unicode="&#xf2;" 
d="M203 559l-122 -405.999c-5.33301 -17.333 -9.33301 -32.833 -12 -46.5s-4 -25.834 -4 -36.501c0 -30.667 10.167 -51.5 30.5 -62.5s50.166 -16.5 89.499 -16.5c26 0 49.5 2.33301 70.5 7s39.833 13.167 56.5 25.5s31.334 29.166 44.001 50.499s24 48.333 34 81l122 406
c10 34 15 61.667 15 83c0 30.667 -10 51.5 -30 62.5s-49.667 16.5 -89 16.5c-26.667 0 -50.5 -2.33301 -71.5 -7s-39.667 -13.167 -56 -25.5s-30.833 -29.166 -43.5 -50.499s-24 -48.333 -34 -81zM195 156.001l122 403.999c4 15.333 10 26.333 18 33s19.333 10 34 10
c21.333 0 32 -8.66699 32 -26c0 -6 -1 -12.333 -3 -19l-122 -405c-5.33301 -15.333 -11.833 -26.166 -19.5 -32.499s-18.5 -9.5 -32.5 -9.5c-22 0 -33 8.33301 -33 25c0 3.33301 0.333008 6.5 1 9.5s1.66699 6.5 3 10.5zM402 973c-0.666992 0.666992 -2 1 -4 1h-120
c-2.66699 0 -4.33398 -1.16699 -5.00098 -3.5s-0.333984 -4.16602 0.999023 -5.49902l154 -154c0.666992 -0.666992 2 -1 4 -1h121c2.66699 0 4.33398 1.16699 5.00098 3.5s0.333984 4.16602 -0.999023 5.49902z" />
    <glyph glyph-name="oacute" unicode="&#xf3;" 
d="M193 561l-122 -406c-5.33301 -17.333 -9.33301 -33 -12 -47s-4 -26.667 -4 -38c0 -34.667 11.167 -58.167 33.5 -70.5s54.5 -18.5 96.5 -18.5c27.333 0 52 2.5 74 7.5s41.667 14 59 27s32.666 30.667 45.999 53s25.333 50.5 36 84.5l122 406c10 34 15 62.333 15 85
c0 34.667 -11 58.167 -33 70.5s-54 18.5 -96 18.5c-28 0 -52.833 -2.5 -74.5 -7.5s-41.167 -14 -58.5 -27s-32.666 -30.667 -45.999 -53s-25.333 -50.5 -36 -84.5zM205 154l122 404.001c5.33301 23.333 19.333 35 42 35c14.667 0 22 -5.33301 22 -16
c0 -4.66699 -1 -10.334 -3 -17.001l-122 -404v1c-4.66699 -13.333 -10 -22.666 -16 -27.999s-14.667 -8 -26 -8c-15.333 0 -23 5 -23 15c0 1.33301 0.333008 3.66602 1 6.99902s1.66699 7 3 11zM459 975.001l-157.002 -154
c-1.33301 -1.33301 -1.66602 -3.16602 -0.999023 -5.49902s2.33398 -3.5 5.00098 -3.5l122 1l158 154c1.33301 1.33301 1.83301 3.16602 1.5 5.49902s-1.83301 3.5 -4.5 3.5h-120c-2 0 -3.33301 -0.333008 -4 -1z" />
    <glyph glyph-name="ocircumflex" unicode="&#xf4;" 
d="M193 561l-122 -406c-5.33301 -17.333 -9.33301 -33 -12 -47s-4 -26.667 -4 -38c0 -34.667 11.167 -58.167 33.5 -70.5s54.5 -18.5 96.5 -18.5c27.333 0 52 2.5 74 7.5s41.667 14 59 27s32.666 30.667 45.999 53s25.333 50.5 36 84.5l122 406c10 34 15 62.333 15 85
c0 34.667 -11 58.167 -33 70.5s-54 18.5 -96 18.5c-28 0 -52.833 -2.5 -74.5 -7.5s-41.167 -14 -58.5 -27s-32.666 -30.667 -45.999 -53s-25.333 -50.5 -36 -84.5zM250 765h94c1.33301 0 2.66602 0.666992 3.99902 2l103 158l20 -146c0 -2.66699 1.66699 -4 5 -4h93
c3.33301 0 5 2 5 6l-37 270c0 2.66699 -1.66699 4 -5 4h-85c-1.33301 0 -2.66602 -0.666992 -3.99902 -2l-197 -280c-1.33301 -2 -1.5 -3.83301 -0.5 -5.5s2.5 -2.5 4.5 -2.5zM205 154l122 404.001c5.33301 23.333 19.333 35 42 35c14.667 0 22 -5.33301 22 -16
c0 -4.66699 -1 -10.334 -3 -17.001l-122 -404v1c-4.66699 -13.333 -10 -22.666 -16 -27.999s-14.667 -8 -26 -8c-15.333 0 -23 5 -23 15c0 1.33301 0.333008 3.66602 1 6.99902s1.66699 7 3 11z" />
    <glyph glyph-name="otilde" unicode="&#xf5;" 
d="M193 561l-122 -406c-5.33301 -17.333 -9.33301 -33 -12 -47s-4 -26.667 -4 -38c0 -34.667 11.167 -58.167 33.5 -70.5s54.5 -18.5 96.5 -18.5c27.333 0 52 2.5 74 7.5s41.667 14 59 27s32.666 30.667 45.999 53s25.333 50.5 36 84.5l122 406c10 34 15 62.333 15 85
c0 34.667 -11 58.167 -33 70.5s-54 18.5 -96 18.5c-28 0 -52.833 -2.5 -74.5 -7.5s-41.167 -14 -58.5 -27s-32.666 -30.667 -45.999 -53s-25.333 -50.5 -36 -84.5zM205 154l122 404.001c5.33301 23.333 19.333 35 42 35c14.667 0 22 -5.33301 22 -16
c0 -4.66699 -1 -10.334 -3 -17.001l-122 -404v1c-4.66699 -13.333 -10 -22.666 -16 -27.999s-14.667 -8 -26 -8c-15.333 0 -23 5 -23 15c0 1.33301 0.333008 3.66602 1 6.99902s1.66699 7 3 11zM559 859.001l3.00293 70c0 2.66699 -1.16699 4.33398 -3.5 5.00098
s-4.16602 0 -5.49902 -2c-14.667 -16.667 -27.334 -29.5 -38.001 -38.5s-20.667 -13.5 -30 -13.5c-5.33301 0 -10.833 1.66699 -16.5 5s-12.834 8 -21.501 14l-10 7c-11.333 8 -22 14.167 -32 18.5s-20 6.5 -30 6.5c-19.333 0 -37.5 -6.16699 -54.5 -18.5
s-32.833 -28.833 -47.5 -49.5l-3 -69c0 -2.66699 1.16699 -4.33398 3.5 -5.00098s4.16602 0 5.49902 2c14.667 16.667 27.167 29.5 37.5 38.5s20.166 13.5 29.499 13.5c8.66699 0 21.667 -6.33301 39 -19l10 -7c11.333 -8 22 -14.167 32 -18.5s19.667 -6.5 29 -6.5
c19.333 0 37.5 6.16699 54.5 18.5s33.167 28.5 48.5 48.5z" />
    <glyph glyph-name="odieresis" unicode="&#xf6;" 
d="M193 561l-122 -406c-5.33301 -17.333 -9.33301 -33 -12 -47s-4 -26.667 -4 -38c0 -34.667 11.167 -58.167 33.5 -70.5s54.5 -18.5 96.5 -18.5c27.333 0 52 2.5 74 7.5s41.667 14 59 27s32.666 30.667 45.999 53s25.333 50.5 36 84.5l122 406c10 34 15 62.333 15 85
c0 34.667 -11 58.167 -33 70.5s-54 18.5 -96 18.5c-28 0 -52.833 -2.5 -74.5 -7.5s-41.167 -14 -58.5 -27s-32.666 -30.667 -45.999 -53s-25.333 -50.5 -36 -84.5zM205 154l122 404.001c5.33301 23.333 19.333 35 42 35c14.667 0 22 -5.33301 22 -16
c0 -4.66699 -1 -10.334 -3 -17.001l-122 -404v1c-4.66699 -13.333 -10 -22.666 -16 -27.999s-14.667 -8 -26 -8c-15.333 0 -23 5 -23 15c0 1.33301 0.333008 3.66602 1 6.99902s1.66699 7 3 11zM420 974.001h-110c-2 0 -3.66699 -1.33301 -5 -4l-39 -130
c-1.33301 -4 0.333984 -6 5.00098 -6h110c2 0 3.66699 1.33301 5 4l39 130c1.33301 4 -0.333984 6 -5.00098 6zM618 973.001h-110c-2 0 -3.66699 -1.33301 -5 -4l-39 -130c-1.33301 -4 0.333984 -6 5.00098 -6h110c2 0 3.66699 1.33301 5 4l39 130
c1.33301 4 -0.333984 6 -5.00098 6z" />
    <glyph glyph-name="divide" unicode="&#xf7;" horiz-adv-x="456" 
d="M117 248h379c2 0 3.66699 1.33301 5 4l36 120c1.33301 4 -0.333984 6 -5.00098 6h-379c-2 0 -3.66699 -1.33301 -5 -4l-36 -120c-1.33301 -4 0.333984 -6 5.00098 -6zM356 205h-110c-2 0 -3.66699 -1.33301 -5 -4l-39 -130c-1.33301 -4 0.333984 -6 5.00098 -6h110
c2 0 3.66699 1.33301 5 4l39 130c1.33301 4 -0.333984 6 -5.00098 6zM445 563h-110c-2 0 -3.66699 -1.33301 -5 -4l-39 -130c-1.33301 -4 0.333984 -6 5.00098 -6h110c2 0 3.66699 1.33301 5 4l39 130c1.33301 4 -0.333984 6 -5.00098 6z" />
    <glyph glyph-name="oslash" unicode="&#xf8;" 
d="M454 807c1.33301 4 -0.333984 6 -5.00098 6h-30c-2 0 -3.66699 -1.33301 -5 -4l-24 -76c-25.333 -1.33301 -48 -4.83301 -68 -10.5s-38 -15.167 -54 -28.5s-30 -30.833 -42 -52.5s-23 -48.5 -33 -80.5l-122 -406v1c-10.667 -32.667 -16 -61.334 -16 -86.001
c0 -31.333 9 -53.5 27 -66.5s44.667 -20.167 80 -21.5l-28 -93c-1.33301 -4 0.333984 -6 5.00098 -6h29c2 0 3.66699 1.33301 5 4l29 94c24.667 0.666992 47 4 67 10s38 15.5 54 28.5s30.333 30.333 43 52s24 48.834 34 81.501l122 406c10 34 15 62.333 15 85
c0 32 -9.16699 54.333 -27.5 67s-44.5 19.667 -78.5 21zM205 154l122 403.999c4 16 10.667 26.333 20 31l-141 -465c-3.33301 2.66699 -5 6.33398 -5 11.001s1.33301 10.667 4 18v1zM391 576.999c0 -4.66699 -1 -10.333 -3 -17l-122 -404v1c-6 -16 -12.667 -26.333 -20 -31
l141 462c2.66699 -4 4 -7.66699 4 -11z" />
    <glyph glyph-name="ugrave" unicode="&#xf9;" 
d="M444 713l-5 -3.99805h4l-161 -534c-8 -26.667 -16.167 -44 -24.5 -52s-19.5 -12 -33.5 -12c-10 0 -17.667 1.66699 -23 5s-8 10.333 -8 21c0 8.66699 2.66699 22 8 40l160 532h-113l1 4l-5 -4h4l-167 -556c-5.33301 -17.333 -9.33301 -32.833 -12 -46.5
s-4 -25.834 -4 -36.501c0 -30.667 10.167 -51.5 30.5 -62.5s50.166 -16.5 89.499 -16.5c26 0 49.5 2.33301 70.5 7s39.833 13.167 56.5 25.5s31.334 29.166 44.001 50.499s24 48.333 34 81l166 554h-113zM387 975.002c-0.666992 0.666992 -2 1 -4 1h-120
c-2.66699 0 -4.33398 -1.16699 -5.00098 -3.5s-0.333984 -4.16602 0.999023 -5.49902l154 -154c0.666992 -0.666992 2 -1 4 -1h121c2.66699 0 4.33398 1.16699 5.00098 3.5s0.333984 4.16602 -0.999023 5.49902zM563 709.002l-5 6l-2 -6h7zM368 709.002l-5 6l-2 -6h7z" />
    <glyph glyph-name="uacute" unicode="&#xfa;" 
d="M400 153l168.002 560c1.33301 4 -0.333984 6 -5.00098 6h-124c-2 0 -3.66699 -1.33301 -5 -4l-162 -538c-7.33301 -23.333 -14.333 -38.5 -21 -45.5s-15.667 -10.5 -27 -10.5c-7.33301 0 -12.666 1 -15.999 3s-5 6.33301 -5 13c0 7.33301 2.66699 20 8 38l162 538
c1.33301 4 -0.333984 6 -5.00098 6h-124c-2 0 -3.66699 -1.33301 -5 -4l-168 -560c-5.33301 -17.333 -9.33301 -33 -12 -47s-4 -26.667 -4 -38c0 -34.667 11.167 -58.167 33.5 -70.5s54.5 -18.5 96.5 -18.5c27.333 0 52 2.5 74 7.5s41.667 14 59 27s32.666 30.667 45.999 53
s25.333 50.5 36 84.5zM453.002 974l-157.002 -154c-1.33301 -1.33301 -1.66602 -3.16602 -0.999023 -5.49902s2.33398 -3.5 5.00098 -3.5l122 1l158 154c1.33301 1.33301 1.83301 3.16602 1.5 5.49902s-1.83301 3.5 -4.5 3.5h-120c-2 0 -3.33301 -0.333008 -4 -1z" />
    <glyph glyph-name="ucircumflex" unicode="&#xfb;" 
d="M400 153l168.002 560c1.33301 4 -0.333984 6 -5.00098 6h-124c-2 0 -3.66699 -1.33301 -5 -4l-162 -538c-7.33301 -23.333 -14.333 -38.5 -21 -45.5s-15.667 -10.5 -27 -10.5c-7.33301 0 -12.666 1 -15.999 3s-5 6.33301 -5 13c0 7.33301 2.66699 20 8 38l162 538
c1.33301 4 -0.333984 6 -5.00098 6h-124c-2 0 -3.66699 -1.33301 -5 -4l-168 -560c-5.33301 -17.333 -9.33301 -33 -12 -47s-4 -26.667 -4 -38c0 -34.667 11.167 -58.167 33.5 -70.5s54.5 -18.5 96.5 -18.5c27.333 0 52 2.5 74 7.5s41.667 14 59 27s32.666 30.667 45.999 53
s25.333 50.5 36 84.5zM252.002 765h94c1.33301 0 2.66602 0.666992 3.99902 2l103 158l20 -146c0 -2.66699 1.66699 -4 5 -4h93c3.33301 0 5 2 5 6l-37 270c0 2.66699 -1.66699 4 -5 4h-85c-1.33301 0 -2.66602 -0.666992 -3.99902 -2l-197 -280
c-1.33301 -2 -1.5 -3.83301 -0.5 -5.5s2.5 -2.5 4.5 -2.5z" />
    <glyph glyph-name="udieresis" unicode="&#xfc;" 
d="M400 153l168.002 560c1.33301 4 -0.333984 6 -5.00098 6h-124c-2 0 -3.66699 -1.33301 -5 -4l-162 -538c-7.33301 -23.333 -14.333 -38.5 -21 -45.5s-15.667 -10.5 -27 -10.5c-7.33301 0 -12.666 1 -15.999 3s-5 6.33301 -5 13c0 7.33301 2.66699 20 8 38l162 538
c1.33301 4 -0.333984 6 -5.00098 6h-124c-2 0 -3.66699 -1.33301 -5 -4l-168 -560c-5.33301 -17.333 -9.33301 -33 -12 -47s-4 -26.667 -4 -38c0 -34.667 11.167 -58.167 33.5 -70.5s54.5 -18.5 96.5 -18.5c27.333 0 52 2.5 74 7.5s41.667 14 59 27s32.666 30.667 45.999 53
s25.333 50.5 36 84.5zM417.002 978h-110c-2 0 -3.66699 -1.33301 -5 -4l-39 -130c-1.33301 -4 0.333984 -6 5.00098 -6h110c2 0 3.66699 1.33301 5 4l39 130c1.33301 4 -0.333984 6 -5.00098 6zM615.002 977h-110c-2 0 -3.66699 -1.33301 -5 -4l-39 -130
c-1.33301 -4 0.333984 -6 5.00098 -6h110c2 0 3.66699 1.33301 5 4l39 130c1.33301 4 -0.333984 6 -5.00098 6z" />
    <glyph glyph-name="yacute" unicode="&#xfd;" horiz-adv-x="394" 
d="M339 473l13.998 241c0 3.33301 -1.66699 5 -5 5h-130c-3.33301 0 -5 -1.66699 -5 -5l-2 -442v1l-82 -272c-1.33301 -4 0.333984 -6 5.00098 -6h124c2 0 3.66699 1.33301 5 4l82 271l264 441c2.66699 5.33301 1.33398 8 -3.99902 8h-130c-0.666992 0 -2 -1 -4 -3z
M465.998 975l-157.002 -154c-1.33301 -1.33301 -1.66602 -3.16602 -0.999023 -5.49902s2.33398 -3.5 5.00098 -3.5l122 1l158 154c1.33301 1.33301 1.83301 3.16602 1.5 5.49902s-1.83301 3.5 -4.5 3.5h-120c-2 0 -3.33301 -0.333008 -4 -1z" />
    <glyph glyph-name="thorn" unicode="&#xfe;" horiz-adv-x="341" 
d="M190 109l23.001 -0.000976562c29.333 0 54.666 2.5 75.999 7.5s39.833 13.833 55.5 26.5s29 29.834 40 51.501s21.167 48.834 30.5 81.501l40 136c5.33301 18 9.33301 34.167 12 48.5s4 27.5 4 39.5c0 31.333 -9.83301 52.666 -29.5 63.999s-51.167 17 -94.5 17h-21
l39 132c1.33301 4 -0.333984 6 -5.00098 6h-117c-2 0 -3.66699 -1.33301 -5 -4l-208 -714c-1.33301 -4 0.333984 -6 5.00098 -6h117c2 0 3.66699 1.33301 5 4zM286.001 440.999h14c14.667 0 22.667 -4.66699 24 -14v-5c0 -14 -5 -39.333 -15 -76
c-6.66699 -21.333 -12.5 -38.833 -17.5 -52.5s-9.83301 -23.167 -14.5 -28.5c-8 -10.667 -20 -16 -36 -16h-11z" />
    <glyph glyph-name="ydieresis" unicode="&#xff;" horiz-adv-x="394" 
d="M339 473l13.998 241c0 3.33301 -1.66699 5 -5 5h-130c-3.33301 0 -5 -1.66699 -5 -5l-2 -442v1l-82 -272c-1.33301 -4 0.333984 -6 5.00098 -6h124c2 0 3.66699 1.33301 5 4l82 271l264 441c2.66699 5.33301 1.33398 8 -3.99902 8h-130c-0.666992 0 -2 -1 -4 -3z
M623.998 975h-110c-2 0 -3.66699 -1.33301 -5 -4l-39 -130c-1.33301 -4 0.333984 -6 5.00098 -6h110c2 0 3.66699 1.33301 5 4l39 130c1.33301 4 -0.333984 6 -5.00098 6zM425.998 976h-110c-2 0 -3.66699 -1.33301 -5 -4l-39 -130c-1.33301 -4 0.333984 -6 5.00098 -6h110
c2 0 3.66699 1.33301 5 4l39 130c1.33301 4 -0.333984 6 -5.00098 6z" />
    <glyph glyph-name="OE" unicode="&#x152;" horiz-adv-x="504" 
d="M408 733c-28 0 -52.8291 -2.49902 -74.4961 -7.49902s-41.167 -14 -58.5 -27s-32.666 -30.667 -45.999 -53s-25.333 -50.5 -36 -84.5l-122 -406c-5.33301 -17.333 -9.33301 -33 -12 -47s-4 -26.667 -4 -38c0 -34.667 11.167 -58.167 33.5 -70.5s54.5 -18.5 96.5 -18.5
c19.333 0 37.166 1.16699 53.499 3.5s31.166 6.16602 44.499 11.499h197c2 0 3.66699 1.33301 5 4l39 130c1.33301 4 -0.333984 6 -5.00098 6h-124l50 168h121c2 0 3.66699 1.33301 5 4l40 130c1.33301 4 -0.333984 6 -5.00098 6h-118l44 149h127c2 0 3.66699 1.33301 5 4
l40 130c1.33301 4 -0.333984 6 -5.00098 6h-291zM205.004 154.001l122 404.001c5.33301 23.333 19.333 35 42 35c14.667 0 22 -5.33301 22 -16c0 -4.66699 -1 -10.334 -3 -17.001l-122 -404v1c-4.66699 -13.333 -10 -22.666 -16 -27.999s-14.667 -8 -26 -8
c-15.333 0 -23 5 -23 15c0 1.33301 0.333008 3.66602 1 6.99902s1.66699 7 3 11z" />
    <glyph glyph-name="oe" unicode="&#x153;" horiz-adv-x="504" 
d="M408 733c-28 0 -52.8291 -2.49902 -74.4961 -7.49902s-41.167 -14 -58.5 -27s-32.666 -30.667 -45.999 -53s-25.333 -50.5 -36 -84.5l-122 -406c-5.33301 -17.333 -9.33301 -33 -12 -47s-4 -26.667 -4 -38c0 -34.667 11.167 -58.167 33.5 -70.5s54.5 -18.5 96.5 -18.5
c19.333 0 37.166 1.16699 53.499 3.5s31.166 6.16602 44.499 11.499h197c2 0 3.66699 1.33301 5 4l39 130c1.33301 4 -0.333984 6 -5.00098 6h-124l50 168h121c2 0 3.66699 1.33301 5 4l40 130c1.33301 4 -0.333984 6 -5.00098 6h-118l44 149h127c2 0 3.66699 1.33301 5 4
l40 130c1.33301 4 -0.333984 6 -5.00098 6h-291zM205.004 154.001l122 404.001c5.33301 23.333 19.333 35 42 35c14.667 0 22 -5.33301 22 -16c0 -4.66699 -1 -10.334 -3 -17.001l-122 -404v1c-4.66699 -13.333 -10 -22.666 -16 -27.999s-14.667 -8 -26 -8
c-15.333 0 -23 5 -23 15c0 1.33301 0.333008 3.66602 1 6.99902s1.66699 7 3 11z" />
    <glyph glyph-name="Scaron" unicode="&#x160;" horiz-adv-x="346" 
d="M608 1055l-94.002 0.000976562c-1.33301 0 -2.66602 -0.666992 -3.99902 -2l-110 -187l-13 174c0 3.33301 -1.66699 5 -5 5h-93c-3.33301 0 -5 -2 -5 -6l33 -315c-36 -10.667 -65.167 -30.334 -87.5 -59.001s-41.166 -68 -56.499 -118c-10.667 -36 -16 -67.667 -16 -95
c0 -17.333 1.83301 -32.833 5.5 -46.5s8.33398 -26.334 14.001 -38.001s12.167 -22.334 19.5 -32.001s14.666 -18.834 21.999 -27.501c11.333 -14 21.666 -28 30.999 -42s14 -31 14 -51c0 -11.333 -2 -24.333 -6 -39c-6 -19.333 -12.667 -33.333 -20 -42s-17 -13 -29 -13
c-4 0 -7.33301 0.333008 -10 1c-2.66699 1.33301 -4.66699 0.333008 -6 -3l-46 -131c-1.33301 -4.66699 0.333984 -7 5.00098 -7h18c30.667 0 57.5 3.16699 80.5 9.5s43.167 17.333 60.5 33s32.5 36.167 45.5 61.5s25.167 57 36.5 95c5.33301 18 9.16602 34.833 11.499 50.5
s3.5 30.167 3.5 43.5c0 18 -2 34.333 -6 49s-9 28 -15 40s-12.667 22.833 -20 32.5s-14.666 18.834 -21.999 27.501c-11.333 13.333 -21.333 26.333 -30 39s-13 27.667 -13 45c0 4.66699 0.333008 9.33398 1 14.001s2 10 4 16c5.33301 20 11.666 34.333 18.999 43
s16.666 13 27.999 13c13.333 0 20 -7 20 -21c0 -7.33301 -2 -18 -6 -32v1l-13 -40c-1.33301 -4.66699 0.333984 -7 5.00098 -7h121c2 0 3.66699 1.33301 5 4l17 56c10 32.667 15 60.334 15 83.001c0 30 -7.66699 52.333 -23 67s-38.333 23.667 -69 27l187 316
c2.66699 5.33301 1.33398 8 -3.99902 8z" />
    <glyph glyph-name="scaron" unicode="&#x161;" horiz-adv-x="346" 
d="M359 494l120.998 0.000976562c2 0 3.66699 1.33301 5 4l17 56c10 32.667 15 60.334 15 83.001c0 30 -7.66699 52.333 -23 67s-38.333 23.667 -69 27l187 316c2.66699 5.33301 1.33398 8 -3.99902 8h-94c-1.33301 0 -2.66602 -0.666992 -3.99902 -2l-110 -187l-13 174
c0 3.33301 -1.66699 5 -5 5h-93c-3.33301 0 -5 -2 -5 -6l33 -315c-36 -10.667 -65.167 -30.334 -87.5 -59.001s-41.166 -68 -56.499 -118c-10.667 -36 -16 -67.667 -16 -95c0 -17.333 1.83301 -32.833 5.5 -46.5s8.33398 -26.334 14.001 -38.001
s12.167 -22.334 19.5 -32.001s14.666 -18.834 21.999 -27.501c11.333 -14 21.666 -28 30.999 -42s14 -31 14 -51c0 -11.333 -2 -24.333 -6 -39c-6 -19.333 -12.667 -33.333 -20 -42s-17 -13 -29 -13c-4 0 -7.33301 0.333008 -10 1c-2.66699 1.33301 -4.66699 0.333008 -6 -3
l-46 -131c-1.33301 -4.66699 0.333984 -7 5.00098 -7h18c30.667 0 57.5 3.16699 80.5 9.5s43.167 17.333 60.5 33s32.5 36.167 45.5 61.5s25.167 57 36.5 95c5.33301 18 9.16602 34.833 11.499 50.5s3.5 30.167 3.5 43.5c0 18 -2 34.333 -6 49s-9 28 -15 40
s-12.667 22.833 -20 32.5s-14.666 18.834 -21.999 27.501c-11.333 13.333 -21.333 26.333 -30 39s-13 27.667 -13 45c0 4.66699 0.333008 9.33398 1 14.001s2 10 4 16c5.33301 20 11.666 34.333 18.999 43s16.666 13 27.999 13c13.333 0 20 -7 20 -21
c0 -7.33301 -2 -18 -6 -32v1l-13 -40c-1.33301 -4.66699 0.333984 -7 5.00098 -7z" />
    <glyph glyph-name="Ydieresis" unicode="&#x178;" horiz-adv-x="394" 
d="M339 473l13.998 241c0 3.33301 -1.66699 5 -5 5h-130c-3.33301 0 -5 -1.66699 -5 -5l-2 -441l-82 -272c-1.33301 -4 0.333984 -6 5.00098 -6h124c2 0 3.66699 1.33301 5 4l82 271l264 441c2.66699 5.33301 1.33398 8 -3.99902 8h-130c-0.666992 0 -2 -1 -4 -3z
M623.998 975h-110c-2 0 -3.66699 -1.33301 -5 -4l-39 -130c-1.33301 -4 0.333984 -6 5.00098 -6h110c2 0 3.66699 1.33301 5 4l39 130c1.33301 4 -0.333984 6 -5.00098 6zM425.998 976h-110c-2 0 -3.66699 -1.33301 -5 -4l-39 -130c-1.33301 -4 0.333984 -6 5.00098 -6h110
c2 0 3.66699 1.33301 5 4l39 130c1.33301 4 -0.333984 6 -5.00098 6z" />
    <glyph glyph-name="florin" unicode="&#x192;" horiz-adv-x="341" 
d="M361 308c2 0 3.66895 1 5.00195 3l27 73c1.33301 4.66699 -0.333984 7 -5.00098 7h-52l58 151c8 21.333 15.5 35.833 22.5 43.5s16.167 11.5 27.5 11.5h26c2 0 3.66699 1 5 3l44 112c1.33301 4.66699 -0.333984 7 -5.00098 7h-67c-15.333 0 -30.833 -3.5 -46.5 -10.5
s-30.5 -16.667 -44.5 -29s-26.667 -27 -38 -44s-21 -35.5 -29 -55.5l-72 -189h-56c-2.66699 0 -4.33398 -1 -5.00098 -3l-27 -73c-1.33301 -4.66699 0.333984 -7 5.00098 -7h227zM-58.998 -177c-1.33301 -4.66699 0.336914 -7.00098 5.00391 -7.00098h64
c30.667 0 61 13 91 39c28.667 26.667 51 59.334 67 98.001l110 260c1.33301 4.66699 -0.333984 7 -5.00098 7h-104c-2.66699 0 -4.33398 -1 -5.00098 -3l-99 -224c-8.66699 -22.667 -16.334 -37.5 -23.001 -44.5s-16 -10.5 -28 -10.5h-26
c-2.66699 0 -4.33398 -1 -5.00098 -3z" />
    <glyph glyph-name="circumflex" unicode="&#x2c6;" horiz-adv-x="510" 
d="M222 765h94c1.33301 0 2.66602 0.666992 3.99902 2l103 158l20 -146c0 -2.66699 1.66699 -4 5 -4h93c3.33301 0 5 2 5 6l-37 270c0 2.66699 -1.66699 4 -5 4h-85c-1.33301 0 -2.66602 -0.666992 -3.99902 -2l-197 -280c-1.33301 -2 -1.5 -3.83301 -0.5 -5.5
s2.5 -2.5 4.5 -2.5z" />
    <glyph glyph-name="tilde" unicode="&#x2dc;" horiz-adv-x="322" 
d="M346 859l3.00293 70c0 2.66699 -1.16699 4.33398 -3.5 5.00098s-4.16602 0 -5.49902 -2c-14.667 -16.667 -27.334 -29.5 -38.001 -38.5s-20.667 -13.5 -30 -13.5c-5.33301 0 -10.833 1.66699 -16.5 5s-12.834 8 -21.501 14l-10 7c-11.333 8 -22 14.167 -32 18.5
s-20 6.5 -30 6.5c-19.333 0 -37.5 -6.16699 -54.5 -18.5s-32.833 -28.833 -47.5 -49.5l-3 -69c0 -2.66699 1.16699 -4.33398 3.5 -5.00098s4.16602 0 5.49902 2c14.667 16.667 27.167 29.5 37.5 38.5s20.166 13.5 29.499 13.5c8.66699 0 21.667 -6.33301 39 -19l10 -7
c11.333 -8 22 -14.167 32 -18.5s19.667 -6.5 29 -6.5c19.333 0 37.5 6.16699 54.5 18.5s33.167 28.5 48.5 48.5z" />
    <glyph glyph-name="endash" unicode="&#x2013;" horiz-adv-x="456" 
d="M99 194h379c2 0 3.66699 1.33301 5 4l36 120c1.33301 4 -0.333984 6 -5.00098 6h-379c-2 0 -3.66699 -1.33301 -5 -4l-36 -120c-1.33301 -4 0.333984 -6 5.00098 -6z" />
    <glyph glyph-name="emdash" unicode="&#x2014;" horiz-adv-x="582" 
d="M96 193h512c2 0 3.66699 1.33301 5 4l36 120c1.33301 4 -0.333984 6 -5.00098 6h-512c-2 0 -3.66699 -1.33301 -5 -4l-36 -120c-1.33301 -4 0.333984 -6 5.00098 -6z" />
    <glyph glyph-name="quoteleft" unicode="&#x2018;" horiz-adv-x="184" 
d="M166 447h109.998c2 0 3.66699 1.33301 5 4l39 130c1.33301 4 -0.333984 6 -5.00098 6h-33l85 122c2.66699 5.33301 1.33398 8 -3.99902 8h-62c-1.33301 0 -2.66602 -0.666992 -3.99902 -2l-97 -131l-39 -131c-1.33301 -4 0.333984 -6 5.00098 -6z" />
    <glyph glyph-name="quoteright" unicode="&#x2019;" horiz-adv-x="184" 
d="M359 717h-109.998c-2 0 -3.66699 -1.33301 -5 -4l-39 -130c-1.33301 -4 0.333984 -6 5.00098 -6h32l-84 -122c-2.66699 -5.33301 -1.33398 -8 3.99902 -8h62c1.33301 0 2.66602 0.666992 3.99902 2l97 131l39 131c1.33301 4 -0.333984 6 -5.00098 6z" />
    <glyph glyph-name="quotesinglbase" unicode="&#x201a;" horiz-adv-x="173" 
d="M73 120l-82 -270c-1.33301 -4 0.333984 -6 5.00098 -6h95c2 0 3.66699 1.33301 5 4l82 270c1.33301 4 -0.333984 6 -5.00098 6h-95c-2 0 -3.66699 -1.33301 -5 -4z" />
    <glyph glyph-name="quotedblleft" unicode="&#x201c;" horiz-adv-x="355" 
d="M166 447h109.998c2 0 3.66699 1.33301 5 4l39 130c1.33301 4 -0.333984 6 -5.00098 6h-33l85 122c2.66699 5.33301 1.33398 8 -3.99902 8h-62c-1.33301 0 -2.66602 -0.666992 -3.99902 -2l-97 -131l-39 -131c-1.33301 -4 0.333984 -6 5.00098 -6zM337.998 447h109.998
c2 0 3.66699 1.33301 5 4l39 130c1.33301 4 -0.333984 6 -5.00098 6h-33l85 122c2.66699 5.33301 1.33398 8 -3.99902 8h-62c-1.33301 0 -2.66602 -0.666992 -3.99902 -2l-97 -131l-39 -131c-1.33301 -4 0.333984 -6 5.00098 -6z" />
    <glyph glyph-name="quotedblright" unicode="&#x201d;" horiz-adv-x="245" 
d="M359 717h-109.998c-2 0 -3.66699 -1.33301 -5 -4l-39 -130c-1.33301 -4 0.333984 -6 5.00098 -6h32l-84 -122c-2.66699 -5.33301 -1.33398 -8 3.99902 -8h62c1.33301 0 2.66602 0.666992 3.99902 2l97 131l39 131c1.33301 4 -0.333984 6 -5.00098 6zM531.002 716
h-109.998c-2 0 -3.66699 -1.33301 -5 -4l-39 -130c-1.33301 -4 0.333984 -6 5.00098 -6h32l-84 -122c-2.66699 -5.33301 -1.33398 -8 3.99902 -8h62c1.33301 0 2.66602 0.666992 3.99902 2l97 131l39 131c1.33301 4 -0.333984 6 -5.00098 6z" />
    <glyph glyph-name="quotedblbase" unicode="&#x201e;" horiz-adv-x="327" 
d="M73 120l-82 -270c-1.33301 -4 0.333984 -6 5.00098 -6h95c2 0 3.66699 1.33301 5 4l82 270c1.33301 4 -0.333984 6 -5.00098 6h-95c-2 0 -3.66699 -1.33301 -5 -4zM227 121l-82 -270c-1.33301 -4 0.333984 -6 5.00098 -6h95c2 0 3.66699 1.33301 5 4l82 270
c1.33301 4 -0.333984 6 -5.00098 6h-95c-2 0 -3.66699 -1.33301 -5 -4z" />
    <glyph glyph-name="dagger" unicode="&#x2020;" horiz-adv-x="341" 
d="M161 509l-29 -98c-1.33301 -4 0.333984 -6 5.00098 -6h101l-36 -124c-1.33301 -4 0.333984 -6 5.00098 -6h89c2 0 3.66699 1.33301 5 4l37 126h104c2 0 3.66699 1.33301 5 4l29 98c1.33301 4 -0.333984 6 -5.00098 6h-101l53 182c1.33301 4 -0.333984 6 -5.00098 6h-90
c-2 0 -3.66699 -1.33301 -5 -4l-53 -184h-104c-2 0 -3.66699 -1.33301 -5 -4zM215 -5c2 0 3.66699 1.33301 5 4l60 209c1.33301 4 -0.333984 6 -5.00098 6h-89c-2 0 -3.66699 -1.33301 -5 -4l-60 -209c-1.33301 -4 0.333984 -6 5.00098 -6h89z" />
    <glyph glyph-name="daggerdbl" unicode="&#x2021;" horiz-adv-x="341" 
d="M178 555c-2 0 -3.66602 -1.33301 -4.99902 -4l-28 -94c-1.33301 -4 0.333984 -6 5.00098 -6h306c2 0 3.66699 1.33301 5 4l27 94c1.33301 4 -0.333984 6 -5.00098 6h-103l41 140c1.33301 4 -0.333984 6 -5.00098 6h-90c-2 0 -3.66699 -1.33301 -5 -4l-41 -142h-102z
M86.001 241c-2 0 -3.66797 -1.33301 -5.00098 -4l-27 -94c-1.33301 -4 0.333984 -6 5.00098 -6h100l-40 -136c-1.33301 -4 0.333984 -6 5.00098 -6h90c2 0 3.66699 1.33301 5 4l40 138h106c2 0 3.66699 1.33301 5 4l27 94c1.33301 4 -0.333984 6 -5.00098 6h-306z" />
    <glyph glyph-name="bullet" unicode="&#x2022;" horiz-adv-x="400" 
d="M156 358c-6 -21.333 -9 -41.6709 -9 -61.0039c0 -36 9.5 -65.667 28.5 -89s44.5 -35 76.5 -35c20 0 40.333 4.83301 61 14.5s40 22.834 58 39.501s34.167 36 48.5 58s25.166 45.667 32.499 71c6 20.667 9 41.334 9 62.001c0 36 -9.5 65.5 -28.5 88.5
s-44.5 34.5 -76.5 34.5c-20 0 -40.333 -4.83301 -61 -14.5s-40 -22.667 -58 -39s-34.167 -35.666 -48.5 -57.999s-25.166 -46.166 -32.499 -71.499z" />
    <glyph glyph-name="ellipsis" unicode="&#x2026;" horiz-adv-x="583" 
d="M383 134h-110c-2 0 -3.66699 -1.33301 -5 -4l-39 -130c-1.33301 -4 0.333984 -6 5.00098 -6h110c2 0 3.66699 1.33301 5 4l39 130c1.33301 4 -0.333984 6 -5.00098 6zM585 136h-110c-2 0 -3.66699 -1.33301 -5 -4l-39 -130c-1.33301 -4 0.333984 -6 5.00098 -6h110
c2 0 3.66699 1.33301 5 4l39 130c1.33301 4 -0.333984 6 -5.00098 6zM185 135h-110c-2 0 -3.66699 -1.33301 -5 -4l-39 -130c-1.33301 -4 0.333984 -6 5.00098 -6h110c2 0 3.66699 1.33301 5 4l39 130c1.33301 4 -0.333984 6 -5.00098 6z" />
    <glyph glyph-name="perthousand" unicode="&#x2030;" horiz-adv-x="764" 
d="M369 467l44 143.999c4 14 6 27 6 39c0 19.333 -5.16699 34.333 -15.5 45s-23.833 16 -40.5 16h-51c-20.667 0 -41 -8.33301 -61 -25s-35 -41 -45 -73l-44 -144c-4 -14 -6 -26.667 -6 -38c0 -20 5.16699 -35.333 15.5 -46s23.833 -16 40.5 -16h22c2 0 3.66699 1 5 3l25 75
c1.33301 4.66699 -0.333984 7 -5.00098 7c-8 0 -12 4.33301 -12 13c0 2.66699 0.333008 5 1 7l38 129v-1c2 6 5.83301 11.5 11.5 16.5s11.834 7.5 18.501 7.5c4.66699 0 8 -1.16699 10 -3.5s3 -5.16602 3 -8.49902c0 -2 -0.666992 -5 -2 -9l-38 -128
c-2 -8.66699 -8.33301 -15.667 -19 -21c-2 0 -3 -1 -3 -3l-26 -77c-1.33301 -4.66699 0.333984 -7 5.00098 -7h17c20.667 0 41.167 8.33301 61.5 25s35.166 41 44.499 73zM771 83.999l44 143.999c4 14 6 27 6 39c0 19.333 -5.16699 34.333 -15.5 45s-23.833 16 -40.5 16h-51
c-20.667 0 -41 -8.33301 -61 -25s-35 -41 -45 -73l-44 -144c-4 -14 -6 -26.667 -6 -38c0 -20 5.16699 -35.333 15.5 -46s23.833 -16 40.5 -16h22c2 0 3.66699 1 5 3l25 75c1.33301 4.66699 -0.333984 7 -5.00098 7c-8 0 -12 4.33301 -12 13c0 2.66699 0.333008 5 1 7l38 129
v-1c2 6 5.83301 11.5 11.5 16.5s11.834 7.5 18.501 7.5c4.66699 0 8 -1.16699 10 -3.5s3 -5.16602 3 -8.49902c0 -2 -0.666992 -5 -2 -9l-38 -128c-2 -8.66699 -8.33301 -15.667 -19 -21c-2 0 -3 -1 -3 -3l-26 -77c-1.33301 -4.66699 0.333984 -7 5.00098 -7h17
c20.667 0 41.167 8.33301 61.5 25s35.166 41 44.499 73zM410 89.998l38.001 130v-1c3.33301 9.33301 9.66602 16.333 18.999 21c2 0 3 1 3 3l24 78c1.33301 4 -0.333984 6 -5.00098 6h-16c-20.667 0 -41 -8.33301 -61 -25s-35 -41 -45 -73l-42 -144c-4 -14 -6 -27 -6 -39
c0 -19.333 5.16699 -34.333 15.5 -45s23.833 -16 40.5 -16h51c20.667 0 41 8.33301 61 25s35 40.667 45 72l42 145c4 14 6 27 6 39c0 19.333 -5.16699 34.333 -15.5 45s-23.833 16 -40.5 16h-23c-2 0 -3.66699 -1.33301 -5 -4l-22 -75c-1.33301 -4 0.333984 -6 5.00098 -6
c8 -1.33301 12 -5.33301 12 -12c0 -1.33301 -0.666992 -4 -2 -8l-38 -129c-1.33301 -5.33301 -4.5 -10.5 -9.5 -15.5s-11.167 -7.5 -18.5 -7.5c-5.33301 0 -9 1.5 -11 4.5s-3 6.16699 -3 9.5c0 2 0.333008 4 1 6zM702.001 710.998h-58
c-1.33301 0 -2.66602 -0.666992 -3.99902 -2l-612 -716c-1.33301 -1.33301 -1.66602 -3 -0.999023 -5s2.33398 -3 5.00098 -3h58c1.33301 0 2.66602 0.666992 3.99902 2l612 716c1.33301 1.33301 1.66602 3 0.999023 5s-2.33398 3 -5.00098 3z" />
    <glyph glyph-name="guilsinglleft" unicode="&#x2039;" horiz-adv-x="193" 
d="M105 257l32.001 -124.998c1.33301 -2.66699 3 -4 5 -4h83c4.66699 0 6.33398 2 5.00098 6l-31 122l121 123c1.33301 1.33301 1.66602 3.16602 0.999023 5.49902s-2.33398 3.5 -5.00098 3.5h-83c-2 0 -3.33301 -0.333008 -4 -1l-123 -125
c-0.666992 -0.666992 -1 -2.33398 -1 -5.00098z" />
    <glyph glyph-name="guilsinglright" unicode="&#x203a;" horiz-adv-x="193" 
d="M210 388l-83 -0.000976562c-4.66699 0 -6.33398 -2.33301 -5.00098 -7l41 -122l-113 -123c-1.33301 -1.33301 -1.66602 -3 -0.999023 -5s2.33398 -3 5.00098 -3h84c1.33301 0 2.66602 0.666992 3.99902 2l114 125c0.666992 0.666992 1 2.33398 1 5.00098l-42 125
c-1.33301 2 -3 3 -5 3z" />
    <glyph glyph-name="currency" unicode="&#x20ac;" horiz-adv-x="462" 
d="M163 395c-1.33301 -4.66699 0.332031 -7 4.99902 -7l201 -1c2 0 3.66699 1.33301 5 4l48 156c5.33301 18 11.5 30.167 18.5 36.5s15.167 9.5 24.5 9.5c5.33301 0 10 -1.5 14 -4.5s6 -7.16699 6 -12.5c0 -0.666992 -0.666992 -3.66699 -2 -9l-31 -107
c-1.33301 -4 0.333984 -6 5.00098 -6h124c2 0 3.66699 1.33301 5 4l30 101c9.33301 32 14 58.667 14 80c0 32.667 -10.167 56.5 -30.5 71.5s-52.166 22.5 -95.499 22.5c-57.333 0 -102.5 -13.5 -135.5 -40.5s-58.167 -70.833 -75.5 -131.5l-24 -78h-74
c-2.66699 0 -4.33398 -1 -5.00098 -3zM143.998 347c-2.66699 0 -4.33203 -0.999023 -4.99902 -2.99902l-34 -93c-1.33301 -4.66699 0.333984 -7 5.00098 -7h87l-26 -89c-10 -32 -15 -59.333 -15 -82c0 -32 10 -55.333 30 -70s51.667 -22 95 -22h12c2 0 4 0.166992 6 0.5
s4 0.5 6 0.5s3.66699 1.33301 5 4l37 135c0.666992 2.66699 0.166992 4.5 -1.5 5.5s-3.5 0.833008 -5.5 -0.5c-6.66699 -3.33301 -13.334 -5 -20.001 -5c-12 0 -18 5.33301 -18 16c0 5.33301 1.66699 14.666 5 27.999l48 176c1.33301 4 -0.333984 6 -5.00098 6h-206z" />
    <glyph glyph-name="trademark" unicode="&#x2122;" horiz-adv-x="492" 
d="M467 463l49 250c1.33301 4 -0.333984 6 -5.00098 6h-106c-2 0 -3.66699 -1.33301 -5 -4l-115 -383c-1.33301 -4 0.333984 -6 5.00098 -6h63c2 0 3.66699 1.33301 5 4l75 250l-44 -248c-1.33301 -4 0.333984 -6 5.00098 -6h67c2 0 3.66699 1 5 3l105 248l-73 -245
c-1.33301 -4 0.333984 -6 5.00098 -6h62c2 0 3.66699 1.33301 5 4l116 383c1.33301 4 -0.333984 6 -5.00098 6h-106c-2.66699 0 -4.33398 -1 -5.00098 -3zM242 639l-92.001 -307c-1.33301 -4 0.333984 -6 5.00098 -6h66c2 0 3.66699 1.33301 5 4l93 309h45
c2 0 3.66699 1.33301 5 4l22 70c1.33301 4 -0.333984 6 -5.00098 6h-165c-2 0 -3.66699 -1.33301 -5 -4l-22 -70c-1.33301 -4 0.333984 -6 5.00098 -6h43z" />
    </font>
</defs>
</svg>
